<svg id="Layer_1" data-name="Layer 1" xmlns="http://www.w3.org/2000/svg" xmlns:xlink="http://www.w3.org/1999/xlink" viewBox="0 0 16 16"><defs><style>.cls-1{fill:none;}.cls-2{clip-path:url(#clip-path);}.cls-3{fill:#293e54;}</style><clipPath id="clip-path"><rect id="SVGID" class="cls-1" x="2.16" width="11.68" height="16"/></clipPath></defs><title>ic-bt-completed</title><g class="cls-2"><path class="cls-3" d="M3.13,2.7a.51.51,0,0,0-.6-.36.49.49,0,0,0-.35.6L5.39,15.63a.5.5,0,0,0,.48.37L6,16a.49.49,0,0,0,.36-.59Zm0,0"/><path class="cls-3" d="M13.83,6.27,12.26.47A.53.53,0,0,0,11.73,0C8.78-.2,6.85,2.73,3.9,2.52c-.23,0-.38.09-.33.3L5.15,8.63a.57.57,0,0,0,.53.45c3,.22,4.88-2.72,7.83-2.51.23,0,.38-.09.32-.3ZM11.52.74c.14.54.29,1.07.43,1.6a5.21,5.21,0,0,0-1.74.37L9.77,1.1A5.52,5.52,0,0,1,11.52.74Zm-6.07,6c-.17-.61-.33-1.22-.5-1.82a5.28,5.28,0,0,0,1.84-.4C6.64,4,6.5,3.44,6.35,2.91A17.44,17.44,0,0,0,8.06,2c.15.53.29,1.07.44,1.6a18.66,18.66,0,0,1-1.71.91c.16.6.33,1.21.49,1.82a5.23,5.23,0,0,1-1.83.4ZM7.72,8c-.14-.54-.29-1.08-.44-1.62A18.4,18.4,0,0,0,9,5.43c.14.54.29,1.08.44,1.62a16.26,16.26,0,0,1-1.7.9ZM9,5.42c-.17-.61-.33-1.21-.49-1.82a13.19,13.19,0,0,1,1.71-.89c.16.6.33,1.21.49,1.82A14.62,14.62,0,0,0,9,5.42Zm2.16.73c-.15-.54-.29-1.09-.44-1.63a5.46,5.46,0,0,1,1.74-.36c.14.54.29,1.09.44,1.63a5.2,5.2,0,0,0-1.74.36Zm0,0"/></g></svg>