<svg id="Layer_1" data-name="Layer 1" xmlns="http://www.w3.org/2000/svg" viewBox="0 0 16 16"><defs><style>.cls-1{fill:#ff7e2f;}</style></defs><title>ic-bt-scheduled</title><path class="cls-1" d="M8,0a8,8,0,1,0,8,8A8,8,0,0,0,8,0Zm.77,13.3a1.2,1.2,0,0,1-.89.32A1.22,1.22,0,0,1,7,13.3a1.11,1.11,0,0,1-.33-.82A1.09,1.09,0,0,1,7,11.65a1.22,1.22,0,0,1,.88-.33,1.22,1.22,0,0,1,.88.33,1.09,1.09,0,0,1,.35.83A1.08,1.08,0,0,1,8.77,13.3Zm2.35-6.74a4.9,4.9,0,0,1-1,1.26l-.61.59A2.1,2.1,0,0,0,8.84,9.7l0,.46H6.88a4.54,4.54,0,0,1,.25-1.68,3.49,3.49,0,0,1,1-1.24,5.2,5.2,0,0,0,.91-1,1.59,1.59,0,0,0,.22-.81c0-.85-.39-1.28-1.18-1.28a1.18,1.18,0,0,0-.89.34,1.33,1.33,0,0,0-.35,1H4.59a2.94,2.94,0,0,1,.94-2.26A3.65,3.65,0,0,1,8,2.38a3.64,3.64,0,0,1,2.49.77,2.77,2.77,0,0,1,.89,2.19A2.71,2.71,0,0,1,11.12,6.56Z"/></svg>