<svg id="Layer_1" data-name="Layer 1" xmlns="http://www.w3.org/2000/svg" xmlns:xlink="http://www.w3.org/1999/xlink" viewBox="0 0 12 12"><defs><style>.cls-1{fill:none;}.cls-2{clip-path:url(#clip-path);}.cls-3{fill:#00aed5;}</style><clipPath id="clip-path"><rect class="cls-1" y="1.43" width="12" height="9.14"/></clipPath></defs><title>ic-check-blue</title><g class="cls-2"><path class="cls-3" d="M.14,6.46A.46.46,0,0,1,0,6.14a.44.44,0,0,1,.14-.32l.64-.64a.43.43,0,0,1,.64,0l0,0L4,7.92a.22.22,0,0,0,.32,0l6.12-6.36h.05a.45.45,0,0,1,.64,0l.64.65a.45.45,0,0,1,0,.64L4.44,10.44a.44.44,0,0,1-.33.13.44.44,0,0,1-.32-.13L.23,6.59Zm0,0"/></g></svg>