<svg id="Layer_1" data-name="Layer 1" xmlns="http://www.w3.org/2000/svg" viewBox="0 0 100 100"><defs><style>.Graphic-Style,.cls-1,.cls-2{fill:none;stroke:#abb7c5;stroke-linecap:round;stroke-miterlimit:10;}.cls-1{stroke-width:3px;}.Graphic-Style{stroke-width:2px;}.cls-2{stroke-width:4px;}</style></defs><title>ic-pg-denied-3</title><path class="cls-1" d="M74.05,38H70V30.24c0-11.57-9.8-21-21.33-20A19.53,19.53,0,0,0,31,30.05v8H26A8,8,0,0,0,18,46v36.1a8,8,0,0,0,8,8h48.1a8,8,0,0,0,8-8V46A8,8,0,0,0,74.05,38Z"/><path class="Graphic-Style" d="M52,38H39V31.33c0-5.23,3-10,7.74-11.68C54.6,16.92,62,23.19,62,31.13V38"/><path class="Graphic-Style" d="M61,84h9a6,6,0,0,0,6-6V64"/><path class="Graphic-Style" d="M28.62,44.37a5.2,5.2,0,0,0-5.19,5.19"/><circle class="cls-2" cx="50" cy="63.84" r="7.95"/></svg>