<svg id="Layer_1" data-name="Layer 1" xmlns="http://www.w3.org/2000/svg" viewBox="0 0 100 100"><defs><style>.Graphic-Style,.cls-1{fill:none;stroke:#abb7c5;stroke-linecap:round;stroke-miterlimit:10;}.cls-1{stroke-width:3px;}.Graphic-Style{stroke-width:2px;}</style></defs><title>ic-pg-denied-2</title><path class="cls-1" d="M69.89,90.38A45,45,0,1,1,88,74.08"/><path class="Graphic-Style" d="M63,14.25a38,38,0,1,1-44.86,15"/><path class="cls-1" d="M62,41H60V37.39a10.1,10.1,0,0,0-8.28-9.9C44.83,26.25,39,30.93,39,37.08V41H38a4,4,0,0,0-4,4V63a4,4,0,0,0,4,4H62a4,4,0,0,0,4-4V45A4,4,0,0,0,62,41Z"/><circle class="Graphic-Style" cx="50" cy="53.8" r="4"/><path class="Graphic-Style" d="M50.28,42H45V38.28a5,5,0,0,1,3.15-4.72,4.81,4.81,0,0,1,6.35,4.65V42"/></svg>
