<svg id="Layer_1" data-name="Layer 1" xmlns="http://www.w3.org/2000/svg" viewBox="0 0 100 100"><defs><style>.cls-1{fill:#abb7c5;}.Graphic-Style,.cls-2{fill:none;stroke:#abb7c5;stroke-linecap:round;stroke-miterlimit:10;}.cls-2{stroke-width:3px;}.Graphic-Style{stroke-width:2px;}</style></defs><title>ic-pg-denied-1</title><path class="cls-1" d="M50,30.81a18,18,0,1,0,18,18A18,18,0,0,0,50,30.81Zm9.12,20.31A3,3,0,0,1,57,52H43.15a3.29,3.29,0,0,1-3.08-2.35A3,3,0,0,1,43,46H56.85a3.29,3.29,0,0,1,3.08,2.35A3,3,0,0,1,59.12,51.12Z"/><path class="cls-2" d="M61.87,89c-3.28,2-6.19,3.69-8.31,4.85a7.42,7.42,0,0,1-7.11,0A157.07,157.07,0,0,1,26.14,80.71a36.33,36.33,0,0,1-13-20.92A7.78,7.78,0,0,1,13,58.26V22.5a7.82,7.82,0,0,1,5.24-7.44L47.62,5.14a7.46,7.46,0,0,1,4.76,0l29.38,9.92A7.82,7.82,0,0,1,87,22.5V58.26a7.78,7.78,0,0,1-.15,1.53,36.33,36.33,0,0,1-13,20.92"/><path class="Graphic-Style" d="M35.6,17.12l12-4a7.53,7.53,0,0,1,4.74,0l23.46,7.8A7.59,7.59,0,0,1,81,28.14V56.68a7.28,7.28,0,0,1-.17,1.61A29.89,29.89,0,0,1,70,75.32,131.64,131.64,0,0,1,53.57,85.83a7.48,7.48,0,0,1-7.14,0A131.64,131.64,0,0,1,30,75.32a29.89,29.89,0,0,1-10.84-17A7.28,7.28,0,0,1,19,56.68V28.09a7.52,7.52,0,0,1,5.12-7.15"/></svg>