<svg xmlns="http://www.w3.org/2000/svg" viewBox="0 0.6 82 63" width="170" height="128">
<path fill="#ABB7C5" d="M30.4,43.4c6.9,7.9,18.1,10.3,27.7,6.1c0.5-0.2,0.7-0.8,0.5-1.3c-0.2-0.5-0.8-0.7-1.3-0.5
	c-8.8,3.9-19,1.6-25.3-5.6c-8-9.1-7.2-23,1.9-31.1s23-7.2,31.1,1.9c6.4,7.2,7.3,17.6,2.4,25.8c-0.3,0.5-0.1,1.1,0.3,1.4
	c0.5,0.3,1.1,0.1,1.4-0.3c5.4-9,4.3-20.3-2.6-28.2c-8.8-9.9-24-10.9-33.9-2.1S21.6,33.5,30.4,43.4"/>
<path fill="#ABB7C5" d="M31.9,18.1c-0.5-0.2-1.1-0.1-1.3,0.4c-1.5,2.9-2.2,6.1-2.1,9.3c0.2,11,9.3,19.8,20.3,19.7s19.8-9.3,19.7-20.3
	c-0.1-8.2-5.2-15.5-12.9-18.4c-0.5-0.2-1.1,0.1-1.3,0.6c-0.2,0.5,0.1,1.1,0.6,1.3c7,2.6,11.5,9.1,11.6,16.5
	c0.2,9.9-7.8,18.1-17.7,18.3s-18.1-7.8-18.3-17.7c0-2.9,0.6-5.8,1.9-8.4C32.6,18.9,32.4,18.3,31.9,18.1"/>
<polyline fill="none" stroke="#ABB7C5" stroke-width="2" stroke-linecap="round" stroke-linejoin="round" stroke-miterlimit="10" points="1,5.5 4.9,1.6 8.8,5.5 "/>
<polyline fill="none" stroke="#ABB7C5" stroke-width="2" stroke-linecap="round" stroke-linejoin="round" stroke-miterlimit="10" points="23.5,37.9 4.9,37.9 4.9,37 4.9,2 "/>
<line fill="none" stroke="#ABB7C5" stroke-width="2" stroke-linecap="round" stroke-linejoin="round" stroke-miterlimit="10" x1="58.8" y1="37.9" x2="38.3" y2="37.9"/>
<line fill="none" stroke="#ABB7C5" stroke-width="2" stroke-linecap="round" stroke-linejoin="round" stroke-miterlimit="10" x1="78.9" y1="37.9" x2="73.5" y2="37.9"/>
<polyline fill="none" stroke="#ABB7C5" stroke-width="2" stroke-linecap="round" stroke-linejoin="round" stroke-miterlimit="10" points="76.2,34.1 80.1,37.9 76.2,41.8 "/>
<path fill="#ABB7C5" d="M67,43c-0.4,0.4-0.4,1,0,1.4l2.1,2.1c0.2,0.2,0.5,0.3,0.7,0.3c0.3,0,0.5-0.1,0.7-0.3c0.4-0.4,0.4-1,0-1.4
	L68.4,43C68,42.6,67.4,42.6,67,43"/>
<path fill="#ABB7C5" d="M81.7,58.4c0,1.3-0.5,2.6-1.5,3.5c-1,1-2.3,1.5-3.5,1.5s-2.6-0.5-3.5-1.5L61.3,50.1c-0.4-0.4-0.4-1,0-1.4
	c0.4-0.4,1-0.4,1.4,0l11.9,11.9c1.2,1.2,3.1,1.2,4.2,0c0.6-0.6,0.9-1.3,0.9-2.1c0-0.8-0.3-1.6-0.9-2.1L72.5,50l-2.1,2.1
	c-0.4,0.4-1,0.4-1.4,0c-0.4-0.4-0.4-1,0-1.4l2.8-2.8c0.2-0.2,0.4-0.3,0.7-0.3h0c0.3,0,0.5,0.1,0.7,0.3l7,7
	C81.2,55.8,81.7,57,81.7,58.4"/>
<path fill="none" stroke="#ABB7C5" stroke-width="2" stroke-miterlimit="10" d="M10.5,37.5V14.1c0-1.6,1.3-2.8,2.8-2.8h4.5c1.6,0,2.8,1.3,2.8,2.8v23.5"/>
<path fill="none" stroke="#ABB7C5" stroke-width="2" stroke-miterlimit="10" d="M43.5,37.5V24.1c0-1.6,1.3-2.8,2.8-2.8h4.5c1.6,0,2.8,1.3,2.8,2.8v13.5"/>
</svg>
