<svg xmlns="http://www.w3.org/2000/svg" viewBox="0 0 21 21" width="21" height="21">
<g>
	<path d="M0,20l3-3l3,3l3-3l2,2v-5H3v-2h10h1v-1c0-0.2,0-0.3,0.1-0.5c0,0,0,0,0-0.1c0-0.2,0.1-0.3,0.2-0.4H9V8h6v1.3
		c0.1-0.1,0.3-0.1,0.4-0.2c0,0,0,0,0.1,0C15.7,9,15.8,9,16,9h2V0H0V20z M9,4h6v2H9V4z M5.1,7.4C3.8,7.1,3,6.6,3,5.6
		C3,4.7,3.7,4.2,4.5,4V3h1.3v1c0.9,0.2,1.4,0.9,1.4,1.7h-1c0-0.6-0.3-0.9-1.1-0.9C4.5,4.7,4,5.1,4,5.6c0,0.4,0.3,0.7,1.3,1
		c1,0.3,2.1,0.7,2.1,2c0,0.9-0.7,1.4-1.6,1.6v1H4.5v-1C3.7,9.9,3,9.3,2.9,8.3h1c0,0.5,0.4,0.9,1.3,0.9c1,0,1.2-0.5,1.2-0.8
		C6.4,8.1,6.2,7.7,5.1,7.4"/>
	<rect x="13" y="14" class="st0" width="2" height="7"/>
	<rect x="19" y="16" class="st0" width="2" height="5"/>
	<rect x="16" y="11" class="st0" width="2" height="10"/>
</g>
</svg>
