<svg xmlns="http://www.w3.org/2000/svg" viewBox="0 0 22 22" width="22" height="22">
<path d="M9.6,20.6c0-0.7,0.4-1.3,0.9-1.7v-1.8c-0.6-0.4-0.9-1-0.9-1.7v-0.9c0-0.7,0.4-1.4,1.1-1.8l4.5-2.4
	c0.3-0.2,0.6-0.2,0.9-0.2s0.6,0.1,0.9,0.2l2.9,1.6V10V5.7c0-0.2-0.1-0.3-0.3-0.4l-9.6-5.3C10,0,9.8,0,9.6,0.1L7.3,1.4l-7,3.9
	C0.1,5.4,0,5.6,0,5.7V12v4.2c0,0.2,0.1,0.3,0.3,0.4l9.4,5.1V20.6z M9.9,1l8.6,4.7l-8.4,4.6L1.4,5.7L9.9,1z M6.5,13.3
	c-0.1,0-0.2,0-0.3,0L4.1,12c-0.3-0.1-0.3-0.4-0.2-0.6c0.2-0.2,0.5-0.3,0.7-0.2l2.2,1.2C7,12.5,7.1,12.8,6.9,13
	C6.8,13.2,6.7,13.3,6.5,13.3z"/>
<path d="M12.6,16.3v3.3H14v-3.3H12.6z M15.4,16.3v3.3h1.4v-3.3H15.4z M11.6,22h9v-1.4h-9V22z M18.3,16.3v3.3h1.4
	v-3.3H18.3z M16.1,12l-4.5,2.4v0.9h9v-0.9L16.1,12z"/>
</svg>
