<svg xmlns="http://www.w3.org/2000/svg" viewBox="0 0 22 22" width="22" height="22">
<path d="M11.1,15.1v-2h2h1V12v-2h2h2H20v0V5.7c0-0.2-0.1-0.3-0.3-0.4l-9.6-5.3C10,0,9.8,0,9.6,0.1L7.3,1.4l-7,3.9
	C0.1,5.4,0,5.6,0,5.7V12v4.2c0,0.2,0.1,0.3,0.3,0.4l9.6,5.3c0.2,0.1,0.4,0.1,0.5,0l0.8-0.4V15.1z M6.9,13c-0.1,0.1-0.3,0.2-0.4,0.2
	c-0.1,0-0.2,0-0.3,0L4.1,12c-0.3-0.1-0.3-0.4-0.2-0.6c0.2-0.2,0.5-0.3,0.7-0.2l2.2,1.2C7,12.5,7.1,12.8,6.9,13z M1.4,5.7L9.9,1
	l8.6,4.7l-8.4,4.6L1.4,5.7z"/>
<path d="M18.1,12h-2v10h2V12z M21.1,17h-2v5h2V17z M13.1,15.1V22h2v-6.9H13.1z"/>
</svg>
