<svg xmlns="http://www.w3.org/2000/svg" viewBox="0 0 21 21" width="21" height="21">
<g>
	<path d="M20.9,17.2l-1.1-0.9v-1l1.1-0.8c0.1-0.1,0.1-0.2,0.1-0.3l-1-1.7c-0.1-0.1-0.2-0.2-0.3-0.1l-1.3,0.4
		c-0.3-0.2-0.6-0.4-0.9-0.5L17.3,11c0-0.1-0.1-0.2-0.3-0.2h-2c-0.1,0-0.2,0.1-0.3,0.2l-0.2,1.3c-0.3,0.1-0.6,0.3-0.9,0.5l-1.3-0.5
		c-0.1,0-0.2,0-0.3,0.1l-1,1.7c-0.1,0.1,0,0.2,0.1,0.3l1.1,0.8v1L11.2,17c-0.1,0.2-0.1,0.3-0.1,0.4l1,1.7c0.1,0.1,0.2,0.2,0.3,0.1
		l1.4-0.4c0.3,0.2,0.6,0.4,0.9,0.5l0.2,1.3c-0.1,0.1,0.1,0.2,0.2,0.2h2c0.1,0,0.2-0.1,0.3-0.2l0.2-1.3c0.3-0.1,0.6-0.3,0.9-0.5
		l1.3,0.5c0.1,0,0.2,0,0.3-0.1l1-1.7C21.1,17.4,21,17.3,20.9,17.2z M16,17.8c-1.1,0-2-0.9-2-2s0.9-2,2-2s2,0.9,2,2
		S17.1,17.8,16,17.8z"/>
</g>
<path d="M19.8,12.4C19.8,12.4,19.8,12.4,19.8,12.4C19.8,12.4,19.8,12.4,19.8,12.4C19.8,12.4,19.8,12.4,19.8,12.4z"/>
<path d="M9.1,17.4c0-0.3,0-0.7,0.3-1.3c0.1-0.1,0.2-0.3,0.3-0.4c-0.8-0.9-0.8-2-0.3-2.7l0.6-1h0v-2h2V8h-2V6h8v3
	c0.6,0.3,1.1,0.8,1.3,1.4c0.2,0,0.4-0.1,0.5-0.1c0.1,0,0.1,0,0.2,0V4H10V0H0v18h9.2C9.1,17.8,9.1,17.6,9.1,17.4z M4,16H2v-2h2V16z
	 M4,12H2v-2h2V12z M4,8H2V6h2V8z M4,4H2V2h2V4z M8,16H6v-2h2V16z M8,12H6v-2h2V12z M8,8H6V6h2V8z M8,4H6V2h2V4z"/>
<path d="M14,9.1c0.3-0.2,0.6-0.3,1-0.3h1V8h-2V9.1z"/>
<path d="M19.9,12.5C19.9,12.4,19.9,12.4,19.9,12.5C19.9,12.4,19.9,12.4,19.9,12.5z"/>
</svg>
