<svg xmlns="http://www.w3.org/2000/svg" viewBox="0 0 21 21" width="21" height="21">
<g>
	<path d="M20.9,17.4l-1.1-0.9v-1l1.1-0.8c0.1-0.1,0.1-0.2,0.1-0.3l-1-1.7c-0.1-0.1-0.2-0.2-0.3-0.1L18.4,13
		c-0.3-0.2-0.6-0.4-0.9-0.5l-0.2-1.3c0-0.1-0.1-0.2-0.3-0.2h-2c-0.1,0-0.2,0.1-0.3,0.2l-0.2,1.3c-0.3,0.1-0.6,0.3-0.9,0.5l-1.3-0.5
		c-0.1,0-0.2,0-0.3,0.1l-1,1.7c-0.1,0.1,0,0.2,0.1,0.3l1.1,0.8v1l-1.1,0.8C11,17.4,11,17.5,11,17.6l1,1.7c0.1,0.1,0.2,0.2,0.3,0.1
		l1.4-0.4c0.3,0.2,0.6,0.4,0.9,0.5l0.2,1.3C14.7,20.9,14.9,21,15,21h2c0.1,0,0.2-0.1,0.3-0.2l0.2-1.3c0.3-0.1,0.6-0.3,0.9-0.5
		l1.3,0.5c0.1,0,0.2,0,0.3-0.1l1-1.7C21.1,17.6,21,17.5,20.9,17.4z M16,18c-1.1,0-2-0.9-2-2s0.9-2,2-2s2,0.9,2,2S17.1,18,16,18z"/>
</g>
<path d="M9,17.6c0-0.3,0-0.7,0.3-1.3l0.2-0.4l0,0c-0.2-0.3-0.4-0.6-0.5-0.9H3v-1c0-2,4-3.1,6-3.1
	c0.5,0,1.1,0.1,1.7,0.2c0.4-0.4,1-0.6,1.6-0.6h0.4l0.1,0l0-0.3l0.5-0.5C13.5,9.6,14.1,9,15,9h2c0.4,0,0.7,0.1,1,0.2V2
	c0-1.1-0.9-2-2-2H2C0.9,0,0,0.9,0,2v14c0,1.1,0.9,2,2,2h7V17.6z M9,3c1.7,0,3,1.3,3,3c0,1.7-1.3,3-3,3C7.3,9,6,7.7,6,6
	C6,4.3,7.3,3,9,3z"/>
</svg>
