<svg xmlns="http://www.w3.org/2000/svg" viewBox="0 0 22 22" width="22" height="22">
<g>
	<path d="M11.7,9.5L11.7,9.5l0.1-0.2l0.5-0.5C12.5,8.6,13.1,8,14,8h2c0.9,0,1.6,0.4,2,1.1c0,0,0-0.1,0-0.1
		c0-5-4-9-9-9S0,4,0,9c0,4.8,3.8,8.7,8.5,9l-0.2-0.4L8,17.1v-0.5c0-0.3,0-0.7,0.3-1.2c-2-0.2-3.7-1.3-4.7-2.9c0-1.8,3.6-2.8,5.4-2.8
		c0.3,0,0.6,0,1,0.1c0.4-0.3,0.8-0.4,1.3-0.4H11.7z M9,8.1c-1.5,0-2.7-1.2-2.7-2.7c0-1.5,1.2-2.7,2.7-2.7s2.7,1.2,2.7,2.7
		C11.7,6.9,10.5,8.1,9,8.1z"/>
	<path d="M19.9,16.4l-1.1-0.9v-1l1.1-0.8c0.1-0.1,0.1-0.2,0.1-0.3l-1-1.7c0,0-0.1-0.1-0.1-0.1c0,0,0,0,0,0
		c0,0-0.1,0-0.1,0c0,0,0,0,0,0c0,0-0.1,0-0.1,0L17.5,12l-0.1,0c-0.3-0.2-0.6-0.4-0.9-0.5l-0.2-1.3c0-0.1-0.1-0.2-0.3-0.2h-2
		c-0.1,0-0.2,0.1-0.3,0.2l-0.2,1l0,0.3c-0.3,0.1-0.6,0.3-0.9,0.5l-1.3-0.5c-0.1,0-0.2,0-0.3,0.1l-1,1.7c-0.1,0.1,0,0.2,0,0.2
		c0,0,0,0,0.1,0.1l1.1,0.8v0.7v0.3l-1.1,0.8c0,0.1-0.1,0.2-0.1,0.2s0,0.1,0,0.2l0.7,1.2l0.3,0.5c0,0,0.1,0.1,0.1,0.1c0,0,0,0,0,0
		c0,0,0.1,0,0.1,0c0,0,0,0,0,0c0,0,0,0,0,0c0,0,0.1,0,0.1,0l1.4-0.4c0.3,0.2,0.6,0.4,0.9,0.5l0.2,1.3C13.7,19.9,13.9,20,14,20h2
		c0.1,0,0.2-0.1,0.3-0.2l0.2-1.3c0.3-0.1,0.6-0.3,0.9-0.5l1.3,0.5c0.1,0,0.2,0,0.3-0.1l1-1.7C20.1,16.6,20,16.5,19.9,16.4z M15,17
		c-0.4,0-0.9-0.2-1.2-0.4C13.3,16.2,13,15.7,13,15c0-1.1,0.9-2,2-2c0.7,0,1.2,0.3,1.6,0.8c0.2,0.3,0.4,0.7,0.4,1.2
		C17,16.1,16.1,17,15,17z"/>
</g>
</svg>