<svg xmlns="http://www.w3.org/2000/svg" viewBox="0 0 20 20" width="20" height="20">
<g>
	<path d="M9,9.8c0.5,0,1,0.1,1.6,0.2H15h2v2v1h0.1c0.6-1.2,0.9-2.6,0.9-4c0-5-4-9-9-9S0,4,0,9c0,4.6,3.5,8.4,8,8.9
		V17v-1v-0.6c-1.8-0.3-3.4-1.3-4.4-2.8C3.6,10.8,7.2,9.8,9,9.8z M9,2.7c1.5,0,2.7,1.2,2.7,2.7c0,1.5-1.2,2.7-2.7,2.7
		S6.3,6.9,6.3,5.4C6.3,3.9,7.5,2.7,9,2.7z"/>
	<polygon points="15.7,15 11.4,15 10,15 10,15.4 10,17 13.1,17 20,17 20,15 	"/>
	<polygon points="10,14 13.1,14 15,14 15,12 14.3,12 10,12 	"/>
	<rect x="10" y="18" width="6.9" height="2"/>
</g>
</svg>
