<svg xmlns="http://www.w3.org/2000/svg"
     viewBox="0 0 875.22 193"
     width="875px"
     height="193px">
    <defs>
        <style>
            .logo-path-container .cls-1{fill:#094975;fill-rule:evenodd;}
            .logo-path-container .cls-2{fill:#0f76bd;}
            .logo-path-container .cls-3{fill:#16aeff;}
            .logo-path-container .cls-4{fill:#ee6b00;}
            .logo-path-container .cls-5{fill:#db0404;}
            <!--.cls-6{fill:#084b79;}-->
            .logo-path-container .cls-6{fill:#ffffff;}
        </style>
    </defs>
    <g>
        <g class="logo-path-container">
            <path class="cls-1" d="M.37,46.27H45.54V91.44H.37Z"/>
            <path class="cls-1" d="M18.65,91.44a72.85,72.85,0,0,1,11.46,1.1c3.23.6,17.14,5.39,17.28,16.06,0,2.47,0,6.18,0,9.21C47.6,140.07,61,110.17,61,110.17L71.72,98.42l-8.78-.09c-3.86-.05-7.3.69-11.89-4.68-4.36-5.11-5.77-11-5.5-22Z"/>
            <path class="cls-1" d="M47.37,98.42H92.55v45.17H47.37Z"/>
            <path class="cls-1" d="M65.59,143.59a55,55,0,0,1,11.63.74c3.23.6,14.16,4.8,18.18,14.69a27.07,27.07,0,0,1,2.85,13.4C98,194.68,108.06,162,108.06,162l11.57-9.18-9.27-.37c-4-.18-7.62-1.61-12.21-7-4.36-5.1-5.88-11-5.62-22Z"/>
            <path class="cls-1" d="M98.05,152.59h39.2v39.2H98.05Z"/>
            <rect class="cls-2" x="1" y="102" width="39" height="38"/>
            <rect class="cls-3" y="151" width="41" height="42"/>
            <rect class="cls-4" x="100" y="100" width="38" height="39"/>
            <rect class="cls-5" x="100" y="47" width="43" height="45"/>
            <rect class="cls-4" x="146" y="28" width="17" height="17"/>
            <rect class="cls-5" x="128" width="18" height="17"/>
            <path class="cls-6" d="M256.17,106.05c0-5.75,10.41-6,10.41,0v78.62c0,6.85-9.45,7.53-12.33,2.74L203,118.79l1.1,18.9V186c0,6.71-10.41,6.85-10.41,0V107.56c0-6.85,7.67-7.94,11.09-2.88l52.73,70.54-1.37-20.68Z"/>
            <path class="cls-6" d="M296.85,109.89c0,6.16-10.27,6.3-10.27,0v-6.16c0-6.3,10.27-6.3,10.27,0Zm-10.13,14.79c0-5.89,10-6,10-.14v61.77c0,6-10,5.89-10,0Z"/>
            <path class="cls-6" d="M359.57,121c5.34-4.79,12.33,1.92,7.12,6.85l-25.61,23.69,28.21,31.09c4.66,5.62-3.56,11.37-7.81,5.89l-27.94-31.37-8.08,7.26v21.37c0,6.16-10,6.44-10,0v-81.9c0-5.62,10-5.62,10,0V153.3l9.45-9.31Z"/>
            <path class="cls-6" d="M387.1,178.78c-6.16-7.26-8.77-16-8.35-26.3,1.37-15.2,10.27-27.94,25.34-32.19a43.42,43.42,0,0,1,20.54,0c14.93,4.25,24.24,16.85,25.47,32.19q.82,15.41-8.22,26.3c-6.71,8.08-16.57,12.33-27.39,12.33S393.81,186.86,387.1,178.78Zm27.26-50.4a29.06,29.06,0,0,0-7.26,1c-11.5,3-18.22,13.7-18.22,26a26.89,26.89,0,0,0,6,17.39,25.54,25.54,0,0,0,19.58,9,27,27,0,0,0,19.72-9,28,28,0,0,0,6-17.12c0-12.46-6.71-23.28-18.35-26.3A32.31,32.31,0,0,0,414.36,128.38Z"/>
            <path class="cls-6" d="M477.22,143.44h50.4V106.05c0-6.57,10-6.57,10,0V185.9c0,6.71-10,7-10,0V152.07h-50.4V185.9c0,7.12-9.86,6.3-9.86,0V106.05c0-6.71,9.86-6.3,9.86,0Z"/>
            <path class="cls-6" d="M600.48,120.43c15.48,4.25,25.06,16.85,25.34,34.38v-.14c.27,3-1.1,6.3-6.71,6.3H565c1.78,11.23,11.37,20.54,25.06,20.54a29.69,29.69,0,0,0,18.22-5.75c4.79-4.38,11.92,1.23,6.57,6.71-6.3,5.89-15.48,8.36-24.38,8.22-10.68,0-21.37-4.11-27.8-12.19-14.79-19.45-8.35-51,17.12-58.07a38.74,38.74,0,0,1,20.54,0ZM564.6,152.62h51.63c-1-11.64-8.08-20.54-18.76-23.28h.14a28.52,28.52,0,0,0-14.79.14C571.86,132.35,565.42,141.53,564.6,152.62Z"/>
            <path class="cls-6" d="M660.06,121.94a32.85,32.85,0,0,1,14.66-2.6c7.81.14,16.71,2.6,21.64,10.68v-5.21a4.6,4.6,0,0,1,4.93-4.93,4.78,4.78,0,0,1,5.07,4.93v60.81a4.71,4.71,0,0,1-5.07,4.93,4.54,4.54,0,0,1-4.93-4.93v-6.57c-4,7.94-14.11,12.46-22.19,12.46-6.57,0-14-1.78-19.72-5.89-10.41-7.12-15.75-18.76-15.34-32.19.27-13.83,7.94-26.57,21.09-31.64Zm36.29,38.76V149.88c0-13.56-9.45-20.54-21.78-21.09-9.72-.14-19.59,5.07-23.42,14.66a29.66,29.66,0,0,0-2.05,10.14c-.27,8.9,2.6,17.12,10,23.28a26.52,26.52,0,0,0,14.11,5.21C685.81,182.07,695.67,174.4,696.35,160.7Z"/>
            <path class="cls-6" d="M736.62,185.76a5,5,0,0,1-10,0V103.59a5,5,0,0,1,10,0Z"/>
            <path class="cls-6" d="M785.51,120.16a4.32,4.32,0,1,1,0,8.63H770.58v37c0,7.81,1.23,16,10.55,16a15.37,15.37,0,0,0,6.44-1.51c5.75-3.29,10.27,4.79,4.11,8.22a20.5,20.5,0,0,1-10.55,2.33c-16.44,0-20.41-12.05-20.41-25.06v-37h-9c-6.44,0-6-8.63,0-8.63h9V104.27c0-6.57,9.86-6.44,9.86,0v15.89Z"/>
            <path class="cls-6" d="M865.22,149.61A21.18,21.18,0,0,0,844,128.24c-13.29,0-25.75,9.31-25.75,23.42v34.1a4.54,4.54,0,0,1-4.93,4.93c-3.15,0-5.2-1.92-5.2-4.93v-82c0-5.89,10.13-5.75,10.13,0v28.76c4.93-9.59,15.61-13.56,25.89-13.56,15.89,0,31.09,11,31.09,30.68v36.16a4.54,4.54,0,0,1-4.93,4.93,4.71,4.71,0,0,1-5.07-4.93Z"/>
        </g>
    </g>
</svg>
