<svg xmlns="http://www.w3.org/2000/svg" viewBox="0 0 264 130" >
	<rect fill="#E3E6EA" width="264" height="130"/>
	<path fill="#FFFFFF" d="M74.7,18.3c-0.8,0-1.5,0.7-1.5,1.5v58l24.7-19.6c1.1-0.8,2.8-0.8,3.8,0.1l20.9,17.7l26.7-29.5c1.2-1.3,2.9-1.4,4.3-0.1l21.8,21.1c2-0.5,4.1-0.8,6.2-0.8c3.2,0,6.2,0.6,9,1.7V19.8c0-0.8-0.7-1.5-1.5-1.5H74.7z M118.4,33.3c5,0,9,4.1,9,9s-4.1,9-9,9c-5,0-9-4.1-9-9S113.4,33.3,118.4,33.3z M151.7,52.7l-26.6,29.4c-1,1.1-3,1.2-4.1,0.2l-21.3-18L73.2,85.4v15.7c0,0.8,0.7,1.5,1.5,1.5h86.2c-2.1-3.6-3.3-7.7-3.3-12.1c0-8.8,4.8-16.5,11.8-20.7L151.7,52.7z M181.7,69.5c-11.7,0-21.1,9.5-21.1,21.1c0,11.7,9.5,21.1,21.1,21.1c11.7,0,21.1-9.5,21.1-21.1C202.8,79,193.4,69.5,181.7,69.5z M189.2,80.1c0.8,0,1.6,0.3,2.2,0.9c1.2,1.2,1.2,3.1,0,4.3l-5.4,5.4l5.4,5.4c1.2,1.2,1.2,3.1,0,4.3c-1.2,1.2-3.1,1.2-4.3,0l-5.4-5.4l-5.4,5.4c-1.2,1.2-3.1,1.2-4.3,0c-1.2-1.2-1.2-3.1,0-4.3l5.4-5.4l-5.4-5.4c-1.2-1.2-1.2-3.1,0-4.3c1.6-1.3,3.2-1,4.3,0l5.4,5.4l5.4-5.4C187.7,80.4,188.4,80.1,189.2,80.1L189.2,80.1z"/>
</svg>