<svg xmlns="http://www.w3.org/2000/svg" viewBox="0 0 26 20" width="20" height="26">
<path fill="#FFFFFF" d="M7,7h1h0.6c1.2-2.9,4.1-5,7.4-5c4.4,0,8,3.6,8,8c0,4.4-3.6,8-8,8c-3.4,0-6.2-2.1-7.4-5H8H7v1v0.3
	c1.6,3.3,5,5.7,9,5.7c5.5,0,10-4.5,10-10c0-5.5-4.5-10-10-10c-4,0-7.4,2.3-9,5.7V6V7z"/>
<polygon fill="#FFFFFF" points="6.1,9 5,9 5,6 3,6 3,9 0,9 0,11 3,11 3,14 5,14 5,11 6.1,11 8,11 8,10 8,9 "/>
<path fill="#FFFFFF" d="M20.3,14.2L16,10l-4.2,4.2C14.1,16.6,17.9,16.6,20.3,14.2z"/>
<path fill="#FFFFFF" d="M16,0c-4,0-7.4,2.3-9,5.7V6v1h1h0.6c1.2-2.9,4.1-5,7.4-5c4.4,0,8,3.6,8,8c0,4.4-3.6,8-8,8
	c-3.4,0-6.2-2.1-7.4-5H8H7v1v0.3c1.6,3.3,5,5.7,9,5.7c5.5,0,10-4.5,10-10C26,4.5,21.5,0,16,0z"/>
<polygon fill="#FFFFFF" points="6.1,9 5,9 5,6 3,6 3,9 0,9 0,11 3,11 3,14 5,14 5,11 6.1,11 8,11 8,10 8,9 "/>
</svg>
