<svg xmlns="http://www.w3.org/2000/svg" viewBox="0 0 80 80" width="20" height="20">
<g>
	<circle fill="#FEA400" cx="40" cy="40" r="40"/>
	<path fill="#FFFFFF" d="M62.9,33.5l-6.2,6.2L40.3,23.3l6.2-6.2c1.1-1.1,3-1.1,4.1,0l12.3,12.3C64,30.6,64,32.4,62.9,33.5z M38.2,25.3
		l-13.3,5.1c-0.4,0.2-1,0.5-1.3,0.8c-0.3,0.3-0.7,0.8-0.8,1.3l-6.6,29.2L29,48.9c-0.5-0.9-0.9-1.9-0.9-3c0-3.3,2.7-5.9,5.9-5.9
		c3.3,0,5.9,2.7,5.9,5.9c0,3.3-2.7,5.9-5.9,5.9c-1.1,0-2.1-0.3-3-0.9L18.3,63.7l29.2-6.6c0.4-0.1,1-0.4,1.3-0.7
		c0.3-0.3,0.5-0.8,0.7-1.3l5.1-13.3L38.2,25.3z"/>
</g>
</svg>
