<svg xmlns="http://www.w3.org/2000/svg" viewBox="0 0 16 16" width="16" height="16">
<path fill="#FEA400" d="M3.7,5.1L3.8,5c0,0,0.1-0.1,0.1-0.1l0,0L4,4.7C4.2,4.5,4.5,4.2,4.7,4l0.2-0.2l0,0c0,0,0.1-0.1,0.1-0.1l0.2-0.1
	L2.4,2.3l0.2,0.3L3.7,5.1z"/>
<path fill="#FEA400" d="M2.9,8.8c0,0,0-0.1,0-0.1l0,0l0-0.2c0-0.2,0-0.3,0-0.5c0-0.2,0-0.3,0-0.5l0-0.2l0,0c0,0,0-0.1,0-0.1l0-0.2
	L2.7,7L0,8l2.9,1L2.9,8.8z"/>
<path fill="#FEA400" d="M7.3,2.9L7.3,2.9l0.2,0c0.2,0,0.3,0,0.5,0s0.3,0,0.5,0l0.2,0l0,0c0,0,0.1,0,0.1,0l0.2,0L8,0L7.9,0.3L7,2.9
	l0.2,0C7.2,2.9,7.3,2.9,7.3,2.9z"/>
<path fill="#FEA400" d="M11.1,3.9L11.1,3.9L11.1,3.9c0.1,0.1,0.2,0.2,0.3,0.3c0.2,0.1,0.3,0.3,0.4,0.4c0.1,0.1,0.1,0.2,0.2,0.2l0.1,0.1
	l0,0c0,0,0.1,0.1,0.1,0.1l0.1,0.2l1.3-2.8l-0.3,0.2l-2.5,1.2L11,3.8C11.1,3.8,11.1,3.9,11.1,3.9z"/>
<path fill="#FEA400" d="M13.1,9L16,8l-2.9-1l0,0.2c0,0,0,0.1,0,0.1l0,0l0,0.2c0,0.2,0,0.3,0,0.5c0,0.2,0,0.3,0,0.5l0,0.2l0,0
	c0,0,0,0.1,0,0.1L13.1,9z"/>
<path fill="#FEA400" d="M8.7,13.1L8.7,13.1l-0.2,0c-0.2,0-0.3,0-0.5,0c-0.2,0-0.3,0-0.5,0l-0.2,0l0,0c0,0-0.1,0-0.1,0l-0.2,0L7,13.3
	L8,16l1-2.9l-0.2,0C8.8,13.1,8.7,13.1,8.7,13.1z"/>
<path fill="#FEA400" d="M12.2,11C12.2,11.1,12.1,11.1,12.2,11L12.2,11L12,11.3c-0.2,0.2-0.3,0.4-0.5,0.6c-0.1,0.1-0.2,0.2-0.3,0.3
	c0,0-0.1,0.1-0.1,0.1l-0.2,0.1l2.8,1.3l-1.3-2.8L12.2,11z"/>
<path fill="#FEA400" d="M4.9,12.1L4.9,12.1L4.7,12c-0.2-0.2-0.5-0.4-0.6-0.6l-0.1-0.2l0,0c0,0-0.1-0.1-0.1-0.1l-0.1-0.2l-0.1,0.2
	l-1.2,2.6l2.8-1.3L5,12.2C4.9,12.2,4.9,12.1,4.9,12.1z"/>
<path fill="#FEA400" d="M11.7,10.7c0.6-0.8,0.9-1.8,0.9-2.7c0-1.4-0.6-2.8-1.9-3.7C9.9,3.7,8.9,3.4,8,3.4c-1.4,0-2.8,0.6-3.7,1.9
	C3.7,6.1,3.4,7.1,3.4,8c0,1.4,0.6,2.8,1.9,3.7c0.8,0.6,1.8,0.9,2.7,0.9C9.4,12.6,10.8,11.9,11.7,10.7z"/>
</svg>
