<svg xmlns="http://www.w3.org/2000/svg" viewBox="0 0 14 14" width="14" height="14">
<path fill="#06aed5" d="M14,0.8C14,0.4,13.6,0,13.2,0l0,0H8C7.6,0,7.2,0.4,7.2,0.8c0,0.5,0.4,0.8,0.8,0.8h3.2l-3,3l1.2,1.2l3-3V6
	c0,0.5,0.4,0.8,0.8,0.8C13.6,6.8,14,6.4,14,6L14,0.8L14,0.8L14,0.8z"/>
<path fill="#06aed5" d="M2.1,5l0.5,0.5C3,5.1,3.5,4.8,4,4.6C4.5,4.4,5,4.3,5.6,4.3c0.5,0,1.1,0.1,1.6,0.3c0.5,0.2,1,0.5,1.4,0.9
	c0.4,0.4,0.7,0.9,0.9,1.4c0.2,0.5,0.3,1,0.3,1.6C9.7,9,9.6,9.5,9.4,10c-0.2,0.5-0.5,1-0.9,1.4c-0.4,0.4-0.9,0.7-1.4,0.9
	c-0.5,0.2-1,0.3-1.6,0.3c-0.5,0-1.1-0.1-1.6-0.3c-0.5-0.2-1-0.5-1.4-0.9C2.2,11,1.9,10.5,1.7,10C1.5,9.5,1.4,9,1.4,8.5
	c0-0.5,0.1-1.1,0.3-1.6c0.2-0.5,0.5-1,0.9-1.4L2.1,5L1.6,4.5C1.1,5.1,0.7,5.7,0.4,6.4C0.1,7,0,7.8,0,8.5c0,0.7,0.1,1.4,0.4,2.1
	c0.3,0.7,0.7,1.3,1.2,1.8c0.5,0.5,1.2,0.9,1.8,1.2C4.1,13.9,4.8,14,5.5,14c0.7,0,1.4-0.1,2.1-0.4c0.7-0.3,1.3-0.7,1.8-1.2
	c0.5-0.5,1-1.2,1.2-1.8c0.3-0.7,0.4-1.4,0.4-2.1c0-0.7-0.1-1.4-0.4-2.1C10.4,5.7,10,5.1,9.5,4.5C8.9,4,8.3,3.6,7.7,3.3
	C7,3.1,6.3,2.9,5.6,2.9C4.9,2.9,4.2,3,3.5,3.3C2.8,3.6,2.2,4,1.6,4.5L2.1,5z"/>
</svg>
