<svg xmlns="http://www.w3.org/2000/svg" viewBox="0 0 30 30" width="30" height="30">
<g>
	<path fill="#434440" d="M28.6,7.6l-5.4-6.3L22.1,0H9.2C7.5,0,6.1,1.4,6.1,3.1v4H8l0-3.2c0-1,0.8-1.8,1.8-1.8l11,0v5.2
		c0,1.9,1.6,3.5,3.5,3.5h3.8l-0.2,15c0,1-0.8,1.7-1.8,1.8l-16.5,0c-0.9,0-1.6-0.9-1.6-1.9v-1.3H6.1v1.9c0,1.9,1.3,3.5,2.8,3.5
		l17.8,0c1.7,0,3.1-1.4,3.1-3.1V9L28.6,7.6"/>
	<path fill="#EA4C3A" d="M20.1,25.4H0V6.1h20.1V25.4 M1.9,23.4h16.3V8.1H1.9"/>
	<path fill="none" stroke="#EA4C3A" stroke-width="0.75" stroke-linejoin="round" stroke-miterlimit="10" d="M10.3,9.1c0.3,0.1,0.2,0.3,0.1,1.2c-0.1,0.9-0.4,2.6-1,4.2c-0.6,1.6-1.5,3.2-2.3,4.4c-0.8,1.2-1.5,1.9-2,2.4
		c-0.5,0.4-0.9,0.6-1.1,0.6s-0.3,0-0.4-0.1c-0.1-0.1-0.1-0.3,0-0.6c0.1-0.2,0.2-0.5,0.5-0.9c0.4-0.4,1-0.8,1.8-1.2
		c0.8-0.4,1.9-0.8,2.8-1s1.6-0.4,2.1-0.5c0.6-0.1,1.1-0.2,1.6-0.2c0.5,0,1,0,1.5,0c0.5,0,0.9,0.1,1.3,0.2c0.4,0.1,0.7,0.2,1,0.4
		c0.3,0.2,0.6,0.4,0.7,0.7c0.1,0.3,0.1,0.6,0,0.8c-0.1,0.2-0.3,0.4-0.6,0.4c-0.2,0.1-0.5,0.1-0.9,0c-0.3-0.1-0.7-0.3-1.1-0.6
		c-0.4-0.3-0.8-0.6-1.4-1.2c-0.6-0.6-1.2-1.3-1.8-2c-0.6-0.7-1-1.4-1.4-2c-0.3-0.6-0.5-1.1-0.6-1.6C9.1,12,9,11.5,9,11.1
		c0-0.4,0-0.8,0-1.1c0-0.3,0.1-0.6,0.2-0.7C9.3,9.1,9.5,9,9.6,9s0.2,0,0.2,0c0.1,0,0.1,0,0.2,0C10.1,9,10.2,9,10.3,9.1"/>
</g>
</svg>
