<svg xmlns="http://www.w3.org/2000/svg" viewBox="0 0 32 32" width="32" height="32">
<path fill="#CCCCCC" d="M24.9,10.4H7.1c-1.2,0-2.2,1-2.2,2.2l0,13.4c0,1.2,1,2.2,2.2,2.2l9.2,1.3l8.6-1.3c1.2,0,2.2-1,2.2-2.2V12.7
	C27.2,11.4,26.2,10.4,24.9,10.4z M24.9,14.9L16,20.5l-8.9-5.6v-2.2l8.9,5.6l8.9-5.6V14.9z"/>
<path fill="#CCCCCC" d="M16,1.8c7.9,0,14.2,6.4,14.2,14.2S23.9,30.2,16,30.2S1.8,23.9,1.8,16S8.1,1.8,16,1.8 M16,0C7.1,0,0,7.1,0,16
	s7.1,16,16,16s16-7.1,16-16S24.9,0,16,0L16,0z"/>
<path fill="#FFFFFF" d="M16,1.8C8.1,1.8,1.8,8.1,1.8,16S8.1,30.2,16,30.2S30.2,23.9,30.2,16S23.9,1.8,16,1.8z M16,28.5
	C9.1,28.5,3.5,22.9,3.5,16S9.1,3.5,16,3.5S28.5,9.1,28.5,16S22.9,28.5,16,28.5z"/>
</svg>
