<svg xmlns="http://www.w3.org/2000/svg" viewBox="0 0 14 14" width="14" height="14">
<path fill="#E492FF" d="M8.7,0c1.4,0,2.8,0.6,3.8,1.6c2.1,2.1,2.1,5.5,0,7.6c-1,1-2.3,1.6-3.8,1.6c-1.1,0-2.2-0.4-3.1-1l0,0l-1.2,1.2
	L6,12.6c0.3,0.3,0.3,0.8,0,1.2C5.9,13.9,5.7,14,5.5,14c-0.2,0-0.4-0.1-0.6-0.2L3.1,12l-1.8,1.8C1.2,13.9,1,14,0.8,14
	s-0.4-0.1-0.6-0.2c-0.3-0.3-0.3-0.8,0-1.2L2,10.8L0.2,9.1c-0.3-0.3-0.3-0.8,0-1.2c0.1-0.1,0.4-0.2,0.6-0.2s0.4,0.1,0.6,0.2l1.8,1.8
	l1.2-1.2l0,0C2.8,6.3,3,3.4,4.9,1.6C5.9,0.6,7.2,0,8.7,0z M8.7,9c1,0,1.9-0.4,2.6-1.1c1.4-1.4,1.4-3.8,0-5.2
	c-0.7-0.7-1.6-1.1-2.6-1.1S6.8,2.1,6,2.7C4.6,4.2,4.6,6.5,6,8C6.8,8.7,7.7,9,8.7,9z"/>
</svg>
