<svg xmlns="http://www.w3.org/2000/svg" viewBox="10.6 44.2 402 402" width="18" height="18">
<path fill="#abb7c5" d="M211.2,44.2C100.4,44.2,10.6,134,10.6,244.8s89.8,200.6,200.6,200.6s200.6-89.8,200.6-200.6S322,44.2,211.2,44.2z
	 M266.1,220.5c-2.4,11.5-37.2,75-47.3,96.4c-5.8,12.3-17.1,29.3-14.6,43.6c2,11.4,13.7,17.6,24,20c3.4,0.8,13.2,1.9,13.2,6.9
	c0,2-1.6,3.6-3.6,3.7c0,0-77.3,0-77.3,0c-11,0-20.6-7.8-22-18.8c-1.6-12.3,6.7-23.4,11.8-33.9c10.8-22.6,23.1-44.5,33.8-67.1
	c3.9-8.2,7.5-16.5,11.4-24.6c3.9-8.1,8.8-17.3,5.6-26.4c-3.5-9.8-15-14.7-24.3-16.9c-3.4-0.8-13.2-1.9-13.2-6.9c0-2,1.6-3.7,3.6-3.7
	c0,0,77.3,0,77.3,0c11.4,0,21.7,8.9,22.4,20.4C266.8,215.6,266.6,218.1,266.1,220.5z M248.4,169.9c-19.7,0-35.7-16-35.7-35.7
	s16-35.7,35.7-35.7c19.7,0,35.7,16,35.7,35.7C284.1,153.9,268.1,169.9,248.4,169.9z"/>
</svg>
