<svg xmlns="http://www.w3.org/2000/svg" viewBox="0 0 32 32" width="32" height="32">
<path fill="#CCCCCC" d="M23.3,12.5h-1.2V10c0-3.3-2.7-6-6-6s-6,2.7-6,6v2.4H8.8c-1.3,0-2.4,1.1-2.4,2.4v12.1c0,1.3,1.1,2.4,2.4,2.4
	h14.5c1.3,0,2.4-1.1,2.4-2.4V14.9C25.7,13.5,24.6,12.5,23.3,12.5z M16.1,23.3c-1.3,0-2.4-1.1-2.4-2.4s1.1-2.4,2.4-2.4
	s2.4,1.1,2.4,2.4S17.4,23.3,16.1,23.3z M19.8,12.5h-7.5V10c0-2.1,1.7-3.7,3.7-3.7S19.8,8,19.8,10V12.5z"/>
<path fill="#CCCCCC" d="M16,1.8c7.9,0,14.2,6.4,14.2,14.2S23.9,30.2,16,30.2S1.8,23.9,1.8,16S8.1,1.8,16,1.8 M16,0C7.1,0,0,7.1,0,16
	s7.1,16,16,16s16-7.1,16-16S24.9,0,16,0L16,0z"/>
<path fill="#FFFFFF" d="M16,1.8C8.1,1.8,1.8,8.1,1.8,16S8.1,30.2,16,30.2S30.2,23.9,30.2,16S23.9,1.8,16,1.8z M16,28.5
	C9.1,28.5,3.5,22.9,3.5,16S9.1,3.5,16,3.5S28.5,9.1,28.5,16S22.9,28.5,16,28.5z"/>
</svg>
