<svg xmlns="http://www.w3.org/2000/svg" viewBox="0 193.6 423 209" width="77" height="38">
<rect y="193.6" fill="#FFFFFF" width="423" height="209"/>
<path fill="#E3E6EA" d="M119.5,222.9c-1.3,0-2.4,1.1-2.4,2.4v92.8l39.5-31.4c1.8-1.3,4.5-1.3,6.1,0.2l33.4,28.3l42.7-47.2
	c1.9-2.1,4.6-2.2,6.9-0.2l34.9,33.8c3.2-0.8,6.6-1.3,9.9-1.3c5.1,0,9.9,1,14.4,2.7v-77.8c0-1.3-1.1-2.4-2.4-2.4H119.5z M189.4,246.9
	c8,0,14.4,6.6,14.4,14.4s-6.6,14.4-14.4,14.4c-8,0-14.4-6.6-14.4-14.4S181.4,246.9,189.4,246.9z M242.7,278l-42.6,47
	c-1.6,1.8-4.8,1.9-6.6,0.3l-34.1-28.8l-42.4,33.8v25.1c0,1.3,1.1,2.4,2.4,2.4h137.9c-3.4-5.8-5.3-12.3-5.3-19.4
	c0-14.1,7.7-26.4,18.9-33.1L242.7,278z M290.7,304.8c-18.7,0-33.8,15.2-33.8,33.8c0,18.7,15.2,33.8,33.8,33.8
	c18.7,0,33.8-15.2,33.8-33.8S309.4,304.8,290.7,304.8z M302.7,321.8c1.3,0,2.6,0.5,3.5,1.4c1.9,1.9,1.9,5,0,6.9l-8.6,8.6l8.6,8.6
	c1.9,1.9,1.9,5,0,6.9c-1.9,1.9-5,1.9-6.9,0l-8.6-8.6l-8.6,8.6c-1.9,1.9-5,1.9-6.9,0c-1.9-1.9-1.9-5,0-6.9l8.6-8.6l-8.6-8.6
	c-1.9-1.9-1.9-5,0-6.9c2.6-2.1,5.1-1.6,6.9,0l8.6,8.6l8.6-8.6C300.3,322.3,301.4,321.8,302.7,321.8L302.7,321.8z"/>
</svg>
