<svg xmlns="http://www.w3.org/2000/svg" viewBox="0 0 32 32" width="32" height="32">
<path fill="#CCCCCC" d="M21.3,24H10.7c0,0,1.5-3.2,1.8-3.6c0.2-0.3,1-0.9,3.6-0.9c2.6,0,3.3,0.6,3.6,0.9C19.8,20.8,21.3,24,21.3,24z"/>
<path fill="#CCCCCC" d="M19.2,21.3h-6.4c0,0,0.6-0.9,0.7-2.1c0.1-1,0-1.4,0-1.4h5c0,0-0.1,0.4,0,1.4C18.6,20.4,19.2,21.3,19.2,21.3z"/>
<path fill="#CCCCCC" d="M16,1.8c7.9,0,14.2,6.4,14.2,14.2S23.9,30.2,16,30.2S1.8,23.9,1.8,16S8.1,1.8,16,1.8 M16,0C7.1,0,0,7.1,0,16
	s7.1,16,16,16s16-7.1,16-16S24.9,0,16,0L16,0z"/>
<g>
	<path fill="#CCCCCC" d="M16,28.4c3.8,0,7.1-1.7,9.4-4.3c-2.3-1.7-5.6-2.8-9.4-2.8s-7.1,1.1-9.4,2.8C8.9,26.8,12.2,28.4,16,28.4z"/>
</g>
<path fill="#CCCCCC" d="M21.3,11.6c0-4.4-2.4-6.2-5.3-6.2s-5.3,1.8-5.3,6.2s2.4,8,5.3,8S21.3,16,21.3,11.6z"/>
</svg>
