<svg xmlns="http://www.w3.org/2000/svg" viewBox="0 0 74 74" width="74" height="74">
<path d="M36.9,65.5c11.3,0,21.1-6.5,25.8-16V29.1c0-2.8-2.3-5.2-5.1-5.2H16.3c-2.8,0-5.1,2.3-5.1,5.2l0,20.4
	C15.8,59,25.6,65.5,36.9,65.5z M16.3,29.1L36.9,42l20.6-12.9v5.1L36.9,47.2L16.3,34.3V29.1z"/>
<path d="M36.9,0C16.5,0,0,16.5,0,36.9s16.5,36.9,36.9,36.9c20.4,0,36.9-16.5,36.9-36.9S57.2,0,36.9,0z M62.6,57.1
	c-2.9,3.7-6.7,6.8-10.9,9c-4.4,2.3-9.5,3.5-14.8,3.5c-5.4,0-10.5-1.3-15-3.6c-4.2-2.2-7.9-5.2-10.8-8.9c-4.4-5.6-7-12.6-7-20.2
	c0-18.1,14.7-32.8,32.8-32.8c18.1,0,32.8,14.7,32.8,32.8C69.6,44.5,67,51.5,62.6,57.1z"/>
</svg>
