<svg xmlns="http://www.w3.org/2000/svg" viewBox="-0.1 -0.1 74 74" width="74" height="74">
<path d="M21.6,13.2l0.1,5.7c-1.2,1.1-2.4,2.3-3.4,3.6l-5.7,0.1c-0.4,0-0.8,0.2-0.9,0.6c-1.2,2.3-2.1,4.7-2.7,7.2
	c-0.1,0.4,0,0.8,0.3,1l4.3,4.1c-0.1,1.4,0,2.8,0.2,4.2l-4.1,4.2c-0.3,0.3-0.4,0.7-0.3,1.1c0.3,1.2,0.7,2.2,1.2,3.2
	c0.6,1.4,1.3,2.7,2.1,4c0.2,0.3,0.5,0.5,0.9,0.5l6.1-0.1c0.8,0.9,1.7,1.7,2.6,2.4l0.1,5.9c0,0.4,0.2,0.7,0.6,0.9
	c2.4,1.4,5,2.3,7.8,2.9c0.1,0,0.2,0,0.2,0c0.3,0,0.6-0.1,0.8-0.3l4.1-4.3c1,0,2.1,0,3.2-0.1l4.2,4.1c0.3,0.3,0.7,0.4,1,0.3
	c1.4-0.4,2.7-0.8,4-1.4c1.3-0.6,2.5-1.2,3.7-2c0.3-0.2,0.5-0.6,0.5-0.9l-0.1-5.7c0.9-0.8,1.7-1.6,2.5-2.5l5.7-0.1
	c0.4,0,0.7-0.2,0.9-0.5c1.4-2.4,2.5-5,3.1-7.7c0.1-0.4,0-0.8-0.3-1l-3.9-3.7c0-0.2,0.1-0.5,0.1-0.7c0.1-1.1,0.1-2.3-0.1-3.6l3.8-3.9
	c0.2-0.2,0.3-0.6,0.3-0.9c-0.1-0.4-0.2-0.8-0.3-1.2c0-0.1-0.1-0.2-0.1-0.4C63.5,26,62.6,24,61.4,22c-0.2-0.2-0.5-0.3-0.8-0.3
	l-5.3,0.1c-1.1-1.3-2.3-2.5-3.6-3.6l0-5.4c0-0.3-0.1-0.5-0.3-0.7c-2.4-1.4-5-2.5-7.7-3.2c-0.3,0-0.5,0.1-0.7,0.3l-3.7,3.9
	c-0.2,0-0.5-0.1-0.7-0.1c-1.5-0.1-3.1,0-4.6,0.2l-3.9-3.8c-0.2-0.2-0.5-0.3-0.8-0.3c-1.6,0.4-3.1,1-4.6,1.7
	c-0.2,0.1-0.4,0.2-0.5,0.3c-0.2,0.1-0.4,0.2-0.6,0.3c-0.5,0.2-0.9,0.5-1.4,0.8C21.8,12.4,21.6,12.8,21.6,13.2z M24.6,31.9
	c1.3-3.3,3.8-5.9,7.1-7.3c1.7-0.7,3.4-1.1,5.3-1.1c5.3,0,10.1,3.1,12.2,8c1.4,3.2,1.5,6.8,0.2,10.1c-1.3,3.3-3.8,5.9-7,7.3
	c-1.7,0.7-3.5,1.1-5.3,1.1c-5.3,0-10.1-3.1-12.2-8C23.3,38.8,23.3,35.2,24.6,31.9z"/>
<path d="M36.9,0C16.5,0,0,16.5,0,36.9s16.5,36.9,36.9,36.9s36.9-16.5,36.9-36.9S57.2,0,36.9,0z M36.9,69.6
	C36.8,69.6,36.8,69.6,36.9,69.6C36.8,69.6,36.8,69.6,36.9,69.6c-18.1,0-32.8-14.7-32.8-32.8S18.7,4.1,36.8,4.1c0,0,0,0,0,0
	c0,0,0,0,0,0c18.1,0,32.8,14.7,32.8,32.8S54.9,69.6,36.9,69.6z"/>
</svg>
