<svg xmlns="http://www.w3.org/2000/svg" viewBox="0 27.6 562 562" width="32" height="32">
<path d="M280.6,58.8c137.8,0,249.4,111.6,249.4,249.4S418.5,557.7,280.6,557.7S31.2,446.1,31.2,308.3S142.8,58.8,280.6,58.8
	 M280.6,27.6C125.3,27.6,0,153,0,308.3s125.3,280.6,280.6,280.6s280.6-125.3,280.6-280.6S435.9,27.6,280.6,27.6L280.6,27.6z"/>
<path d="M356.1,411c-5.9-11.9-11.3-22.5-13.1-24.8c-2.3-2.9-6.7-7-16.7-10.2c-0.9-3.7-1.6-7.6-2-11.6c-0.4-3.5-0.6-6.6-0.7-9.4
	c30.1-23.4,50.6-70.5,50.6-124.7c0-77.3-41.8-109.1-93.5-109.1s-93.5,31.8-93.5,109.1c0,54,20.4,101.1,50.4,124.5
	c-0.1,2.8-0.2,6-0.5,9.6c-0.2,4.1-0.8,8-1.6,11.6c-10.2,3.3-14.9,7.4-17.1,10.3c-1.8,2.3-7.2,12.9-13.1,24.8
	c-34.8,8.3-65.3,22.1-89.2,40c39.9,46.1,98.5,75.5,164.6,75.5s124.7-29.3,164.6-75.5C421.4,433.2,390.9,419.3,356.1,411z"/>
<path d="M487.9,393.3c-3.4-6.8-6.5-12.9-7.5-14.2c-1.3-1.7-3.8-4-9.6-5.9c-0.5-2.1-0.9-4.3-1.1-6.6c-0.2-2-0.3-3.8-0.4-5.4
	c17.2-13.4,29-40.4,29-71.4c0-44.3-23.9-62.5-53.6-62.5S391,245.4,391,289.7c0,31,11.7,57.9,28.9,71.3c0,1.6-0.1,3.4-0.3,5.5
	c-0.1,2.4-0.5,4.6-0.9,6.6c-5.9,1.9-8.5,4.2-9.8,5.9c-1,1.3-4.1,7.4-7.5,14.2c-0.2,0-0.4,0.1-0.6,0.1c23.3,8.8,44.4,20.2,62.4,33.7
	l25.7,19.3l-6.1,7.1c22-7.1,41.3-20.2,56.1-37.3C525.3,406,507.8,398,487.9,393.3z"/>
<path d="M73.1,393.3c3.4-6.8,6.5-12.9,7.5-14.2c1.3-1.7,3.8-4,9.6-5.9c0.5-2.1,0.9-4.3,1.1-6.6c0.2-2,0.3-3.8,0.4-5.4
	c-17.2-13.4-29-40.4-29-71.4c0-44.3,23.9-62.5,53.6-62.5s53.6,18.2,53.6,62.5c0,31-11.7,57.9-28.9,71.3c0,1.6,0.1,3.4,0.3,5.5
	c0.1,2.4,0.5,4.6,0.9,6.6c5.9,1.9,8.5,4.2,9.8,5.9c1,1.3,4.1,7.4,7.5,14.2c0.2,0,0.4,0.1,0.6,0.1c-23.3,8.8-44.4,20.2-62.4,33.7
	L72,446.4l6.1,7.1c-22-7.1-41.3-20.2-56.1-37.3C35.7,406,53.2,398,73.1,393.3z"/>
</svg>
