<svg xmlns="http://www.w3.org/2000/svg" viewBox="-0.1 -0.1 74 74" width="74" height="74">
<path d="M35.6,33.2v20h24.8c0.1-0.1,0.1-0.2,0.2-0.2V33.2H35.6z M45.6,46.9c-2.1,0-3.8-1.7-3.8-3.8s1.7-3.8,3.8-3.8
	c2.1,0,3.8,1.7,3.8,3.8S47.7,46.9,45.6,46.9z"/>
<path d="M36.9,65.5c7.4,0,14.1-2.8,19.2-7.4H35.6c-2.8,0-5-2.3-5-5v-20c0-2.8,2.2-5,5-5h22.5v-2.5c0-2.8-2.3-5-5-5h-35
	c-2.8,0-5,2.3-5,5v27.3C18.3,60.5,27,65.5,36.9,65.5z"/>
<path d="M36.9,0C16.5,0,0,16.5,0,36.9c0,20.4,16.5,36.9,36.9,36.9c20.4,0,36.9-16.5,36.9-36.9C73.7,16.5,57.2,0,36.9,0z
	 M57.9,61.9c-1.7,1.4-3.5,2.7-5.5,3.8c-4.6,2.5-9.9,3.9-15.6,3.9c-5.6,0-10.9-1.4-15.6-3.9c-3.1-1.7-5.8-3.8-8.2-6.3
	c-5.6-5.9-9-13.8-9-22.6c0-18.1,14.7-32.8,32.8-32.8s32.8,14.7,32.8,32.8C69.6,46.9,65.1,55.9,57.9,61.9z"/>
</svg>
