<svg xmlns="http://www.w3.org/2000/svg" viewBox="-0.1 -0.1 74 74" width="74" height="74">
<path d="M36.9,4.1c18.1,0,32.8,14.7,32.8,32.8S54.9,69.6,36.9,69.6S4.1,54.9,4.1,36.9S18.8,4.1,36.9,4.1 M36.9,0
	C16.5,0,0,16.5,0,36.9s16.5,36.9,36.9,36.9s36.9-16.5,36.9-36.9S57.2,0,36.9,0L36.9,0z"/>
<path d="M60.2,53.5V23.8c0-2.9-2.3-5.2-5.2-5.2h-2.6v-5.2h-5.2v5.2H26.5v-5.2h-5.2v5.2h-2.6c-2.9,0-5.2,2.3-5.2,5.2
	l0,29.7c1.6,2.2,3.4,4.2,5.5,5.8h35.6C56.8,57.6,58.6,55.7,60.2,53.5z M55,54.1H18.7V31.6H55V54.1z"/>
<rect x="41.9" y="37" width="9" height="7"/>
</svg>
