<svg xmlns="http://www.w3.org/2000/svg" viewBox="487.6 652.5 74 74" width="74" height="74">
<path d="M550.7,681c0-0.5-0.3-0.9-0.7-1.1l-25.3-14.4c-0.4-0.3-0.9-0.3-1.3,0l-6.2,3.7L498.8,680
	c-0.4,0.3-0.7,0.7-0.7,1.1v17.2v2.7c4.4,10.1,14.5,17.1,26.3,17.1s21.8-7,26.3-17.1v-8.3V681z M516.3,701c-0.3,0.4-0.7,0.7-1.1,0.7
	c-0.3,0-0.4,0-0.7-0.1l-5.8-3.3c-0.7-0.4-0.8-1.2-0.5-1.7c0.4-0.7,1.2-0.8,1.7-0.5l5.8,3.3C516.6,699.5,516.7,700.3,516.3,701z
	 M524.7,693.7L501.8,681l22.2-12.8l22.6,12.9L524.7,693.7z"/>
<path d="M524.4,652.5c-20.4,0-36.9,16.5-36.9,36.9c0,20.4,16.5,36.9,36.9,36.9s36.9-16.5,36.9-36.9
	C561.3,668.9,544.8,652.5,524.4,652.5z M548.1,712c-4.2,4.4-9.6,7.6-15.7,9.1c-2.6,0.6-5.2,1-8,1c-2.5,0-5-0.3-7.4-0.8
	c-6.4-1.5-12-4.8-16.3-9.3c-0.9-1-1.8-2-2.6-3c-4.1-5.5-6.5-12.2-6.5-19.6c0-18.1,14.7-32.8,32.8-32.8s32.8,14.7,32.8,32.8
	c0,7.3-2.4,14.1-6.5,19.6C549.9,710,549,711,548.1,712z"/>
</svg>
