<svg xmlns="http://www.w3.org/2000/svg" viewBox="29.6 141 536 411" width="25" height="20">
<g>
	<path d="M564.4,345L564.4,345c-33.2-30.4-66.3-60.8-99.8-91c0,8.6-0.1,33.8-0.1,63.1H293.8v58.7h170.8c0,29.3,0,54.6,0.1,63.1
		c32.9-29.4,65.3-59.5,98-89.2C564,348.4,567.2,346.6,564.4,345z"/>
	<path d="M235.1,493.2c-80.9,0-146.7-65.8-146.7-146.7c0-80.9,65.8-146.7,146.7-146.7c47.7,0,89.8,23.3,116.6,58.7h68.7
		c-33.1-69.3-103.6-117.4-185.3-117.4c-113.2,0-205.4,92.1-205.4,205.4c0,113.2,92.1,205.4,205.4,205.4
		c81.7,0,152.2-48.1,185.3-117.4h-68.7C324.9,470,282.9,493.2,235.1,493.2z"/>
</g>
</svg>
