<svg xmlns="http://www.w3.org/2000/svg" viewBox="-0.1 -0.1 74 74" width="74" height="74">
<path d="M36.8,65.5c8.4,0,16-3.6,21.2-9.4V31.3L42.2,15.4H21c-2.9,0-5.3,2.4-5.3,5.3l0,35.5
	C20.9,61.9,28.4,65.5,36.8,65.5z M39.5,19.3l14.6,14.6H39.5V19.3z M26.3,41.9h21.2v5.3H26.3V41.9z M26.3,52.5h21.2v5.3H26.3V52.5z"
	/>
<path d="M36.9,0C16.5,0,0,16.5,0,36.9c0,20.4,16.5,36.9,36.9,36.9c20.4,0,36.9-16.5,36.9-36.9C73.7,16.5,57.2,0,36.9,0z
	 M58.1,61.8L58.1,61.8c-3.5,3-7.7,5.2-12.2,6.5c-2.9,0.8-5.9,1.3-9,1.3c-3.1,0-6.1-0.4-9-1.3c-4.6-1.3-8.7-3.5-12.2-6.5v0
	c-7.1-6-11.6-15-11.6-25c0-18.1,14.7-32.8,32.8-32.8c0,0,0,0,0,0s0,0,0,0c18.1,0,32.8,14.7,32.8,32.8C69.6,46.9,65.1,55.8,58.1,61.8
	z"/>
</svg>
