<svg xmlns="http://www.w3.org/2000/svg" viewBox="-0.1 -0.1 74 74" width="74" height="74">
<g>
	<path d="M54.8,19.7H44c-1.1-3-4-5.2-7.3-5.2c-3.4,0-6.2,2.2-7.3,5.2H18.4c-2.9,0-5.2,2.3-5.2,5.2v28.2
		c5.2,7.5,13.8,12.4,23.6,12.4c9.5,0,18-4.6,23.2-11.8V24.9C60,22,57.7,19.7,54.8,19.7z M36.6,19.7c1.4,0,2.6,1.2,2.6,2.6
		s-1.2,2.6-2.6,2.6c-1.4,0-2.6-1.2-2.6-2.6S35.2,19.7,36.6,19.7z M41.8,56.1H23.6v-5.2h18.2V56.1z M49.6,45.7h-26v-5.2h26V45.7z
		 M49.6,35.3h-26v-5.2h26V35.3z"/>
	<path d="M36.9,0C16.5,0,0,16.5,0,36.9s16.5,36.9,36.9,36.9c20.4,0,36.9-16.5,36.9-36.9S57.2,0,36.9,0z M60,60
		c-2.7,2.7-5.8,4.9-9.2,6.5c-4.2,2-9,3.1-14,3.1c-5,0-9.7-1.1-14-3.1c-3.6-1.7-6.9-4.1-9.7-7c-5.7-5.9-9.1-13.9-9.1-22.7
		c0-18.1,14.7-32.8,32.8-32.8c18.1,0,32.8,14.7,32.8,32.8C69.6,45.9,65.9,54.1,60,60z"/>
</g>
</svg>
