<svg xmlns="http://www.w3.org/2000/svg" viewBox="0 0 48 48">
    <path class="cls-1"
          d="M26,36.24l-4,4v2.56c-.61-.06-1.23-.16-1.85-.28A17.52,17.52,0,0,1,14,40,18.61,18.61,0,0,1,5.46,25.5H4.21a1.21,1.21,0,0,1-1.07-.65,1.22,1.22,0,0,1,.07-1.25l4.45-6.46A1.13,1.13,0,0,1,8,16.79a1.22,1.22,0,0,1,.33-.14l.15,0h.14a1.2,1.2,0,0,1,1,.52L12.33,21l1.76,2.57a1.21,1.21,0,0,1-1,1.9H11.94A12.14,12.14,0,0,0,24,36.4,11.52,11.52,0,0,0,26,36.24Z"/><path class="cls-1" d="M38.4,23.8l-2.12,2.12-.79.79L33.91,24.4a1.21,1.21,0,0,1,1-1.9h1.16a12.12,12.12,0,0,0-22.63-4.72l-1.78-2.59a3.63,3.63,0,0,0-3-1.57H8.4A18.59,18.59,0,0,1,27.85,5.52,17.52,17.52,0,0,1,34,8.05a18.63,18.63,0,0,1,8.4,13.32,4.23,4.23,0,0,0-2,1l0,.05,0,.05-1.62,1.62Z"/><path class="cls-1" d="M27.58,24.6a6.23,6.23,0,0,0-1.36-.92c-.53-.27-1.08-.53-1.68-.78a3.92,3.92,0,0,1-1.28-.8,1.52,1.52,0,0,1-.4-1.12,1.6,1.6,0,0,1,.34-1.09,1.4,1.4,0,0,1,2.07.14,2.56,2.56,0,0,1,.38,1.47h3.22a4.42,4.42,0,0,0-1-2.93A8.16,8.16,0,0,0,25,17.13V15.5H23v1.59a7.46,7.46,0,0,0-2.28,1.22A3.49,3.49,0,0,0,19.63,21a3.84,3.84,0,0,0,.31,1.64,3.52,3.52,0,0,0,.87,1.2,6.25,6.25,0,0,0,1.37.9c.53.26,1.1.52,1.72.78a3.35,3.35,0,0,1,1.31.81,1.72,1.72,0,0,1,.37,1.18,1.44,1.44,0,0,1-.37,1.06,1.35,1.35,0,0,1-1,.39,1.7,1.7,0,0,1-1.37-.57,2.74,2.74,0,0,1-.48-1.85H19.13a4.72,4.72,0,0,0,1.11,3.38A4.8,4.8,0,0,0,23,31.3v2.2h3V31.31a8.56,8.56,0,0,0,1.76-1.2,3.59,3.59,0,0,0,1-2.66,3.79,3.79,0,0,0-.33-1.65A3.62,3.62,0,0,0,27.58,24.6Z"/><polygon class="cls-1" points="42.96 32.6 29.56 46 25 46 25 41.44 35.24 31.2 37.22 29.22 38.4 28.04 42.96 32.6"/><path class="cls-1" d="M47,29.18l-2.2,2.2L42,28.52l-1.71-1.7,2.21-2.2a1.31,1.31,0,0,1,.88-.35,1.18,1.18,0,0,1,.84.35l.27.27L47,27.45A1.26,1.26,0,0,1,47,29.18Z"/>
</svg>
