<svg xmlns="http://www.w3.org/2000/svg" viewBox="0 0 28 22" width="28" height="22">
<g>
	<path d="M22.1,19.9c0.1,0,0.1-0.1,0.2-0.1C22.3,19.9,22.2,19.9,22.1,19.9z"/>
	<path d="M21.1,22c0.3,0,0.6,0,0.9-0.1C21.7,22,21.4,22,21.1,22C21.1,22,21.1,22,21.1,22z"/>
	<path d="M21.5,3.1c0.2-0.1,0.4-0.1,0.6-0.2C21.9,2.9,21.7,3,21.5,3.1z"/>
	<path d="M21.6,20.1c0,0,0.1,0,0.1,0C21.7,20.1,21.7,20.1,21.6,20.1z"/>
	<path d="M20.7,3.4c0.2-0.1,0.3-0.2,0.5-0.3C21,3.3,20.8,3.3,20.7,3.4z"/>
	<path d="M24.3,20.8c-0.1,0.1-0.3,0.2-0.4,0.3C24,21,24.1,20.9,24.3,20.8z"/>
	<path d="M19.7,4.2c0,0-0.1,0.1-0.2,0.1c0,0,0,0,0,0C19.6,4.3,19.7,4.3,19.7,4.2z"/>
	<path d="M23.6,21.3c-0.2,0.1-0.3,0.2-0.5,0.3C23.3,21.5,23.4,21.4,23.6,21.3z"/>
	<path d="M23.4,19c0-0.1,0.1-0.1,0.1-0.2C23.5,18.9,23.5,18.9,23.4,19z"/>
	<path d="M24.9,20.1c-0.1,0.1-0.2,0.3-0.4,0.4C24.7,20.4,24.8,20.3,24.9,20.1z"/>
	<path d="M25.4,19.3c-0.1,0.2-0.2,0.4-0.3,0.5C25.2,19.7,25.3,19.5,25.4,19.3z"/>
	<path d="M21.1,20.1c-0.2,0-0.4,0-0.6-0.1C20.7,20.1,20.9,20.1,21.1,20.1z"/>
	<path d="M25.8,18.2c-0.1,0.3-0.2,0.6-0.3,0.9C25.7,18.8,25.7,18.5,25.8,18.2z"/>
	<path d="M20,4c0.1-0.1,0.3-0.2,0.4-0.3C20.2,3.7,20.1,3.8,20,4z"/>
	<path d="M23.8,18.5c0-0.1,0.1-0.1,0.1-0.2C23.8,18.4,23.8,18.4,23.8,18.5z"/>
	<path d="M22.6,19.7c0.1,0,0.1-0.1,0.2-0.1C22.8,19.6,22.7,19.7,22.6,19.7z"/>
	<path d="M22.6,4.6c0,0-0.1,0-0.1,0C22.5,4.7,22.6,4.6,22.6,4.6z"/>
	<path d="M23.2,19.2c-0.1,0.1-0.1,0.1-0.2,0.2C23.1,19.3,23.2,19.3,23.2,19.2z"/>
	<path d="M22.8,21.7c-0.2,0.1-0.4,0.1-0.6,0.2C22.4,21.8,22.6,21.8,22.8,21.7z"/>
	<path d="M23.2,2.7C23.2,2.7,23.2,2.7,23.2,2.7c-0.3,0-0.6,0-0.9,0.1C22.6,2.8,22.9,2.7,23.2,2.7z"/>
	<path d="M21.6,5c-0.1,0-0.1,0.1-0.2,0.1C21.5,5.1,21.6,5.1,21.6,5z"/>
	<path d="M21,5.5c0.1-0.1,0.1-0.1,0.2-0.1C21.1,5.4,21.1,5.4,21,5.5z"/>
	<path d="M22.1,4.8c-0.1,0-0.1,0.1-0.2,0.1C22,4.8,22,4.8,22.1,4.8z"/>
	<path d="M23.2,4.6c0.2,0,0.4,0,0.6,0.1C23.6,4.6,23.4,4.6,23.2,4.6z"/>
	<polygon points="17.2,12.3 16.8,14 16.8,14 	"/>
	<path d="M16.3,16.7c0,0.1,0,0.2,0,0.4C16.3,16.9,16.3,16.8,16.3,16.7L16.3,16.7z"/>
	<path d="M15.2,17.6c-1.2,0.8-2.7,1.3-4.3,1.3c-2.7,0-5.1-1.4-6.5-3.5c0-2.2,4.4-3.4,6.5-3.4c1.3,0,3.5,0.5,5,1.3
		l0.3-1.2l0.2-0.8l0.2-1.1l0.8-3.8c0.2-1.1,0.8-2,1.5-2.8c-2-2.2-4.8-3.5-8-3.5C4.9,0,0,4.9,0,11s4.9,11,10.9,11
		c1.9,0,3.8-0.5,5.3-1.4c0-0.1-0.1-0.1-0.1-0.2C15.6,19.5,15.3,18.5,15.2,17.6z M10.9,3.3c1.8,0,3.3,1.5,3.3,3.3
		c0,1.8-1.5,3.3-3.3,3.3c-1.8,0-3.3-1.5-3.3-3.3C7.6,4.8,9.1,3.3,10.9,3.3z"/>
	<path d="M19.6,4.4c-0.1,0.1-0.1,0.2-0.2,0.3C19.4,4.5,19.5,4.5,19.6,4.4C19.6,4.4,19.6,4.4,19.6,4.4z"/>
	<path d="M18.4,6.6c0.1-0.3,0.2-0.6,0.3-0.9C18.6,6,18.5,6.3,18.4,6.6z"/>
	<path d="M18.9,5.4C19,5.2,19,5.1,19.2,4.9C19,5.1,19,5.2,18.9,5.4z"/>
	<polygon points="22,8.4 21.7,9.7 20.4,16 20.6,16 22.2,16.4 23.9,8.8 	"/>
	<path d="M24.8,14L24,17.8c0,0.2-0.1,0.4-0.2,0.5c0,0.1-0.1,0.1-0.1,0.2c-0.1,0.1-0.1,0.2-0.2,0.3
		c0,0.1-0.1,0.1-0.1,0.2c-0.1,0.1-0.1,0.2-0.2,0.3c-0.1,0.1-0.1,0.1-0.2,0.2c-0.1,0.1-0.2,0.1-0.3,0.2c-0.1,0-0.1,0.1-0.2,0.1
		c-0.1,0.1-0.2,0.1-0.3,0.2c-0.1,0-0.1,0.1-0.2,0.1c-0.1,0-0.3,0.1-0.4,0.1c0,0-0.1,0-0.1,0c-0.2,0-0.3,0-0.5,0c0,0,0,0,0,0
		c-0.2,0-0.4,0-0.6-0.1c0,0,0,0,0,0c-0.8-0.2-1.5-0.7-1.9-1.3c0,0,0,0,0,0c-0.4-0.7-0.6-1.5-0.4-2.3l0.8-3.8l-1.8-0.4L16.8,14
		l-0.4,2.1c0,0.2-0.1,0.4-0.1,0.6c0,0.1,0,0.2,0,0.4c0,0.6,0.1,1.3,0.3,1.9c0.1,0.4,0.3,0.7,0.6,1c0.7,1,1.7,1.7,2.9,1.9
		c0.3,0.1,0.7,0.1,1,0.1c0.3,0,0.6,0,0.9-0.1c0.1,0,0.1,0,0.2-0.1c0.2,0,0.4-0.1,0.6-0.2c0.1,0,0.2-0.1,0.3-0.1
		c0.2-0.1,0.3-0.2,0.5-0.3c0.1-0.1,0.2-0.1,0.3-0.2c0.1-0.1,0.3-0.2,0.4-0.3c0.1-0.1,0.2-0.2,0.3-0.2c0.1-0.1,0.2-0.3,0.4-0.4
		c0.1-0.1,0.1-0.2,0.2-0.3c0.1-0.2,0.2-0.3,0.3-0.5c0-0.1,0.1-0.2,0.1-0.3c0.1-0.3,0.2-0.6,0.3-0.9l0.8-3.8L24.8,14z"/>
	<path d="M24.2,2.9c-0.3-0.1-0.7-0.1-1-0.1c-0.3,0-0.6,0-0.9,0.1c-0.1,0-0.1,0-0.2,0.1c-0.2,0-0.4,0.1-0.6,0.2
		c-0.1,0-0.2,0.1-0.3,0.1c-0.2,0.1-0.3,0.2-0.5,0.3c-0.1,0.1-0.2,0.1-0.3,0.2C20.2,3.7,20.1,3.8,20,4c-0.1,0.1-0.2,0.2-0.3,0.2
		c0,0.1-0.1,0.1-0.1,0.2c-0.1,0.1-0.2,0.2-0.2,0.3c-0.1,0.1-0.1,0.2-0.2,0.3C19,5.1,19,5.2,18.9,5.4c0,0.1-0.1,0.2-0.1,0.3
		c-0.1,0.3-0.2,0.6-0.3,0.9l-0.8,3.8l1.8,0.4L20.2,7c0-0.2,0.1-0.4,0.2-0.5c0-0.1,0.1-0.1,0.1-0.2c0-0.1,0.1-0.2,0.1-0.2
		c0,0,0-0.1,0.1-0.1c0-0.1,0.1-0.1,0.1-0.2c0.1-0.1,0.1-0.2,0.2-0.3c0.1-0.1,0.1-0.1,0.2-0.1c0.1-0.1,0.2-0.1,0.3-0.2
		c0.1,0,0.1-0.1,0.2-0.1c0.1-0.1,0.2-0.1,0.3-0.2c0.1,0,0.1-0.1,0.2-0.1c0.1,0,0.3-0.1,0.4-0.1c0,0,0.1,0,0.1,0c0.2,0,0.3,0,0.5,0
		c0,0,0,0,0,0c0.2,0,0.4,0,0.6,0.1c0.8,0.2,1.5,0.7,1.9,1.3c0.2,0.3,0.4,0.7,0.4,1.1c0.1,0.4,0.1,0.8,0,1.2l-0.8,3.8l1.8,0.4
		l0.8-3.8C28.5,6,26.8,3.4,24.2,2.9z"/>
</g>
</svg>
