<svg xmlns="http://www.w3.org/2000/svg" viewBox="487.4 -0.1 74 74" width="32" height="32">

<g>
	<rect x="509.1" y="18.6" class="st0" width="6.1" height="6.1"/>
	<rect x="533.6" y="18.6" class="st0" width="6.1" height="6.1"/>
	<path d="M545.9,21.7h-3.1v3.1c0,1.7-1.4,3.1-3.1,3.1h-6.1c-1.7,0-3.1-1.4-3.1-3.1v-3.1h-12.3v3.1
		c0,1.7-1.4,3.1-3.1,3.1h-6.1c-1.7,0-3.1-1.4-3.1-3.1v-3.1H503c-1.7,0-3.1,1.4-3.1,3.1v37.8c0,1.7,1.4,3.1,3.1,3.1h42.9
		c1.7,0,3.1-1.4,3.1-3.1V24.7C548.9,23,547.5,21.7,545.9,21.7z M515.2,58.4h-6.1v-6.1h6.1V58.4z M515.2,46.2h-6.1V40h6.1V46.2z
		 M527.5,58.4h-6.1v-6.1h6.1V58.4z M527.5,46.2h-6.1V40h6.1V46.2z M539.7,58.4h-6.1v-6.1h6.1V58.4z M539.7,46.2h-6.1V40h6.1V46.2z"
		/>
</g>
<g>
	<path d="M524.4,4.1c18.1,0,32.8,14.7,32.8,32.8s-14.7,32.8-32.8,32.8c-18.1,0-32.8-14.7-32.8-32.8S506.3,4.1,524.4,4.1
		 M524.4,0c-20.4,0-36.9,16.5-36.9,36.9s16.5,36.9,36.9,36.9c20.4,0,36.9-16.5,36.9-36.9S544.8,0,524.4,0L524.4,0z"/>
	<path fill="#fff" d="M524.4,4.1c-18.1,0-32.8,14.7-32.8,32.8s14.7,32.8,32.8,32.8c18.1,0,32.8-14.7,32.8-32.8S542.5,4.1,524.4,4.1z
		 M524.4,65.5c-15.8,0-28.7-12.8-28.7-28.7s12.8-28.7,28.7-28.7c15.8,0,28.7,12.8,28.7,28.7S540.2,65.5,524.4,65.5z"/>
</g>
</svg>
