<svg xmlns="http://www.w3.org/2000/svg" viewBox="0 0 10.9 9.5" width="11" height="10">
<path d="M0,0.5l1.9,8.7C2,9.4,2.2,9.6,2.4,9.5h0C2.7,9.5,2.8,9.2,2.8,9L0.9,0.3C0.8,0.1,0.6,0,0.4,0l0,0C0.1,0.1,0,0.3,0,0.5z"/>
<path d="M2.9,0.2c0,0-0.6,0.1-1.1,0.6c0,0-0.1,0.1,0,0.4s0,0,0,0l0.2,1c0,0,0.5-0.4,1.3-0.3L2.9,0.2z"/>
<path d="M4.5,0.1l0.7,2.2c0,0,0.8,0.2,1.6,0.2L6.2,0.6C6.2,0.6,5,0.1,4.5,0.1z"/>
<path d="M7.8,0.7l0.7,1.6c0,0,0.5-0.1,1-0.3L8.7,0.4C8.7,0.4,8.2,0.6,7.8,0.7z"/>
<path d="M9.2,3.9L8.5,2.2c0,0-1,0.2-1.7,0.2l0.6,1.8C7.4,4.3,8.4,4.2,9.2,3.9z"/>
<path d="M5.1,2.2c0,0-1.2-0.5-1.9-0.4l0.4,1.8c0,0,0.6,0.1,1,0.3c0.5,0.2,0.8,0.2,1,0.3L5.1,2.2z"/>
<path d="M3.7,3.6c0,0-0.7-0.2-1.4,0.1c-0.1,0,0,0.1,0,0.3l0.3,1.3c0,0,0.1,0.4,0.4,0.3c0,0,0.5-0.2,1.2,0.2L3.7,3.6z"/>
<path d="M5.7,4.2c0,0,0.9,0.1,1.7,0.1l0.5,1.6c0,0-0.9,0.2-1.7,0.2L5.7,4.2z"/>
<path d="M9.2,3.9l0.6,1.4c0,0,0.7-0.3,1.1-0.7l-0.6-1.2C10.3,3.4,9.9,3.6,9.2,3.9z"/>
</svg>
