<svg xmlns="http://www.w3.org/2000/svg" viewBox="-270.1 371 35 52" width="35" height="52">
<g>
	<path d="M-239.6,413.2h-5.5v5.5h5.5V413.2z M-240.7,401.2v2.2h-8.7v-2.2h-2.2v2.2h-1.1c-1.2,0-2.2,1-2.2,2.2v15.3
		c0,1.2,1,2.2,2.2,2.2h15.3c1.2,0,2.2-1,2.2-2.2v-15.3c0-1.2-1-2.2-2.2-2.2h-1.1v-2.2C-238.5,401.2-240.7,401.2-240.7,401.2z
		 M-237.5,420.8h-15.2v-12h15.3L-237.5,420.8L-237.5,420.8z"/>
</g>
<g>
	<rect x="-263.3" y="407.9" width="1.7" height="1.7"/>
	<path d="M-256.6,405.6c0-1.9,1.4-3.5,3.3-3.8v-0.5l0,0h-3.2v-1.7h13.4v1.7h-4.6l0,0v0.5h5.3v-0.5c0-0.9,0.8-1.7,1.7-1.7h2.2
		c0.1,0,0.3,0,0.4,0.1v-18.6c0-1.9-1.5-3.4-3.4-3.4h-1.7l0,0v1.7c0,1.9-1.5,3.4-3.4,3.4h-15c-1.9,0-3.4-1.5-3.4-3.4v-1.7l0,0h-1.7
		c-1.8,0-3.3,1.5-3.3,3.4v35.2c0,1.9,1.5,3.4,3.4,3.4h10V405.6z M-256.6,391.1h13.4v1.7h-13.4V391.1z M-259.9,411.3h-5v-5h5V411.3z
		 M-259.9,402.9h-5v-5h5V402.9z M-265,394.5v-5h5v5H-265z"/>
	<rect x="-263.3" y="391.1" width="1.7" height="1.7"/>
	<path d="M-261.6,381.1h15.1c0.9,0,1.7-0.7,1.7-1.7v-1.7c0-0.9-0.7-1.7-1.7-1.7h-3.4v-1.6c0-1.9-1.5-3.4-3.4-3.4h-1.7
		c-1.9,0-3.4,1.5-3.4,3.4v1.6h-3.4c-0.9,0-1.7,0.7-1.7,1.7v1.7C-263.3,380.3-262.5,381.1-261.6,381.1z M-254.1,373.2
		c1.1,0,2,0.9,2,2c0,1.1-0.9,2-2,2s-2-0.9-2-2C-256.1,374.1-255.2,373.2-254.1,373.2z"/>
	<rect x="-263.3" y="399.5" width="1.7" height="1.7"/>
</g>
</svg>
