<svg xmlns="http://www.w3.org/2000/svg" viewBox="0 0 52 52" width="52" height="52">
<g>
	<g>
		<path d="M44.6,46.7H7.4V13.6h37.1V46.7z M36.6,0v4.3H15.4V0h-5.3v4.3H7.4c-2.9,0-5.3,2.4-5.3,5.3l0,37.1
			c0,2.9,2.4,5.3,5.3,5.3h37.1c2.9,0,5.3-2.4,5.3-5.3V9.6c0-2.9-2.4-5.3-5.3-5.3h-2.7V0H36.6z"/>
	</g>
</g>
<g>
	<g>
		<path d="M37.7,38.4v1.4c0,1.5-1.2,2.7-2.7,2.7H16c-1.5,0-2.7-1.2-2.7-2.7v-19c0-1.5,1.2-2.7,2.7-2.7h19
			c1.5,0,2.7,1.2,2.7,2.7v1.4H25.5c-1.5,0-2.7,1.2-2.7,2.7v10.9c0,1.5,1.2,2.7,2.7,2.7H37.7z M25.5,35.7H39V24.8H25.5V35.7z
			 M30.9,32.3c-1.1,0-2-0.9-2-2s0.9-2,2-2c1.1,0,2,0.9,2,2S32,32.3,30.9,32.3z"/>
	</g>
</g>
</svg>
