<svg xmlns="http://www.w3.org/2000/svg" viewBox="1.6 5 14 8" width="14" height="8">
<path d="M12.2,10.8H5c-0.3,0-0.5,0.2-0.5,0.5v1.4h8.2v-1.4C12.7,11,12.5,10.8,12.2,10.8z M13.7,5.6H3.6c-0.8,0-1.4,0.7-1.4,1.6V11
			c0,0.9,0.6,1.6,1.4,1.6h0.5v-1.4c0-0.5,0.4-1,1-1h7.2c0.5,0,1,0.4,1,1v1.4h0.5c0.8,0,1.4-0.7,1.4-1.6V7.1
			C15,6.3,14.4,5.6,13.7,5.6z M11.7,7.5c-0.3,0-0.5-0.2-0.5-0.5c0-0.3,0.2-0.5,0.5-0.5c0.3,0,0.5,0.2,0.5,0.5
			C12.3,7.3,12,7.5,11.7,7.5z M13.6,7.5c-0.3,0-0.5-0.2-0.5-0.5c0-0.3,0.2-0.5,0.5-0.5c0.3,0,0.5,0.2,0.5,0.5
			C14.1,7.3,13.9,7.5,13.6,7.5z"/>
</svg>