<svg xmlns="http://www.w3.org/2000/svg" viewBox="2.8 0 25.5 22.7">
	<g>
		<path d="M5,4.1h2.1v3.1h10.6V4.1h2.1V7l0.4-0.4l0.6-0.6l0.6-0.6L22,5V4.1c0-1.1-1-2.1-2.1-2.1h-4.4
			C15,0.9,13.8,0,12.4,0s-2.6,0.9-3,2.1H5C3.8,2.1,2.8,3,2.8,4.1v16.5c0,1.1,1,2.1,2.1,2.1h3.2v-2.1H5V4.1z M12.4,2.1
			c0.6,0,1.1,0.5,1.1,1s-0.5,1-1.1,1s-1.1-0.5-1.1-1S11.8,2.1,12.4,2.1z"/>
		<path d="M19.8,20.6h-3l-2.1,2.1h5.1c1.2,0,2.1-0.9,2.1-2.1v-5l-2.1,2.1V20.6z"/>
		<path d="M28.3,7.2c-0.1-0.1-0.1-0.2-0.2-0.3l-2.5-2.4c-0.2-0.2-0.5-0.3-0.7-0.3c0,0-0.1,0-0.1,0
			c-0.2,0-0.5,0.1-0.7,0.3l-1.9,1.9l4,3.9L28,8.3c0.1-0.1,0.2-0.2,0.2-0.3c0.1-0.1,0.1-0.3,0.1-0.4S28.3,7.3,28.3,7.2z"/>
		<polygon points="21,7.4 19.8,8.5 9.2,18.8 9.2,20.6 9.2,22.7 9.2,22.7 13.2,22.7 13.2,22.7 15.3,20.6 19.8,16.2
			22,14.2 25,11.3 22,8.4 	"/>
	</g>
</svg>