<svg xmlns="http://www.w3.org/2000/svg" viewBox="2426.4 529.6 74 74" width="74" height="74">
<rect x="2441.3" y="552" width="11" height="11"/>
<rect x="2430.3" y="563" width="11" height="11"/>
<rect x="2475.4" y="564.1" width="8.8" height="8.8"/>
<path d="M2451.7,595h10.7v6.1h10.7V595v-10.7h10.7h10.7v-10.7v-10.7V552H2484h-10.7h-10.7v10.7h-10.7v10.7h10.7v10.7
	h-10.7v-10.7H2441v10.7h-8.4l4.6,6.1l3.8,4.6l2.3,1.5l8.4,4.6V595z M2469.8,559.4h17.5v17.5h-17.5V559.4z"/>
<path d="M2463.3,533.7c18.1,0,32.8,14.7,32.8,32.8c0,18.1-14.7,32.8-32.8,32.8s-32.8-14.7-32.8-32.8
	C2430.5,548.3,2445.2,533.7,2463.3,533.7 M2463.3,529.6c-20.4,0-36.9,16.5-36.9,36.9c0,20.4,16.5,36.9,36.9,36.9
	s36.9-16.5,36.9-36.9C2500.1,546,2483.7,529.6,2463.3,529.6L2463.3,529.6z"/>
<path fill="#FFFFFF" d="M2463.3,533.7c-18.1,0-32.8,14.7-32.8,32.8c0,18.1,14.7,32.8,32.8,32.8s32.8-14.7,32.8-32.8
	C2496,548.3,2481.4,533.7,2463.3,533.7z M2463.3,595.1c-15.8,0-28.7-12.8-28.7-28.7c0-15.8,12.8-28.7,28.7-28.7s28.7,12.8,28.7,28.7
	C2491.9,582.3,2479.1,595.1,2463.3,595.1z"/>
</svg>
