<svg xmlns="http://www.w3.org/2000/svg" viewBox="-270.5 371 35 52" width="35" height="52">
<g>
	<g>
		<path d="M-235.9,402.7c0-2.8,0-3.1,0-3.1c0-1-3.3-2.9-7.4-2.9s-7.4,1.9-7.4,2.9c0,0,0,0.3,0,3.1
			c0,2.8,5.1,5.2,5.1,7.1c0,1.9-5.1,4.3-5.1,7.1c0,2.8,0,3.1,0,3.1c0,1,3.3,2.9,7.4,2.9c4.1,0,7.4-1.9,7.4-2.9c0,0,0-0.3,0-3.1
			c0-2.8-5.1-5.1-5.1-7.1S-235.9,405.5-235.9,402.7z M-248.6,399.7c0.9-0.6,2.6-1.4,5.4-1.4c2.8,0,5.3,1.4,5.3,1.4
			c0.2,0.1,0.9,0.5,0.4,0.8c-1.1,0.7-3.3,1.3-5.8,1.3s-4.6-0.8-5.7-1.4C-249.4,400.1-248.6,399.7-248.6,399.7z M-242.6,409.8
			c0,1.6,1.3,2.6,2.7,3.9c1,1,2.4,2.3,2.4,3.2v1.8c-1.3-0.6-5.1-1.3-5.1-3.3c0-1-1.3-1-1.3,0c0,2-3.8,2.7-5.1,3.3V417
			c0-0.9,1.4-2.2,2.4-3.2c1.4-1.4,2.7-2.4,2.7-3.9c0-1.6-1.3-2.6-2.7-3.9c-1-1-2.4-2.3-2.4-3.2l-0.1-1.3c1.4,0.7,3.5,1.4,5.8,1.4
			c2.3,0,4.5-0.7,5.8-1.4l-0.1,1.3c0,0.9-1.4,2.2-2.4,3.2C-241.3,407.2-242.6,408.2-242.6,409.8z"/>
	</g>
</g>
<g>
	<path d="M-252.3,417c0-2.3,1.9-4,3.4-5.4c0.6-0.5,1.4-1.3,1.6-1.7c-0.1-0.2-0.5-0.6-0.8-0.9h-8.9v-1.6h7.2
		c-1.3-1.2-2.5-2.7-2.5-4.6v-2h-4.7V399h4.7c0.6-2.4,5-4.1,9-4.1c1.5,0,3,0.2,4.4,0.7v-14.7c0-1.8-1.5-3.3-3.3-3.3h-1.7l0,0v1.6
		c0,1.8-1.5,3.3-3.3,3.3h-14.7c-1.8,0-3.3-1.5-3.3-3.3v-1.6l0,0h-1.7c-1.8,0-3.3,1.5-3.3,3.3v34.6c0,1.8,1.5,3.3,3.3,3.3h14.5V417
		H-252.3z M-257,390.8h13.2v1.6H-257V390.8z M-260.3,410.5h-4.9v-4.9h4.9V410.5z M-260.3,402.3h-4.9v-4.9h4.9V402.3z M-260.3,394.1
		h-4.9v-4.9h4.9V394.1z"/>
	<rect x="-263.6" y="390.8" width="1.6" height="1.6"/>
	<path d="M-261.9,380.9h14.8c0.9,0,1.6-0.7,1.6-1.6v-1.7c0-0.9-0.7-1.6-1.6-1.6h-3.3v-1.7c0-1.8-1.5-3.3-3.3-3.3h-1.6
		c-1.8,0-3.3,1.5-3.3,3.3v1.7h-3.3c-0.9,0-1.6,0.7-1.6,1.6v1.7C-263.6,380.1-262.8,380.9-261.9,380.9z M-254.5,373.1
		c1.1,0,2,0.9,2,2s-0.9,2-2,2c-1.1,0-2-0.9-2-2S-255.6,373.1-254.5,373.1z"/>
	<rect x="-263.6" y="407.2" width="1.6" height="1.6"/>
	<rect x="-263.6" y="399" width="1.6" height="1.6"/>
</g>
</svg>
