<svg xmlns="http://www.w3.org/2000/svg" viewBox="0 0 18 18" width="16" height="20">
    <path d="M15,2h-3.1A3,3,0,0,0,9,.1,3,3,0,0,0,6.13,2H3A2,2,0,0,0,1,3.9V16.09A2,2,0,0,0,3,18h7.63a5.2,5.2,0,0,1-1.85-3.6H5.4V12.6H9a5,5,0,0,1,.91-1.8H5.4V9h7.2A4.93,4.93,0,0,1,14,8.8a5.09,5.09,0,0,1,3,1V3.9A2,2,0,0,0,15,2ZM9,3.61a1,1,0,1,1,.95-1A1,1,0,0,1,9,3.61Z"/>
    <path d="M17,11.36A4,4,0,0,0,14,10a3.83,3.83,0,0,0-1.4.26,3.66,3.66,0,0,0-1,.54,3.92,3.92,0,0,0-1.35,1.8A3.83,3.83,0,0,0,10,14c0,.13,0,.27,0,.4a4,4,0,1,0,7-3Zm-3.26,1.92a1.46,1.46,0,0,0,.45.28c.21.08.41.18.59.27a2.24,2.24,0,0,1,.48.33,1.22,1.22,0,0,1,.43,1,1.27,1.27,0,0,1-.36.94,1.56,1.56,0,0,1-1,.43v.67H13.8v-.68a1.73,1.73,0,0,1-1.13-.5,1.59,1.59,0,0,1-.39-1.12h1.13a.89.89,0,0,0,.17.58.6.6,0,0,0,.49.2.48.48,0,0,0,.36-.13.53.53,0,0,0,.13-.38.6.6,0,0,0-.13-.42,1.26,1.26,0,0,0-.46-.28,5.82,5.82,0,0,1-.61-.28,1.91,1.91,0,0,1-.48-.32,1.1,1.1,0,0,1-.28-.37l0-.05a1.28,1.28,0,0,1-.11-.58,2.28,2.28,0,0,1,0-.27,1.2,1.2,0,0,1,.36-.66,1.65,1.65,0,0,1,1-.43V10.8h.53v.72a1.51,1.51,0,0,1,1,.51,1.58,1.58,0,0,1,.35,1.05H14.58a.94.94,0,0,0-.13-.54.47.47,0,0,0-.39-.19.44.44,0,0,0-.34.14.61.61,0,0,0-.12.39A.53.53,0,0,0,13.74,13.28Z"/>
</svg>