<svg xmlns="http://www.w3.org/2000/svg" viewBox="0 0 18 18" width="16" height="20">
  <path d="M10.8,0H3.6A1.8,1.8,0,0,0,1.81,1.8V16.2A1.8,1.8,0,0,0,3.59,18H14.4a1.81,1.81,0,0,0,1.8-1.8V5.4ZM9.69,16.21H8.22V13.82a.69.69,0,0,0-.1-.42.43.43,0,0,0-.37-.22.5.5,0,0,0-.41.2,1.08,1.08,0,0,0-.16.67v2.16H5.7V13.9a2.8,2.8,0,0,0,0-.38.56.56,0,0,0-.17-.25.38.38,0,0,0-.27-.1.51.51,0,0,0-.42.21,1.21,1.21,0,0,0-.16.69v2.14H3.19V12H4.56v.61a2.09,2.09,0,0,1,.6-.54,1.49,1.49,0,0,1,.73-.16,1.34,1.34,0,0,1,.72.17,1.3,1.3,0,0,1,.44.53,2.34,2.34,0,0,1,.63-.56,1.66,1.66,0,0,1,.71-.14,1.19,1.19,0,0,1,1,.4,1.89,1.89,0,0,1,.34,1.25ZM9.9,1.35,14.85,6.3H9.9Zm5,14a1.81,1.81,0,0,1-.79.71,3,3,0,0,1-1.28.24A2.47,2.47,0,0,1,11,15.74a2.41,2.41,0,0,1-.59-1.45l1.56-.1a1.26,1.26,0,0,0,.21.63.82.82,0,0,0,.72.35.77.77,0,0,0,.54-.18.54.54,0,0,0,.19-.41.57.57,0,0,0-.18-.41,1.91,1.91,0,0,0-.84-.33,3.41,3.41,0,0,1-1.53-.71A1.48,1.48,0,0,1,10.58,12a1.63,1.63,0,0,1,.95-1.47,3.09,3.09,0,0,1,1.3-.23,2.45,2.45,0,0,1,1.55.42A1.77,1.77,0,0,1,15,12l-1.54.1a.9.9,0,0,0-.26-.57.77.77,0,0,0-.54-.18.62.62,0,0,0-.43.14.39.39,0,0,0-.14.32.35.35,0,0,0,.12.25,1.25,1.25,0,0,0,.54.21,6.61,6.61,0,0,1,1.54.51,1.71,1.71,0,0,1,.68.65,1.74,1.74,0,0,1,.21.86A2.07,2.07,0,0,1,14.91,15.36Z"/>
</svg>