<svg xmlns="http://www.w3.org/2000/svg" width="24" height="24" viewBox="0 0 24 24">
    <defs>
        <style>
            .cls-1{fill:none}
        </style>
    </defs>
    <g id="ic-packingslip-blue" transform="translate(12 12)">
        <g id="Group_61" data-name="Group 61" transform="translate(-12 -12)">
            <path id="Rectangle_194" d="M0 0h24v24H0z" class="cls-1" data-name="Rectangle 194"/>
            <g id="Group_60" data-name="Group 60" transform="translate(2 2)">
                <path id="Path_449" d="M12.7 20.5a1.3 1.3 0 0 1-.7-1.2V18H6v-2h6v-1.5a1.3 1.3 0 0 1 .1-.5H6v-2h8v.6l1.8-1 1-.6.7-.2h.5V8l-6-6H4a2 2 0 0 0-2 2v16a2 2 0 0 0 2 2h11.3zM11 3.5L16.5 9H11z" class="cls-2" data-name="Path 449" transform="translate(-2 -2)"/>
                <path id="Path_450" d="M17.5 12.3l3.8 2.2-3.7 2.1-3.9-2.2zm0 9.7h.2l1-.6 3.1-1.8v-5.3l-4.3-2.4h-.2l-1 .6-3.1 1.8v5.2zm-1.3-4.1h-.3l-1-.6a.2.2 0 0 1-.1-.3h.3l1 .6a.2.2 0 0 1 .1.3z" class="cls-2" data-name="Path 450" transform="translate(-2 -2)"/>
            </g>
        </g>
    </g>
</svg>
