<svg xmlns="http://www.w3.org/2000/svg" viewBox="0 0 32 32" width="32" height="32">
  <path d="M13.5,31.81a16.54,16.54,0,0,0,5,0Z"/>
  <path d="M5.36,13.89H7.8v1A3.37,3.37,0,0,1,8.86,14a2.93,2.93,0,0,1,1.29-.26,2.51,2.51,0,0,1,1.29.29,2.16,2.16,0,0,1,.77.86A3.94,3.94,0,0,1,13.33,14a2.9,2.9,0,0,1,1.25-.24,2.25,2.25,0,0,1,1.71.65,2.91,2.91,0,0,1,.61,2v4.27H14.29V16.82a1.09,1.09,0,0,0-.18-.69.8.8,0,0,0-.65-.35.9.9,0,0,0-.74.34,1.6,1.6,0,0,0-.28,1.06v3.51H9.82V17a2.15,2.15,0,0,0-.05-.61.76.76,0,0,0-.29-.41A.71.71,0,0,0,9,15.77a.93.93,0,0,0-.74.34A1.74,1.74,0,0,0,8,17.22v3.47H5.36Z"/>
  <path d="M18.12,17.59l2.76-.17a2.08,2.08,0,0,0,.37,1,1.53,1.53,0,0,0,1.28.57,1.42,1.42,0,0,0,.95-.29.84.84,0,0,0,0-1.33A3.73,3.73,0,0,0,22,16.85a6.46,6.46,0,0,1-2.73-1.14,2.33,2.33,0,0,1-.82-1.82,2.44,2.44,0,0,1,.42-1.36,2.72,2.72,0,0,1,1.27-1,5.78,5.78,0,0,1,2.3-.37,4.71,4.71,0,0,1,2.75.67,2.86,2.86,0,0,1,1.12,2.12l-2.73.17a1.55,1.55,0,0,0-.46-.93,1.46,1.46,0,0,0-1-.28,1.2,1.2,0,0,0-.77.21.65.65,0,0,0-.25.52.52.52,0,0,0,.21.4,2.33,2.33,0,0,0,1,.35,12,12,0,0,1,2.73.83,2.93,2.93,0,0,1,1.19,1,2.64,2.64,0,0,1,.38,1.39,3,3,0,0,1-.5,1.66,3.09,3.09,0,0,1-1.4,1.16,5.66,5.66,0,0,1-2.26.39,4.61,4.61,0,0,1-3.31-.92A3.59,3.59,0,0,1,18.12,17.59Z"/>
  <path d="M16,1.78A14.22,14.22,0,1,1,1.78,16,14.21,14.21,0,0,1,16,1.78M16,0A16,16,0,1,0,32,16,16,16,0,0,0,16,0Z"/>
</svg>