<svg xmlns="http://www.w3.org/2000/svg" viewBox="0 0 32 32" width="32" height="32">
    <path d="M21.85,29l.1.1.26-.26Z"/>
    <path d="M16,0A16,16,0,1,0,32,16,16,16,0,0,0,16,0Zm9,27.06a13.69,13.69,0,0,1-1.16.84,14.35,14.35,0,0,1-1.58.9l-.26.26-.1-.1a14.22,14.22,0,0,1-11.77,0l-.49-.23a12.88,12.88,0,0,1-1.44-.84A13.21,13.21,0,0,1,7,27a14.22,14.22,0,1,1,18,.08Z"/>
    <path d="M21.85,29l.1.1.26-.26Zm1.65-18.4L22,9.06l-1.5,1.5L19,9.06l-1.5,1.5L16,9.06l-1.5,1.5L13,9.06l-1.5,1.5L10,9.06l-1.5,1.5L7,9.06V24.54a12.25,12.25,0,0,0,4.48,3l0,0,.05.05a12.2,12.2,0,0,0,2.26.64l.69-.69.87.87.13,0c.31,0,.74,0,1.13,0l.87-.87.7.7a12.27,12.27,0,0,0,2.18-.58l.12-.12.05.05a12.3,12.3,0,0,0,4.45-3V9.06ZM22,24H10V22H22Zm0-4H10V18H22Zm0-4H10V14H22Z"/>
</svg>