<svg id="content" xmlns="http://www.w3.org/2000/svg" viewBox="0 0 24 24"><defs><style>.cls-2{fill:#fff;}</style></defs><title>ic-therapydata</title><path class="cls-1" d="M20,9.67v-.1A5.72,5.72,0,0,0,14.1,4,5.8,5.8,0,0,0,8.38,8.34a3.9,3.9,0,0,0-1.87-.47,3.74,3.74,0,0,0-3.83,3.64,2,2,0,0,0,0,.25A3.93,3.93,0,0,0,0,15.44C0,17.6,1.87,19,4.13,19.36a42.66,42.66,0,0,0,14.71,0c2.79-.54,5.16-2.2,5.16-4.9A5,5,0,0,0,20,9.67Z"/><path class="cls-2" d="M12.8,18c-.84,0-1.48-.48-1.48-1.11V9.73a1.09,1.09,0,0,0-.62,0l0,6.11c0,.64-.64,1.12-1.49,1.12s-1.49-.48-1.49-1.12l0-4.12a1.06,1.06,0,0,0-.61,0v1a.58.58,0,0,1-.59.59H4.5a.59.59,0,0,1,0-1.18H6V11.6c0-.64.64-1.12,1.49-1.12S9,11,9,11.6l0,4.12a1.26,1.26,0,0,0,.61,0l0-6.11c0-.64.64-1.12,1.49-1.12S12.5,9,12.5,9.61v7.11a1.06,1.06,0,0,0,.61,0l0-7.17c0-.64.64-1.12,1.49-1.12s1.48.48,1.48,1.12l0,5.08a1.06,1.06,0,0,0,.61,0V12.74a.58.58,0,0,1,.59-.59h2.16a.59.59,0,0,1,0,1.18H17.87v1.42c0,.64-.64,1.12-1.49,1.12s-1.49-.48-1.49-1.12l0-5.08a1.06,1.06,0,0,0-.61,0l0,7.17C14.29,17.48,13.65,18,12.8,18Zm3.28-3.21Zm-1.21-5.2Z"/></svg>
