<svg xmlns="http://www.w3.org/2000/svg" viewBox="0 0 18 18" width="18" height="20">
    <path d="M3.54,15V7.18a5.48,5.48,0,0,1-1.49.24,2.79,2.79,0,0,1-.58-.07v9a.69.69,0,0,0,.69.69H15.93a.69.69,0,0,0,.69-.69v-9a4.85,4.85,0,0,1-.68.09,3.22,3.22,0,0,1-1.32-.19h0l-.06,0V15Z"/>
    <path d="M15.91,2.08h0A1.08,1.08,0,0,0,14.85,1H3.16A1.08,1.08,0,0,0,2.08,2.08L.32,4.64A1.74,1.74,0,0,0,1.75,6.35a1.53,1.53,0,0,0,.3,0,1.8,1.8,0,0,0,.57-.1h0l.16-.06h0L3,6.11H3a1.67,1.67,0,0,0,.54-.55h0l.09-.17a1.51,1.51,0,0,0,.1-.3h0a1.42,1.42,0,0,0,0-.2h0a1.55,1.55,0,0,0,0-.22,1.18,1.18,0,0,0,0,.27,1.73,1.73,0,0,0,3.42,0,2.28,2.28,0,0,0,0-.27,1.18,1.18,0,0,0,0,.27l0,.16h0a1.73,1.73,0,0,0,3.39-.16,2.23,2.23,0,0,0,0-.27,2.28,2.28,0,0,0,0,.27.75.75,0,0,0,0,.16h0a1.72,1.72,0,0,0,3.38-.16,1.18,1.18,0,0,0,0-.27,1.55,1.55,0,0,0,0,.22,1.68,1.68,0,0,0,.21.63l0,0,.08.13,0,0,.1.11,0,0,.13.13h0a1.64,1.64,0,0,0,.42.26h0l.1,0h0l.2.06h0a1.84,1.84,0,0,0,.41,0,1.74,1.74,0,0,0,1.73-1.74Z"/>
</svg>