<svg xmlns="http://www.w3.org/2000/svg" viewBox="0 0 18 18" width="16" height="20">
    <path d="M10.66,12a1.61,1.61,0,0,0-.37-1.1A3.36,3.36,0,0,0,9,10.12a14.23,14.23,0,0,1-1.53-.69,4.72,4.72,0,0,1-1.1-.78,3.15,3.15,0,0,1-.71-1,3.61,3.61,0,0,1-.25-1.42,3.23,3.23,0,0,1,.87-2.33A3.6,3.6,0,0,1,8.65,2.8V1H9.94V2.83a3.34,3.34,0,0,1,2.25,1.24A4.17,4.17,0,0,1,13,6.74H10.66a2.41,2.41,0,0,0-.4-1.51,1.3,1.3,0,0,0-1.08-.5,1.36,1.36,0,0,0-1,.39A1.53,1.53,0,0,0,7.79,6.2a1.51,1.51,0,0,0,.35,1A4.06,4.06,0,0,0,9.47,8a12,12,0,0,1,1.59.76,4.67,4.67,0,0,1,1.06.8,3.27,3.27,0,0,1,.65,1A3.69,3.69,0,0,1,13,12a3.2,3.2,0,0,1-.86,2.32,3.69,3.69,0,0,1-2.37,1.06V17H8.49V15.33a3.85,3.85,0,0,1-2.58-1.22A4,4,0,0,1,5,11.35H7.34a2.31,2.31,0,0,0,.46,1.53,1.63,1.63,0,0,0,1.32.54A1.56,1.56,0,0,0,10.24,13,1.4,1.4,0,0,0,10.66,12Z"/>
</svg>