<svg xmlns="http://www.w3.org/2000/svg" viewBox="0 0 32 32" width="32" height="32">
<path d="M14.1,7c-1.2,0-2.1,1-2.1,2.1V11H5.7C5.3,11,5,11.3,5,11.7v15.8c0,0.4,0.3,0.7,0.7,0.7l9.8,2.2l10.6-2.2
	c0.4,0,0.7-0.3,0.7-0.7V11.7c0-0.4-0.3-0.7-0.7-0.7h-6.2V9.1C19.9,8,19,7,17.8,7H14.1z M14.1,8.4h3.7c0.4,0,0.7,0.3,0.7,0.7V11h-5.1
	V9.1C13.4,8.7,13.7,8.4,14.1,8.4z M15.9,12.8c3.7,0,6.7,3,6.7,6.7c0,3.7-3,6.7-6.7,6.7c-3.7,0-6.7-3-6.7-6.7
	C9.2,15.9,12.2,12.8,15.9,12.8z M14.7,14.7c-0.2,0-0.3,0.1-0.3,0.3v3h-3c-0.2,0-0.3,0.1-0.3,0.3v2.4c0,0.2,0.1,0.3,0.3,0.3h3v3
	c0,0.2,0.1,0.3,0.3,0.3h2.4c0.2,0,0.3-0.1,0.3-0.3v-3h3c0.2,0,0.3-0.1,0.3-0.3v-2.4c0-0.2-0.1-0.3-0.3-0.3h-3v-3
	c0-0.2-0.1-0.3-0.3-0.3H14.7z"/>
<path d="M16,1.8c7.9,0,14.2,6.4,14.2,14.2S23.9,30.2,16,30.2S1.8,23.9,1.8,16S8.1,1.8,16,1.8 M16,0C7.1,0,0,7.1,0,16
	s7.1,16,16,16s16-7.1,16-16S24.9,0,16,0L16,0z"/>
<path fill="#FFFFFF" d="M16,1.8C8.1,1.8,1.8,8.1,1.8,16S8.1,30.2,16,30.2S30.2,23.9,30.2,16S23.9,1.8,16,1.8z M16,28.5
	C9.1,28.5,3.5,22.9,3.5,16S9.1,3.5,16,3.5S28.5,9.1,28.5,16S22.9,28.5,16,28.5z"/>
</svg>
