<svg xmlns="http://www.w3.org/2000/svg" viewBox="-0.1 -0.4 19 20" width="19" height="20">
<g transform="translate(-7, -4)">
	<path d="M19.7,4c3.4,0,6.2,2.8,6.2,6.2s-2.8,6.2-6.2,6.2c-1,0-2-0.3-2.9-0.7c-0.2-0.1-0.5-0.3-0.7-0.5c0.1,0.2,0,0.1,0.1,0.3
		c0,0.7-0.6,1.3-1.3,1.3l-0.2,0c0.2,0.4,0.1,0.7-0.2,1l-5.2,5.2c-0.3,0.3-0.9,0.3-1.2,0l-0.8-0.8c-0.3-0.3-0.3-0.9,0-1.2l5.2-5.2
		c0.3-0.3,0.4-0.2,0.8-0.2c0.1,0,0.2,0.1,0.3,0.1l0-0.1c0-0.7,0.6-1.3,1.3-1.3l0.2,0c-1-1.1-1.4-2.6-1.5-4C13.5,6.8,16.3,4,19.7,4z
		 M13,15.9c-0.1,0-0.1,0.1-0.2,0.1l-5.2,5.2c-0.2,0.2-0.2,0.4,0,0.6l0.8,0.8c0.2,0.2,0.4,0.2,0.6,0l5.2-5.2c0.2-0.2,0.2-0.4,0-0.6
		L13.4,16L13.2,16C13.1,16,13.2,16,13,15.9z M13,16.2l0.1,0l0.1,0c0.1,0.1,0.1,0.2,0,0.3L8,21.7c-0.1,0.1-0.2,0.1-0.3,0
		c-0.1-0.1-0.1-0.2,0-0.3l5.2-5.2C13,16.1,13,16.2,13,16.2z M14.8,14.6c-0.5,0-0.9,0.4-0.9,0.9s0.4,0.9,0.9,0.9
		c0.5,0,0.9-0.4,0.9-0.9S15.3,14.6,14.8,14.6z M14.8,14.8c0.1,0,0.2,0.1,0.2,0.2s-0.1,0.2-0.2,0.2c-0.1,0-0.2,0.1-0.2,0.2
		c0,0.1-0.1,0.2-0.2,0.2c-0.1,0-0.2-0.1-0.2-0.2C14.2,15.1,14.4,14.8,14.8,14.8z M19.7,4.4c-3.2,0-5.7,2.6-5.7,5.7s2.6,5.7,5.7,5.7
		s5.7-2.6,5.7-5.7S22.9,4.4,19.7,4.4z M19.7,4.7c1.5,0,2.8,0.6,3.9,1.6h0v0c1.1,1,1.6,2.4,1.6,3.9c0,3.1-2.5,5.5-5.5,5.5
		s-5.5-2.5-5.5-5.5S16.6,4.7,19.7,4.7z M23.4,6.7h-4.1v2.2c0,0.1-0.1,0.2-0.2,0.2h-2.2v5.3c0.8,0.6,1.8,0.8,2.8,0.9
		c0.7,0,0.4,0,0.9-0.1H19c-0.1,0-0.2-0.1-0.2-0.2s0.1-0.2,0.2-0.2h2.9l0,0c0.5-0.2,0.9-0.5,1.3-0.9H19c-0.1,0-0.2-0.1-0.2-0.2
		c0-0.1,0.1-0.2,0.2-0.2h4.6l0,0c0.4-0.5,0.2-0.2,0.5-0.9H19c-0.1,0-0.2-0.1-0.2-0.2s0.1-0.2,0.2-0.2h5.3c0.2-0.6,0.1-0.3,0.2-0.9
		L19,11.3c-0.1,0-0.2-0.1-0.2-0.2c0-0.1,0.1-0.2,0.2-0.2l5.6-0.1c0.1-0.3,0-0.1,0.1-0.7l0-0.2H19c-0.1,0-0.2-0.1-0.2-0.2
		s0.1-0.2,0.2-0.2h5.7C24.6,8.4,24.1,7.5,23.4,6.7z M19.7,5.1c-2.8,0-5.1,2.3-5.1,5.1c0,1.2,0.4,2.3,1.2,3.2
		c0.2,0.2,0.5,0.5,0.7,0.7V8.9c0-0.1,0-0.1,0.1-0.1l0,0l2.4-2.4l0,0c0.1-0.1,0-0.1,0.1-0.1h3.9C22.1,5.4,20.8,5.1,19.7,5.1z M18.8,7
		l-1.6,1.6h1.6V7z"/>
</g>
</svg>
