<svg xmlns="http://www.w3.org/2000/svg" viewBox="2127 529.6 74 74" width="74" height="74">
<path class="st0" d="M2146.5,568.1v16.2h6.9v-16.2H2146.5z M2160.4,568.1v16.2h6.9v-16.2H2160.4z M2141.9,595.8h43.9v-6.9h-43.9
	V595.8z M2174.3,568.1v16.2h6.9v-16.2H2174.3z M2163.9,547.3l-22,11.6v4.6h43.9v-4.6L2163.9,547.3z"/>
<path class="st0" d="M2163.9,533.5c18.2,0,32.9,14.7,32.9,32.9c0,18.2-14.7,32.9-32.9,32.9s-32.9-14.7-32.9-32.9
	C2131,548.3,2145.7,533.5,2163.9,533.5 M2163.9,529.4c-20.5,0-37,16.5-37,37s16.5,37,37,37c20.5,0,37-16.5,37-37
	C2200.9,546,2184.4,529.4,2163.9,529.4L2163.9,529.4z"/>
<path fill="#FFFFFF" d="M2163.9,533.5c-18.2,0-32.9,14.7-32.9,32.9c0,18.2,14.7,32.9,32.9,32.9s32.9-14.7,32.9-32.9
	C2196.8,548.3,2182.1,533.5,2163.9,533.5z M2163.9,595.2c-15.9,0-28.8-12.9-28.8-28.8c0-15.9,12.9-28.8,28.8-28.8
	c15.9,0,28.8,12.9,28.8,28.8C2192.7,582.3,2179.8,595.2,2163.9,595.2z"/>
</svg>
