<svg xmlns="http://www.w3.org/2000/svg" viewBox="0 0 60 60" width="100" height="100">
<path d="M5,14c-0.6,0-1,0.4-1,1v34c0,0.6,0.4,1,1,1s1-0.4,1-1V15C6,14.4,5.6,14,5,14L5,14z M22,22c0,1.1,0.9,2,2,2
	s2-0.9,2-2s-0.9-2-2-2S22,20.9,22,22L22,22z M18,31c0,0.6,0.4,1,1,1h6c0.3,0,0.5-0.1,0.7-0.3l6.3-6.3l2.3,2.3c0.4,0.4,1,0.4,1.4,0
	l4.3-4.3l4.3,4.3c0.4,0.4,1,0.4,1.4,0c0.4-0.4,0.4-1,0-1.4l-5-5c-0.4-0.4-1-0.4-1.4,0L35,25.6l-2.3-2.3c-0.4-0.4-1-0.4-1.4,0
	L24.6,30H20V18h28v12H31c-0.6,0-1,0.4-1,1s0.4,1,1,1h18c0.6,0,1-0.4,1-1V17c0-0.6-0.4-1-1-1H19c-0.6,0-1,0.4-1,1V31z M47,48H37
	c-0.6,0-1,0.4-1,1s0.4,1,1,1h10c0.6,0,1-0.4,1-1S47.6,48,47,48L47,48z M19,50h10c0.6,0,1-0.4,1-1s-0.4-1-1-1H19c-0.6,0-1,0.4-1,1
	S18.4,50,19,50L19,50z M47,42H37c-0.6,0-1,0.4-1,1s0.4,1,1,1h10c0.6,0,1-0.4,1-1S47.6,42,47,42L47,42z M19,44h12c0.6,0,1-0.4,1-1
	s-0.4-1-1-1H19c-0.6,0-1,0.4-1,1S18.4,44,19,44L19,44z M50,37c0-0.6-0.4-1-1-1H37c-0.6,0-1,0.4-1,1s0.4,1,1,1h12
	C49.6,38,50,37.6,50,37L50,37z M49,12c0.6,0,1-0.4,1-1s-0.4-1-1-1h-4c-0.6,0-1,0.4-1,1s0.4,1,1,1H49z M19,12h16c0.6,0,1-0.4,1-1
	s-0.4-1-1-1H19c-0.6,0-1,0.4-1,1S18.4,12,19,12L19,12z M19,38h10c0.6,0,1-0.4,1-1s-0.4-1-1-1H19c-0.6,0-1,0.4-1,1S18.4,38,19,38
	L19,38z M60,5v46c0,5.6-3.4,9-9,9H9c-5.6,0-9-3.4-9-9V13c0-2.8,2.2-5,5-5c0.6,0,1,0.4,1,1s-0.4,1-1,1c-1.7,0-3,1.3-3,3v38
	c0,4.4,2.6,7,7,7h42c4.4,0,7-2.6,7-7V5c0-1.7-1.3-3-3-3H13c-1.6,0-3,1.4-3,3v48c0,0.6-0.4,1-1,1s-1-0.4-1-1V5c0-2.7,2.3-5,5-5h42
	C57.8,0,60,2.2,60,5L60,5z"/>
</svg>
