<svg xmlns="http://www.w3.org/2000/svg" viewBox="0 0 32 32" width="32" height="32">
<path  d="M26.4,11.5c-0.8-1.3-9.1-1.8-10.4-1.8c-1.3,0-9.6,0.5-10.4,1.8s-0.8,2.9-0.8,3.4c0,0.2,0,1.3,0.8,1.3
	c1,0,3.3,0,3.6,0c0.5,0,1-0.5,1-1c0-0.5,0-1.6,0.8-1.8c0.8-0.3,4.9-0.5,4.9-0.5s4.2,0.3,4.9,0.5c0.8,0.3,0.8,1.3,0.8,1.8
	c0,0.5,0.5,1,1,1c0.3,0,2.6,0,3.6,0c0.8,0,0.8-1.1,0.8-1.3C27.2,14.4,27.2,12.8,26.4,11.5z"/>
<path  d="M26.7,23.3c-1.9-4.3-6.1-7.1-10.7-7.1c-5.5,0-10.3,3.9-11.4,9.2c-0.2,0.7,0,1.5,0.5,2c0.5,0.6,1.2,0.9,1.9,0.9
	H25c0.7,0,1.4-0.3,1.9-0.9c0.5-0.6,0.6-1.3,0.5-2C27.3,24.7,27,24,26.7,23.3z M16,25.2c-1.6,0-2.9-1.3-2.9-2.9s1.3-2.9,2.9-2.9
	s2.9,1.3,2.9,2.9S17.6,25.2,16,25.2z"/>
<path  d="M16,1.8c7.9,0,14.2,6.4,14.2,14.2S23.9,30.2,16,30.2S1.8,23.9,1.8,16S8.1,1.8,16,1.8 M16,0C7.1,0,0,7.1,0,16
	s7.1,16,16,16s16-7.1,16-16S24.9,0,16,0L16,0z"/>
<path fill="#FFFFFF" d="M16,1.8C8.1,1.8,1.8,8.1,1.8,16S8.1,30.2,16,30.2S30.2,23.9,30.2,16S23.9,1.8,16,1.8z M16,28.5
	C9.1,28.5,3.5,22.9,3.5,16S9.1,3.5,16,3.5S28.5,9.1,28.5,16S22.9,28.5,16,28.5z"/>
</svg>
