<svg xmlns="http://www.w3.org/2000/svg" viewBox="0 0 32 32" width="32" height="32">
<g>
	<path d="M21.5,5.2h-11c-1.1,0-2,0.9-2,2v21.7c0,1.1,0.9,2,2,2h11c1.1,0,2-0.9,2-2V7.2C23.5,6.1,22.6,5.2,21.5,5.2z
		 M10.7,7.7h10.7V16H10.7V7.7z M13.4,28.7h-2.8v-2.3h2.8V28.7z M13.4,24.7h-2.8v-2.3h2.8V24.7z M13.4,20.8h-2.8v-2.3h2.8V20.8z
		 M17.4,28.7h-2.8v-2.3h2.8V28.7z M17.4,24.7h-2.8v-2.3h2.8V24.7z M17.4,20.8h-2.8v-2.3h2.8V20.8z M21.4,28.7h-2.8v-2.3h2.8V28.7z
		 M21.4,24.7h-2.8v-2.3h2.8V24.7z M21.4,20.8h-2.8v-2.3h2.8V20.8z"/>
</g>
<path d="M16,1.8c7.9,0,14.2,6.4,14.2,14.2S23.9,30.2,16,30.2S1.8,23.9,1.8,16S8.1,1.8,16,1.8 M16,0C7.1,0,0,7.1,0,16
	s7.1,16,16,16s16-7.1,16-16S24.9,0,16,0L16,0z"/>
<path fill="#FFFFFF" d="M16,1.8C8.1,1.8,1.8,8.1,1.8,16S8.1,30.2,16,30.2S30.2,23.9,30.2,16S23.9,1.8,16,1.8z M16,28.5
	C9.1,28.5,3.5,22.9,3.5,16S9.1,3.5,16,3.5S28.5,9.1,28.5,16S22.9,28.5,16,28.5z"/>
</svg>
