<svg xmlns="http://www.w3.org/2000/svg" viewBox="0 0 32 32" width="32" height="32">
<path d="M10.2,17.8c1.8,3.5,4.6,6.3,8.1,8.1l2.7-2.7c0.3-0.3,0.8-0.4,1.3-0.3c1.4,0.5,2.9,0.7,4.4,0.7
	c0.7,0,1.2,0.6,1.2,1.2c0,0-4.3,5.3-5.8,5C12.7,27.8,5.7,19.5,5.7,9.5c0-0.7,0.6-1.2,1.2-1.2h4.3c0.7,0,1.2,0.6,1.2,1.2
	c0,1.5,0.2,3,0.7,4.4c0.1,0.4,0,0.9-0.3,1.3L10.2,17.8z"/>
<path d="M16,1.8c7.9,0,14.2,6.4,14.2,14.2S23.9,30.2,16,30.2S1.8,23.9,1.8,16S8.1,1.8,16,1.8 M16,0C7.1,0,0,7.1,0,16
	s7.1,16,16,16s16-7.1,16-16S24.9,0,16,0L16,0z"/>
<path fill="#FFFFFF" d="M16,1.8C8.1,1.8,1.8,8.1,1.8,16S8.1,30.2,16,30.2S30.2,23.9,30.2,16S23.9,1.8,16,1.8z M16,28.5
	C9.1,28.5,3.5,22.9,3.5,16S9.1,3.5,16,3.5S28.5,9.1,28.5,16S22.9,28.5,16,28.5z"/>
<g>
	<path d="M18.1,15.6h-0.5c-0.1-0.9-0.2-2-0.5-3.3l-0.6-2.6C16,8.1,15.8,7,15.8,6.4c0-0.6,0.2-1.1,0.5-1.5
		c0.4-0.4,0.8-0.6,1.4-0.6c0.6,0,1,0.2,1.4,0.6c0.4,0.4,0.6,0.9,0.6,1.4c0,0.6-0.2,1.7-0.6,3.4l-0.6,2.6
		C18.3,13.2,18.2,14.3,18.1,15.6z"/>
	<path d="M17.8,18.1c0.5,0,1,0.2,1.4,0.6c0.4,0.4,0.6,0.8,0.6,1.4s-0.2,1-0.6,1.4c-0.4,0.4-0.8,0.6-1.4,0.6
		s-1-0.2-1.4-0.6c-0.4-0.4-0.6-0.8-0.6-1.4s0.2-1,0.6-1.4C16.8,18.3,17.3,18.1,17.8,18.1z"/>
</g>
</svg>
