<svg xmlns="http://www.w3.org/2000/svg" viewBox="0 0 384 397" width="17" height="17">
<g>
	<path d="M350.9,144.3h-4.5V87.8l-75-88H81.2C57-0.2,37.3,21,37.3,47.3v96.9h-4.4c-19,0-34.6,15.1-34.6,34v93.7
		c0,18.9,15.6,34.1,34.6,34.1h4.4v38c0,26.3,19.7,47.8,43.9,47.8h221.4c24.2,0,43.8-21.5,43.8-47.8v-38h4.5
		c19,0,34.5-15.2,34.5-34.1v-93.7C385.3,159.4,369.9,144.3,350.9,144.3L350.9,144.3z M36.6,195.2c-8.4,0-15.3-6.8-15.3-15.2
		c0-8.4,6.8-15.2,15.3-15.2c8.4,0,15.3,6.8,15.3,15.2C51.8,188.4,45,195.2,36.6,195.2L36.6,195.2z M312.3,344c0,7.4-4.5,14-9.7,14
		H81.2c-5.2,0-9.8-6.6-9.8-14v-38h241V344z M312.3,144.3h-241V47.3c0-7.4,4.6-13.7,9.8-13.7h169.8v36c0,19,15.4,34.5,34.5,34.7
		l26.8,0.3V144.3z M312.3,144.3"/>
	<path d="M114.1,344.7h151.5c7.1,0,12.8-5.7,12.8-12.7c0-7-5.7-12.7-12.8-12.7H114.1c-7.1,0-12.8,5.7-12.8,12.7
		C101.3,339,107,344.7,114.1,344.7L114.1,344.7z M114.1,344.7"/>
</g>
</svg>
