<svg xmlns="http://www.w3.org/2000/svg" width="23.999" height="24" viewBox="0 0 23.999 24">
    <g transform="translate(-1692.729 -442)">
        <rect width="1.422" height="1.422" transform="translate(1704.018 458.559)"/>
        <path d="M1406,2902.393l-6,1.607,1.606-6a12,12,0,1,1,4.391,4.391Zm.473-1.355a10.59,10.59,0,1,0-3.508-3.508l.158.258-1.132,4.224,4.225-1.132Zm4.819-5.812v-1.694l2.3-2.573a2.133,2.133,0,1,0-3.722-1.422h-1.423a3.555,3.555,0,1,1,6.206,2.371l-1.939,2.168v1.15Z"
              transform="translate(292.729 -2438)"/>
    </g>
</svg>
