<svg xmlns="http://www.w3.org/2000/svg" viewBox="-0.3 -3.6 34 28" width="34" height="28">
<g>
	<path d="M6,14.2H4.6v2.3H6c0.5,0,0.8-0.1,1-0.3c0.2-0.2,0.3-0.5,0.3-0.8c0-0.4-0.1-0.7-0.3-0.9C6.7,14.3,6.4,14.2,6,14.2z"/>
	<path d="M30.5,10h-3.8l-7.4-7.4C19.8,2,20,1.3,20,0.6c0-2.1-1.7-3.8-3.8-3.8s-3.8,1.7-3.8,3.8c0,0.8,0.2,1.5,0.6,2.1L5.7,10H2.8
		C1.3,10,0,11.3,0,12.8v8.3C0,22.7,1.3,24,2.8,24h27.7c1.6,0,2.8-1.3,2.8-2.8v-8.3C33.3,11.3,32.1,10,30.5,10z M14.5,4
		c0.5,0.2,1.1,0.4,1.7,0.4s1.2-0.2,1.7-0.4l6,6H8.5L14.5,4z M9.4,21H7.7c-0.1-0.1-0.2-0.3-0.3-0.6s-0.1-0.5-0.1-0.8v-0.6
		c0-0.4-0.1-0.7-0.3-0.9c-0.2-0.2-0.5-0.3-0.9-0.3H4.6V21H3v-8h3c0.9,0,1.6,0.2,2.1,0.6c0.5,0.4,0.8,1,0.8,1.7
		c0,0.4-0.1,0.8-0.3,1.1c-0.2,0.3-0.5,0.5-1,0.7c0.5,0.1,0.8,0.4,1,0.7C8.8,18.2,9,18.6,9,19.1v0.6c0,0.2,0,0.5,0.1,0.7
		c0.1,0.2,0.2,0.4,0.3,0.5V21z M15.9,21h-5.5v-8h5.5v1.2H12v2h3.3v1.2H12v2.3h3.9V21z M23.3,21h-1.6l-3.2-5.5l0,0V21h-1.6v-8h1.6
		l3.2,5.5l0,0V13h1.6V21z M30.4,14.2h-2.3V21h-1.6v-6.8h-2.3V13h6.1V14.2z"/>
</g>
</svg>
