<svg xmlns="http://www.w3.org/2000/svg" viewBox="-0.3 0 20 20" width="20" height="20">
<g>
	<path d="M11.5,16.6c-1.3,0-2.4-0.5-3.3-1.4c-0.9-0.9-1.4-2.1-1.4-3.2c-0.4-0.6-0.7-1.3-0.7-2c0-1.9,1.6-3.5,3.6-3.5
		c1,0,1.8,0.4,2.5,1c1,0.1,1.9,0.6,2.7,1.3c1.1,1.1,1.6,2.6,1.3,4.1l2.3,2.3l1.1-1.9c0.1-0.2,0.1-0.5-0.1-0.6L17.4,11
		c0-0.3,0.1-0.6,0.1-1s0-0.7-0.1-1l2.2-1.7c0.2-0.2,0.2-0.4,0.1-0.6l-2.1-3.5C17.5,3,17.2,3,17,3l-2.6,1c-0.5-0.4-1.1-0.7-1.7-1
		l-0.4-2.7C12.3,0.2,12,0,11.8,0H7.7C7.4,0,7.2,0.2,7.2,0.4L6.8,3.1C6.2,3.3,5.6,3.7,5,4L2.5,3C2.2,3,2,3,1.9,3.3l-2.1,3.5
		C-0.3,7-0.3,7.2-0.1,7.4L2.1,9C2,9.3,2,9.7,2,10s0,0.7,0.1,1l-2.2,1.7c-0.2,0.1-0.2,0.4-0.1,0.6l2.1,3.5C2,17,2.3,17,2.5,17L5,16
		c0.5,0.4,1.1,0.7,1.7,1l0.4,2.7c0,0.2,0.2,0.4,0.5,0.4h4.1c0.3,0,0.5-0.2,0.5-0.4l0.4-2.7c0,0,0,0,0.1,0l-0.4-0.4
		C12.1,16.6,11.8,16.6,11.5,16.6z"/>
	<path d="M19.6,17.9l-1.7-1.7l-3.1-3.1C15.2,12,15,10.6,14,9.6c-0.2-0.2-0.3-0.3-0.5-0.4c-0.1,0-0.1-0.1-0.2-0.1c0,0-0.1,0-0.1-0.1
		C13.1,9,13,9,12.9,9c-0.1,0-0.1-0.1-0.2-0.1c-0.1-0.1-0.3-0.1-0.4-0.1c-0.1,0-0.1,0-0.2,0c-0.2,0-0.4-0.1-0.6-0.1c0,0-0.1,0-0.1,0
		c-0.2,0-0.4,0-0.6,0.1c-0.1,0-0.1,0-0.2,0c-0.2,0.1-0.4,0.1-0.6,0.2c0,0,0,0,0,0l2.3,2.2l-1.6,1.6h0l-2.3-2.2
		c-0.1,0.2-0.1,0.3-0.2,0.5c-0.1,0.3-0.2,0.7-0.1,1c0,0.4,0.1,0.8,0.3,1.2c0.2,0.4,0.4,0.8,0.8,1.1c0.2,0.2,0.3,0.3,0.5,0.4
		c0,0,0.1,0.1,0.2,0.1c0.1,0.1,0.3,0.2,0.4,0.2c0.1,0,0.1,0,0.1,0.1c0.2,0.1,0.4,0.1,0.6,0.2c0,0,0.1,0,0.1,0c0.2,0,0.3,0,0.5,0
		c0.1,0,0.1,0,0.2,0c0.1,0,0.3,0,0.4,0c0.1,0,0.1,0,0.2,0c0.2,0,0.4-0.1,0.5-0.2c0,0,0,0,0,0l0,0l1.2,1.1l3.6,3.6
		c0.1,0.1,0.2,0.2,0.4,0.2c0.1,0,0.2,0,0.3-0.1c0,0,0.1,0,0.1-0.1l1.2-1.2C19.8,18.4,19.8,18.1,19.6,17.9z"/>
</g>
</svg>
