<?xml version="1.0" encoding="utf-8"?>
<!-- Generator: Adobe Illustrator 18.0.0, SVG Export Plug-In . SVG Version: 6.00 Build 0)  -->
<!DOCTYPE svg PUBLIC "-//W3C//DTD SVG 1.1//EN" "http://www.w3.org/Graphics/SVG/1.1/DTD/svg11.dtd">
<svg version="1.1" xmlns="http://www.w3.org/2000/svg" xmlns:xlink="http://www.w3.org/1999/xlink" x="0px" y="0px"
	 viewBox="0 0 16 16" enable-background="new 0 0 16 16" xml:space="preserve">
<g id="Layer_1" display="none">
	<g display="inline">
		<path fill="#FEA400" d="M3.7,5.1L3.8,5c0,0,0.1-0.1,0.1-0.1l0,0L4,4.7C4.2,4.5,4.5,4.2,4.7,4l0.2-0.2l0,0c0,0,0.1-0.1,0.1-0.1
			l0.2-0.1L2.4,2.3l0.2,0.3L3.7,5.1z"/>
		<path fill="#FEA400" d="M2.9,8.8c0,0,0-0.1,0-0.1l0,0l0-0.2c0-0.2,0-0.3,0-0.5c0-0.2,0-0.3,0-0.5l0-0.2l0,0c0,0,0-0.1,0-0.1l0-0.2
			L2.7,7L0,8l2.9,1L2.9,8.8z"/>
		<path fill="#FEA400" d="M7.3,2.9L7.3,2.9l0.2,0c0.2,0,0.3,0,0.5,0c0.2,0,0.3,0,0.5,0l0.2,0l0,0c0,0,0.1,0,0.1,0l0.2,0L8,0L7.9,0.3
			L7,2.9l0.2,0C7.2,2.9,7.3,2.9,7.3,2.9z"/>
		<path fill="#FEA400" d="M11.1,3.9L11.1,3.9L11.1,3.9c0.1,0.1,0.2,0.2,0.3,0.3c0.2,0.1,0.3,0.3,0.4,0.4c0.1,0.1,0.1,0.2,0.2,0.2
			l0.1,0.1l0,0c0,0,0.1,0.1,0.1,0.1l0.1,0.2l1.3-2.8l-0.3,0.2l-2.5,1.2L11,3.8C11.1,3.8,11.1,3.9,11.1,3.9z"/>
		<path fill="#FEA400" d="M13.1,9L16,8l-2.9-1l0,0.2c0,0,0,0.1,0,0.1l0,0l0,0.2c0,0.2,0,0.3,0,0.5c0,0.2,0,0.3,0,0.5l0,0.2l0,0
			c0,0,0,0.1,0,0.1L13.1,9z"/>
		<path fill="#FEA400" d="M8.7,13.1L8.7,13.1l-0.2,0c-0.2,0-0.3,0-0.5,0c-0.2,0-0.3,0-0.5,0l-0.2,0l0,0c0,0-0.1,0-0.1,0l-0.2,0
			L7,13.3L8,16l1-2.9l-0.2,0C8.8,13.1,8.7,13.1,8.7,13.1z"/>
		<path fill="#FEA400" d="M12.2,11C12.2,11.1,12.1,11.1,12.2,11L12.2,11L12,11.3c-0.2,0.2-0.3,0.4-0.5,0.6c-0.1,0.1-0.2,0.2-0.3,0.3
			c0,0-0.1,0.1-0.1,0.1l-0.2,0.1l2.8,1.3l-1.3-2.8L12.2,11z"/>
		<path fill="#FEA400" d="M4.9,12.1L4.9,12.1L4.7,12c-0.2-0.2-0.5-0.4-0.6-0.6l-0.1-0.2l0,0c0,0-0.1-0.1-0.1-0.1l-0.1-0.2l-0.1,0.2
			l-1.2,2.6l2.8-1.3L5,12.2C4.9,12.2,4.9,12.1,4.9,12.1z"/>
		<path fill="#FEA400" d="M11.7,10.7c0.6-0.8,0.9-1.8,0.9-2.7c0-1.4-0.6-2.8-1.9-3.7C9.9,3.7,8.9,3.4,8,3.4c-1.4,0-2.8,0.6-3.7,1.9
			C3.7,6.1,3.4,7.1,3.4,8c0,1.4,0.6,2.8,1.9,3.7c0.8,0.6,1.8,0.9,2.7,0.9C9.4,12.6,10.8,11.9,11.7,10.7z"/>
	</g>
</g>
<g id="Layer_2" display="none">
	<path display="inline" fill="#4DC63C" d="M8,0C3.6,0,0,3.6,0,8s3.6,8,8,8s8-3.6,8-8S12.4,0,8,0z M11.9,6.8l-4.3,4.3
		c-0.5,0.5-1.3,0.5-1.8,0.1c-0.1-0.1-0.1-0.1-0.2-0.2L3.9,9.2C3.4,8.6,3.4,7.8,3.9,7.3c0.5-0.5,1.3-0.5,1.8,0.1l1.1,1.1L10.2,5
		C10.7,4.5,11.5,4.5,12,5C12.5,5.5,12.5,6.3,11.9,6.8z"/>
</g>
<g id="Layer_3" display="none">
	<path display="inline" fill="#5E5E5E" d="M0,0.8l3.2,14.8C3.3,15.9,3.6,16.1,4,16h0c0.3-0.1,0.5-0.4,0.5-0.7L1.3,0.5
		C1.2,0.2,0.9-0.1,0.5,0l0,0C0.1,0.1-0.1,0.4,0,0.8z"/>
	<path display="inline" fill="#5E5E5E" d="M3.2,0.2c0,0-0.9,0.2-1.8,0.9c0,0-0.1,0.1,0,0.6s0,0,0,0l0.3,1.6c0,0,0.8-0.6,2.1-0.5
		L3.2,0.2z"/>
	<path display="inline" fill="#5E5E5E" d="M5.8,0.1l1,3.5c0,0,1.2,0.3,2.6,0.3L8.5,1C8.5,1,6.6,0.1,5.8,0.1z"/>
	<path display="inline" fill="#5E5E5E" d="M11,1.1l1.1,2.5c0,0,0.8-0.2,1.6-0.5l-1.3-2.4C12.4,0.6,11.8,1,11,1.1z"/>
	<path display="inline" fill="#5E5E5E" d="M13.2,6.2l-1.1-2.6c0,0-1.6,0.4-2.6,0.3l1,2.9C10.4,6.7,12,6.6,13.2,6.2z"/>
	<path display="inline" fill="#5E5E5E" d="M6.9,3.5c0,0-1.9-0.7-3-0.7l0.7,2.9c0,0,0.9,0.2,1.6,0.5s1.2,0.4,1.5,0.4L6.9,3.5z"/>
	<path display="inline" fill="#5E5E5E" d="M4.6,5.7c0,0-1.1-0.4-2.3,0.1c-0.1,0,0,0.2,0.1,0.5l0.5,2c0,0,0.1,0.6,0.7,0.5
		c0,0,0.7-0.3,2,0.4L4.6,5.7z"/>
	<path display="inline" fill="#5E5E5E" d="M7.8,6.6c0,0,1.3,0.2,2.7,0.1l0.9,2.6c0,0-1.4,0.3-2.6,0.3L7.8,6.6z"/>
	<path display="inline" fill="#5E5E5E" d="M13.2,6.2l1,2.3c0,0,1.1-0.5,1.8-1.1l-1-1.8C15,5.4,14.4,5.7,13.2,6.2z"/>
</g>
<g id="Layer_4" display="none">
	<path display="inline" fill="#EA2F31" d="M8,0C3.6,0,0,3.6,0,8s3.6,8,8,8s8-3.6,8-8S12.4,0,8,0z M12,9H4V7h8V9z"/>
</g>
<g id="Layer_5" display="none">
	<g display="inline">
		<circle fill="#4DC63C" cx="8" cy="8" r="8"/>
	</g>
</g>
<g id="Layer_6">
	<g>
		<circle fill="#4DC63C" cx="8" cy="8" r="8"/>
	</g>
	<g>
		<path fill="#FFFFFF" d="M8.8,10.6H7c0-0.2,0-0.4,0-0.5c0-0.6,0.1-1,0.3-1.4C7.5,8.4,7.9,8,8.4,7.5c0.6-0.4,0.9-0.7,1-0.9
			c0.2-0.2,0.2-0.5,0.2-0.7c0-0.4-0.1-0.7-0.4-0.9C8.9,4.7,8.5,4.6,8,4.6C7.5,4.6,7.1,4.7,6.8,5C6.5,5.3,6.3,5.7,6.2,6.2L4.4,6
			c0-0.8,0.4-1.5,1-2.1c0.6-0.6,1.5-0.8,2.5-0.8c1.1,0,2,0.3,2.6,0.9c0.6,0.6,1,1.2,1,2c0,0.4-0.1,0.8-0.4,1.2
			C10.9,7.5,10.4,8,9.6,8.7C9.2,9,9,9.3,8.9,9.5C8.8,9.7,8.8,10.1,8.8,10.6z"/>
		<rect x="7" y="11.5" fill="#FFFFFF" width="1.7" height="1.7"/>
	</g>
</g>
</svg>
