<svg xmlns="http://www.w3.org/2000/svg" viewBox="-26 -7.8 88 67" width="170" height="126">
<path fill="#ABB7C5" d="M36.9,2.8C28.3-3.3,17-3.2,8.5,3C8.1,3.3,8,4,8.3,4.4c0.3,0.4,1,0.5,1.4,0.2c7.7-5.7,18.1-5.8,26-0.2
	c9.9,7.1,12.1,20.8,5,30.7s-20.8,12.1-30.7,5C2.2,34.5-1,24.6,1.9,15.5c0.2-0.5-0.1-1.1-0.6-1.3c-0.5-0.2-1.1,0.1-1.3,0.6
	c-3.2,10,0.3,20.8,8.8,26.9c10.8,7.7,25.8,5.2,33.5-5.5S47.6,10.5,36.9,2.8"/>
<path fill="#ABB7C5" d="M4.7,16.3c-0.5-0.1-1.1,0.2-1.2,0.7c-0.8,3.1-0.9,6.4-0.2,9.6c2.5,10.7,13.2,17.5,24,15s17.5-13.2,15-24
	c-1.8-8-8.3-14-16.5-15.3c-0.5-0.1-1.1,0.3-1.1,0.8c-0.1,0.5,0.3,1.1,0.8,1.1c7.3,1.1,13.2,6.5,14.8,13.8
	c2.2,9.7-3.8,19.4-13.5,21.6S7.5,35.8,5.3,26.2c-0.7-2.8-0.6-5.8,0.1-8.6C5.6,17,5.3,16.5,4.7,16.3"/>
<path fill="none" stroke="#ABB7C5" stroke-width="2" stroke-linecap="round" stroke-linejoin="round" stroke-miterlimit="10" d="M42.9,4.1c2.5-2.2,5.4-3.6,9-3.6"/>
<path fill="none" stroke="#ABB7C5" stroke-width="2" stroke-linecap="round" stroke-linejoin="round" stroke-miterlimit="10" d="M-13,19.3c9.6,0,10-9.9,17.9-9.9s8.3,13.1,18.9,13.1c4.7,0,8-4.4,11.5-9.3"/>
<g>
	<circle fill="#ABB7C5" cx="4.9" cy="9.4" r="3.2"/>
	<path fill="#FFFFFF" d="M4.9,7.2c1.2,0,2.2,1,2.2,2.2s-1,2.2-2.2,2.2s-2.2-1-2.2-2.2S3.7,7.2,4.9,7.2 M4.9,5.2c-2.3,0-4.2,1.9-4.2,4.2
		s1.9,4.2,4.2,4.2s4.2-1.9,4.2-4.2S7.2,5.2,4.9,5.2L4.9,5.2z"/>
</g>
<g>
	<circle fill="#ABB7C5" cx="52.3" cy="0.3" r="3.2"/>
	<path fill="#FFFFFF" d="M52.3-1.9c1.2,0,2.2,1,2.2,2.2s-1,2.2-2.2,2.2s-2.2-1-2.2-2.2S51.1-1.9,52.3-1.9 M52.3-3.9
		c-2.3,0-4.2,1.9-4.2,4.2s1.9,4.2,4.2,4.2s4.2-1.9,4.2-4.2S54.6-3.9,52.3-3.9L52.3-3.9z"/>
</g>
<g>
	<circle fill="#ABB7C5" cx="24" cy="22.3" r="3.2"/>
	<path fill="#FFFFFF" d="M24,20.2c1.2,0,2.2,1,2.2,2.2s-1,2.2-2.2,2.2s-2.2-1-2.2-2.2S22.8,20.2,24,20.2 M24,18.2
		c-2.3,0-4.2,1.9-4.2,4.2s1.9,4.2,4.2,4.2s4.2-1.9,4.2-4.2S26.3,18.2,24,18.2L24,18.2z"/>
</g>
<g>
	<circle fill="#ABB7C5" cx="-13.5" cy="19.4" r="3.2"/>
	<path fill="#FFFFFF" d="M-13.5,17.2c1.2,0,2.2,1,2.2,2.2s-1,2.2-2.2,2.2s-2.2-1-2.2-2.2S-14.7,17.2-13.5,17.2 M-13.5,15.2
		c-2.3,0-4.2,1.9-4.2,4.2s1.9,4.2,4.2,4.2s4.2-1.9,4.2-4.2S-11.2,15.2-13.5,15.2L-13.5,15.2z"/>
</g>
<polyline fill="none" stroke="#ABB7C5" stroke-width="2" stroke-linecap="round" stroke-linejoin="round" stroke-miterlimit="10" points="-25,-2.8 -21.1,-6.7 -17.3,-2.8 "/>
<polyline fill="none" stroke="#ABB7C5" stroke-width="2" stroke-linecap="round" stroke-linejoin="round" stroke-miterlimit="10" points="-3.6,29.7 -21.1,29.7 -21.1,28.7 -21.1,-6.3 "/>
<line fill="none" stroke="#ABB7C5" stroke-width="2" stroke-linecap="round" stroke-linejoin="round" stroke-miterlimit="10" x1="34.8" y1="29.7" x2="11.3" y2="29.7"/>
<line fill="none" stroke="#ABB7C5" stroke-width="2" stroke-linecap="round" stroke-linejoin="round" stroke-miterlimit="10" x1="59.9" y1="29.7" x2="49.4" y2="29.7"/>
<polyline fill="none" stroke="#ABB7C5" stroke-width="2" stroke-linecap="round" stroke-linejoin="round" stroke-miterlimit="10" points="57.2,25.8 61,29.7 57.2,33.5 "/>
<path fill="#ABB7C5" d="M44.9,38.7c-0.4,0.4-0.4,1,0,1.4l2.1,2.1c0.2,0.2,0.5,0.3,0.7,0.3c0.3,0,0.5-0.1,0.7-0.3c0.4-0.4,0.4-1,0-1.4
	l-2.1-2.1C45.9,38.3,45.3,38.3,44.9,38.7"/>
<path fill="#ABB7C5" d="M59.7,54.1c0,1.3-0.5,2.6-1.5,3.5c-1,1-2.3,1.5-3.5,1.5s-2.6-0.5-3.5-1.5L39.3,45.8c-0.4-0.4-0.4-1,0-1.4
	c0.4-0.4,1-0.4,1.4,0l11.9,11.9c1.2,1.2,3.1,1.2,4.2,0c0.6-0.6,0.9-1.3,0.9-2.1c0-0.8-0.3-1.6-0.9-2.1l-6.3-6.3l-2.1,2.1
	c-0.4,0.4-1,0.4-1.4,0c-0.4-0.4-0.4-1,0-1.4l2.8-2.8c0.2-0.2,0.4-0.3,0.7-0.3h0c0.3,0,0.5,0.1,0.7,0.3l7,7
	C59.1,51.5,59.7,52.8,59.7,54.1"/>
</svg>
