<svg xmlns="http://www.w3.org/2000/svg" viewBox="-1.3 -1.5 96 85" width="170" height="148">
<path fill="#ABB7C5" d="M43.1,63.1C50,71,61.1,73.4,70.7,69.2c0.5-0.2,0.7-0.8,0.5-1.3c-0.2-0.5-0.8-0.7-1.3-0.5
	c-8.8,3.9-19,1.6-25.3-5.6c-8-9.1-7.2-23,1.9-31.1s23-7.2,31.1,1.9c6.4,7.2,7.3,17.6,2.4,25.8c-0.3,0.5-0.1,1.1,0.3,1.4
	c0.5,0.3,1.1,0.1,1.4-0.3c5.4-9,4.3-20.3-2.6-28.2c-8.8-9.9-24-10.9-33.9-2.1S34.3,53.2,43.1,63.1"/>
<path fill="#ABB7C5" d="M42.1,45.8c-0.6,0-1,0.4-1,1c-0.1,3.2,0.6,6.5,2.1,9.4C48,66,60,70.1,69.9,65.2c9.9-4.9,14-16.9,9.1-26.8
	c-3.6-7.4-11.3-11.7-19.6-11.1c-0.5,0-1,0.5-0.9,1.1c0,0.6,0.5,1,1.1,0.9c7.4-0.6,14.3,3.3,17.6,10c4.4,8.9,0.7,19.7-8.2,24.1
	s-19.7,0.7-24.1-8.2c-1.3-2.6-1.9-5.5-1.9-8.4C43.1,46.3,42.6,45.8,42.1,45.8"/>
<path fill="#ABB7C5" d="M79.9,62.7c-0.4,0.4-0.4,1,0,1.4l2.1,2.1c0.2,0.2,0.5,0.3,0.7,0.3c0.3,0,0.5-0.1,0.7-0.3c0.4-0.4,0.4-1,0-1.4
	l-2.1-2.1C80.9,62.3,80.3,62.3,79.9,62.7"/>
<path fill="#ABB7C5" d="M94.6,78.1c0,1.3-0.5,2.6-1.5,3.5c-1,1-2.3,1.5-3.5,1.5s-2.6-0.5-3.5-1.5L74.3,69.8c-0.4-0.4-0.4-1,0-1.4
	c0.4-0.4,1-0.4,1.4,0l11.9,11.8c1.2,1.2,3.1,1.2,4.2,0c0.6-0.6,0.9-1.3,0.9-2.1c0-0.8-0.3-1.6-0.9-2.1l-6.3-6.3l-2.1,2.1
	c-0.4,0.4-1,0.4-1.4,0c-0.4-0.4-0.4-1,0-1.4l2.8-2.8c0.2-0.2,0.4-0.3,0.7-0.3h0c0.3,0,0.5,0.1,0.7,0.3l7,7
	C94.1,75.5,94.6,76.8,94.6,78.1"/>
<path fill="none" stroke="#ABB7C5" stroke-width="2" stroke-linecap="round" stroke-linejoin="round" stroke-miterlimit="10" d="M40.1,69.1c-1.7,0.3-3.5,0.4-5.3,0.4C15.6,69.5,0,54,0,34.8S15.6,0,34.8,0c13.4,0,25.1,7.6,30.9,18.8"/>
<path fill="none" stroke="#ABB7C5" stroke-width="2" stroke-linecap="round" stroke-linejoin="round" stroke-miterlimit="10" d="M69.3,38.7c-1,8.8-5.3,16.6-11.6,22.2"/>
<polyline fill="none" stroke="#ABB7C5" stroke-width="2" stroke-linecap="round" stroke-linejoin="round" stroke-miterlimit="10" points="10.1,10.5 34.8,34.8 0.8,27.4 "/>
<line fill="none" stroke="#ABB7C5" stroke-width="2" stroke-linecap="round" stroke-linejoin="round" stroke-miterlimit="10" x1="45.9" y1="39.2" x2="66.2" y2="49.1"/>
<line fill="none" stroke="#ABB7C5" stroke-width="2" stroke-linecap="round" stroke-linejoin="round" stroke-miterlimit="10" x1="25.1" y1="1.4" x2="34.8" y2="34.8"/>
<polyline fill="none" stroke="#ABB7C5" stroke-width="2" stroke-linecap="round" stroke-linejoin="round" stroke-miterlimit="10" points="11.6,60.7 34.8,34.8 18.5,65.4 "/>
</svg>
