<svg xmlns="http://www.w3.org/2000/svg" viewBox="487.4 683 74 74" width="32" height="32">
<path d="M526.2,708.7c0,0.1,0,0.2,0,0.3c0,7-11,20.1-12.2,21.5l-1.5,1.7l-1.5-1.7c-0.8-0.9-5-5.9-8.3-11.4v28.6l9.4,6
	l23.3-45H526.2L526.2,708.7z"/>
<path d="M499,708.7h-9.2l4.5,29l13.3,9l7.8-12l7-6.6v-9c-3.3,5.4-7.5,10.5-8.3,11.4l-1.5,1.7l-1.5-1.7
	C509.9,729,499,716,499,709C499,708.9,499,708.8,499,708.7L499,708.7z"/>
<polygon points="544,748.9 528.2,740.5 520.6,754.6 "/>
<polygon points="545.2,708.7 532.2,732.9 551.8,743.4 555.8,720.5 551.8,708.7 "/>
<path d="M512.5,725.5c0,0,9.8-11.4,9.8-16.8c0-5.4-4.4-9.8-9.8-9.8c-5.4,0-9.8,4.4-9.8,9.8
	C502.7,714.1,512.5,725.5,512.5,725.5z M512.5,702.7c2.1,0,3.8,1.7,3.8,3.8c0,2.1-1.7,3.8-3.8,3.8s-3.8-1.7-3.8-3.8
	C508.7,704.5,510.4,702.7,512.5,702.7z"/>
<path d="M524.4,687.2c18.1,0,32.8,14.7,32.8,32.8s-14.7,32.8-32.8,32.8c-18.1,0-32.8-14.7-32.8-32.8
	S506.3,687.2,524.4,687.2 M524.4,683.1c-20.4,0-36.9,16.5-36.9,36.9s16.5,36.9,36.9,36.9s36.9-16.5,36.9-36.9
	S544.8,683.1,524.4,683.1L524.4,683.1z"/>
<path fill="#FFF" d="M524.4,687.2c-18.1,0-32.8,14.7-32.8,32.8s14.7,32.8,32.8,32.8c18.1,0,32.8-14.7,32.8-32.8
	S542.5,687.2,524.4,687.2z M524.4,748.7c-15.8,0-28.7-12.8-28.7-28.7s12.8-28.7,28.7-28.7s28.7,12.8,28.7,28.7
	S540.3,748.7,524.4,748.7z"/>
</svg>
