<svg xmlns="http://www.w3.org/2000/svg" viewBox="2288.9 529.6 74 74" width="74" height="74">
<path d="M2302.5,552.5c-1.9,0-4.2,0-6.1,0c0,3.7,0,30,0,33.7c1.9,0,4.2,0,6.1,0C2302.5,582.5,2302.5,556.1,2302.5,552.5
	z"/>
<path d="M2319.5,552.5c-1.3,0-3.2,0-5.1,0c0,4.7,0,38.6,0,43.3c1.9,0,3.7,0,5.1,0C2319.5,591,2319.5,557.2,2319.5,552.5
	z"/>
<path d="M2338.3,552.5c-1.9,0-3.2,0-4.5,0c0,4.7,0,38.6,0,43.3c1.3,0,2.7,0,4.5,0C2338.3,591,2338.3,557.2,2338.3,552.5
	z"/>
<path d="M2355.3,552.5c-0.8,0-2.4,0-3.2,0c0,3.7,0,30,0,33.7c0.8,0,2.4,0,3.2,0C2355.3,582.5,2355.3,556.1,2355.3,552.5
	z"/>
<path d="M2344.7,552.5c-1.3,0-2.2,0-3.7,0c0,4.7,0,38.6,0,43.3c1.5,0,2.4,0,3.7,0C2344.7,591,2344.7,557.2,2344.7,552.5
	z"/>
<path d="M2308.9,552.5c-0.8,0-1.9,0-2.7,0c0,4.7,0,38.6,0,43.3c0.8,0,1.9,0,2.7,0C2308.9,591,2308.9,557.2,2308.9,552.5
	z"/>
<path d="M2325,552.5c-1,0-1.9,0-2.9,0c0,4.7,0,38.6,0,43.3c1,0,1.9,0,2.9,0C2325,591,2325,557.2,2325,552.5z"/>
<path d="M2330.4,552.5c-0.8,0-1.7,0-2.2,0c0,4.7,0,38.6,0,43.3c0.8,0,1.3,0,2.2,0C2330.4,591,2330.4,557.2,2330.4,552.5
	z"/>
<path d="M2349.4,552.5c-0.5,0-1,0-1.5,0c0,4.4,0,36.2,0,40.6c0.5,0,1,0,1.5,0C2349.4,588.6,2349.4,556.9,2349.4,552.5z"
	/>
<path d="M2325.8,533.7c18.1,0,32.8,14.7,32.8,32.8c0,18.1-14.7,32.8-32.8,32.8s-32.8-14.7-32.8-32.8
	C2293,548.3,2307.7,533.7,2325.8,533.7 M2325.8,529.6c-20.4,0-36.9,16.5-36.9,36.9c0,20.4,16.5,36.9,36.9,36.9s36.9-16.5,36.9-36.9
	C2362.6,546,2346.2,529.6,2325.8,529.6L2325.8,529.6z"/>
<path fill="#FFFFFF" d="M2325.8,533.7c-18.1,0-32.8,14.7-32.8,32.8c0,18.1,14.7,32.8,32.8,32.8s32.8-14.7,32.8-32.8
	C2358.5,548.3,2343.9,533.7,2325.8,533.7z M2325.8,595.1c-15.8,0-28.7-12.8-28.7-28.7c0-15.8,12.8-28.7,28.7-28.7
	s28.7,12.8,28.7,28.7C2354.5,582.3,2341.6,595.1,2325.8,595.1z"/>
</svg>
