<svg xmlns="http://www.w3.org/2000/svg" viewBox="0 0 24 20" width="24" height="24">
<path d="M0,7.9l3.6-2.1l7.9,4.6l-3.6,2.1L0,7.9z M11.7,20l-7.9-4.6v-4.6L7.7,13c0,0,0.1,0,0.1,0c0,0,0.1,0,0.1,0
	l3.7-2.2L11.7,20z M20.1,15.4L12.3,20l0-9.1L16,13c0.1,0.1,0.2,0.1,0.3,0l3.9-2.3L20.1,15.4z M24,7.9l-7.9,4.6l-3.6-2.1l7.9-4.6"/>
<g>
	<path d="M16.8,3.8C17,3.3,17.1,3,17.4,2.7c1.3-2.1,4.5-2.3,4.5-2.3c-3.9-1.5-7.3,2.4-7.3,2.4l-1.8-0.9l0.8,5.8l5-3
		L16.8,3.8z"/>
</g>
<g>
	<path d="M7.6,3.8C7.3,3.3,7.2,3,7,2.7C5.6,0.5,2.5,0.3,2.5,0.3c3.9-1.5,7.3,2.4,7.3,2.4l1.8-0.9l-0.8,5.8l-5-3
		L7.6,3.8z"/>
</g>
</svg>
