<svg xmlns="http://www.w3.org/2000/svg" viewBox="0 0 60 60" width="100" height="100">
<path d="M17.7,43.3c-0.4-0.4-1-0.4-1.4,0L15,44.6l-1.3-1.3c-0.4-0.4-1-0.4-1.4,0s-0.4,1,0,1.4l1.3,1.3l-1.3,1.3
	c-0.4,0.4-0.4,1,0,1.4c0.2,0.2,0.5,0.3,0.7,0.3s0.5-0.1,0.7-0.3l1.3-1.3l1.3,1.3c0.2,0.2,0.5,0.3,0.7,0.3s0.5-0.1,0.7-0.3
	c0.4-0.4,0.4-1,0-1.4L16.4,46l1.3-1.3C18.1,44.3,18.1,43.7,17.7,43.3L17.7,43.3z M27.7,43.3c-0.4-0.4-1-0.4-1.4,0L25,44.6
	l-1.3-1.3c-0.4-0.4-1-0.4-1.4,0c-0.4,0.4-0.4,1,0,1.4l1.3,1.3l-1.3,1.3c-0.4,0.4-0.4,1,0,1.4c0.2,0.2,0.5,0.3,0.7,0.3
	s0.5-0.1,0.7-0.3l1.3-1.3l1.3,1.3c0.2,0.2,0.5,0.3,0.7,0.3s0.5-0.1,0.7-0.3c0.4-0.4,0.4-1,0-1.4L26.4,46l1.3-1.3
	C28.1,44.3,28.1,43.7,27.7,43.3L27.7,43.3z M47.7,33.3c-0.4-0.4-1-0.4-1.4,0L45,34.6l-1.3-1.3c-0.4-0.4-1-0.4-1.4,0s-0.4,1,0,1.4
	l1.3,1.3l-1.3,1.3c-0.4,0.4-0.4,1,0,1.4c0.2,0.2,0.5,0.3,0.7,0.3s0.5-0.1,0.7-0.3l1.3-1.3l1.3,1.3c0.2,0.2,0.5,0.3,0.7,0.3
	s0.5-0.1,0.7-0.3c0.4-0.4,0.4-1,0-1.4L46.4,36l1.3-1.3C48.1,34.3,48.1,33.7,47.7,33.3L47.7,33.3z M37.7,23.3c-0.4-0.4-1-0.4-1.4,0
	L35,24.6l-1.3-1.3c-0.4-0.4-1-0.4-1.4,0c-0.4,0.4-0.4,1,0,1.4l1.3,1.3l-1.3,1.3c-0.4,0.4-0.4,1,0,1.4c0.2,0.2,0.5,0.3,0.7,0.3
	s0.5-0.1,0.7-0.3l1.3-1.3l1.3,1.3c0.2,0.2,0.5,0.3,0.7,0.3s0.5-0.1,0.7-0.3c0.4-0.4,0.4-1,0-1.4L36.4,26l1.3-1.3
	C38.1,24.3,38.1,23.7,37.7,23.3L37.7,23.3z M44,27h2v-2h-2V27z M48,28c0,0.6-0.4,1-1,1h-4c-0.6,0-1-0.4-1-1v-4c0-0.6,0.4-1,1-1h4
	c0.6,0,1,0.4,1,1V28z M34,47h2v-2h-2V47z M38,44v4c0,0.6-0.4,1-1,1h-4c-0.6,0-1-0.4-1-1v-4c0-0.6,0.4-1,1-1h4
	C37.6,43,38,43.4,38,44L38,44z M34,37h2v-2h-2V37z M38,38c0,0.6-0.4,1-1,1h-4c-0.6,0-1-0.4-1-1v-4c0-0.6,0.4-1,1-1h4
	c0.6,0,1,0.4,1,1V38z M24,37h2v-2h-2V37z M28,38c0,0.6-0.4,1-1,1h-4c-0.6,0-1-0.4-1-1v-4c0-0.6,0.4-1,1-1h4c0.6,0,1,0.4,1,1V38z
	 M24,27h2v-2h-2V27z M28,28c0,0.6-0.4,1-1,1h-4c-0.6,0-1-0.4-1-1v-4c0-0.6,0.4-1,1-1h4c0.6,0,1,0.4,1,1V28z M14,37h2v-2h-2V37z
	 M18,38c0,0.6-0.4,1-1,1h-4c-0.6,0-1-0.4-1-1v-4c0-0.6,0.4-1,1-1h4c0.6,0,1,0.4,1,1V38z M14,27h2v-2h-2V27z M18,28
	c0,0.6-0.4,1-1,1h-4c-0.6,0-1-0.4-1-1v-4c0-0.6,0.4-1,1-1h4c0.6,0,1,0.4,1,1V28z M44,7c0,0.6,0.4,1,1,1s1-0.4,1-1V3
	c0-0.6-0.4-1-1-1s-1,0.4-1,1V7z M42,7V3c0-1.7,1.3-3,3-3s3,1.3,3,3v4c0,1.7-1.3,3-3,3S42,8.7,42,7L42,7z M34,7c0,0.6,0.4,1,1,1
	s1-0.4,1-1V3c0-0.6-0.4-1-1-1s-1,0.4-1,1V7z M32,7V3c0-1.7,1.3-3,3-3s3,1.3,3,3v4c0,1.7-1.3,3-3,3S32,8.7,32,7L32,7z M24,7
	c0,0.6,0.4,1,1,1s1-0.4,1-1V3c0-0.6-0.4-1-1-1s-1,0.4-1,1V7z M22,7V3c0-1.7,1.3-3,3-3s3,1.3,3,3v4c0,1.7-1.3,3-3,3S22,8.7,22,7
	L22,7z M14,7c0,0.6,0.4,1,1,1s1-0.4,1-1V3c0-0.6-0.4-1-1-1s-1,0.4-1,1V7z M12,7V3c0-1.7,1.3-3,3-3s3,1.3,3,3v4c0,1.7-1.3,3-3,3
	S12,8.7,12,7L12,7z M48.3,54.3c-0.4,0.4-0.4,1,0,1.4c0.2,0.2,0.5,0.3,0.7,0.3s0.5-0.1,0.7-0.3l6-6c0.2-0.2,0.3-0.4,0.3-0.7V17
	c0-0.6-0.4-1-1-1H5c-0.6,0-1,0.4-1,1v35c0,2.2,1.8,4,4,4h37c0.6,0,1-0.4,1-1v-6c0-0.5,0.4-1,1-1h4c0.6,0,1-0.4,1-1s-0.4-1-1-1h-4
	c-1.6,0-3,1.4-3,3v5H8c-1.1,0-2-0.9-2-2V18h48v30.6L48.3,54.3z M55,2h-4c-0.6,0-1,0.4-1,1s0.4,1,1,1h4c1.5,0,3,1.5,3,3v48
	c0,1.5-1.5,3-3,3H5c-1.5,0-3-1.5-3-3V14h53c0.6,0,1-0.4,1-1s-0.4-1-1-1H1c-0.6,0-1,0.4-1,1v42c0,2.6,2.4,5,5,5h50c2.6,0,5-2.4,5-5
	V7C60,4.4,57.6,2,55,2L55,2z M0,9V7c0-2.6,2.4-5,5-5h4c0.6,0,1,0.4,1,1S9.6,4,9,4H5C3.5,4,2,5.5,2,7v2c0,0.6-0.4,1-1,1S0,9.6,0,9
	L0,9z"/>
</svg>
