<svg xmlns="http://www.w3.org/2000/svg" viewBox="-298 388 14 17" width="14" height="17">
<g transform="translate(-266.66383,-76.760125)">
	<path id="path3833-1" d="M-25.1,467.9C-25.2,467.9-25.2,467.9-25.1,467.9h-5.6c-0.3,0-0.6,0.3-0.6,0.6v12.7c0,0.3,0.3,0.6,0.6,0.6
		h9.6c0.3,0,0.6-0.3,0.6-0.6v-8.6c0-0.2-0.1-0.5-0.2-0.6l-3.9-3.9C-24.7,468-24.9,467.9-25.1,467.9z M-30.1,469.1h4.4v3.3
		c0,0.2,0,0.4,0.2,0.5l0,0l0,0c0.1,0.1,0.3,0.2,0.5,0.2h3.3v7.5h-8.4V469.1z M-24.5,470l1.9,1.9h-1.9V470z"/>
</g>
<path d="M-288.7,388L-288.7,388h-5.6c-0.1,0-0.3,0.1-0.4,0.2s-0.2,0.3-0.2,0.4v1.7h1.2v-1h4.4v2.5l1.5,1.5h2.5v7.5
	h-1.1v1.2h1.7c0.2,0,0.3-0.1,0.4-0.2s0.2-0.3,0.2-0.4v-8.6c0-0.2-0.1-0.5-0.2-0.6l-3.9-4C-288.3,388.1-288.5,388-288.7,388
	L-288.7,388z M-288,390.1l1.9,1.9h-1.9V390.1z"/>
</svg>
