<svg xmlns="http://www.w3.org/2000/svg" viewBox="182.8 0 477 477" width="18" height="18">
<path d="M420.9,0C289.5,0,182.8,106.7,182.8,238.1s106.7,238.1,238.1,238.1s238.1-106.7,238.1-238.1S552.4,0,420.9,0z M446.2,354.3
	V370c0,8.1-6.2,14.3-14.3,14.3h-18.6c-8.1,0-14.3-6.2-14.3-14.3v-15.2c-34.8-5.2-62.4-22.9-75.2-48.6c-3.3-7.1-0.5-15.2,6.2-19
	l17.6-9c3.3-1.9,7.1-1.9,11-1c3.8,1.4,6.7,3.8,8.1,7.1c8.6,17.6,35.2,23.8,55.2,23.8c11,0,47.6-1.9,47.6-23.8
	c0-13.8-17.1-19.5-51.9-26.2c-34.3-5.7-87.1-14.3-88.6-67.6c-1-41.9,34.8-62.4,70-68.6v-15.7c0-8.1,6.2-14.3,14.3-14.3h19
	c8.1,0,14.3,6.2,14.3,14.3v15.7c29,5.2,51,20,62.9,42.4c3.8,7.1,1,15.7-5.7,19l-16.7,9c-7.1,3.8-15.7,1-19-5.7
	c-7.1-13.8-28.1-20-45.2-20.5c-17.6,0-33.3,4.8-40.5,11.9c-2.9,3.3-4.3,6.7-4.3,11c0,9,7.6,14.8,48.1,21.9
	c37.1,6.7,93.3,16.2,93.3,73.3C518.6,325.7,484.3,348.6,446.2,354.3z"/>
</svg>
