<svg xmlns="http://www.w3.org/2000/svg" viewBox="0 0 72 57" width="18" height="14">
<g>
	<path d="M65.6,56.6c1.6,0,3-0.5,4.2-1.6L49.4,34.6c-0.5,0.4-1,0.7-1.4,1c-1.5,1.1-2.8,2-3.7,2.6
		c-1,0.6-2.2,1.3-3.8,1.9c-1.6,0.7-3.1,1-4.4,1H36c-1.4,0-2.8-0.3-4.4-1c-1.6-0.7-2.8-1.3-3.8-1.9c-0.9-0.6-2.2-1.5-3.7-2.6
		c-0.4-0.3-0.9-0.7-1.4-1L2.2,55c1.2,1.1,2.6,1.6,4.2,1.6H65.6z M65.6,56.6"/>
	<path d="M4.1,21.7c-1.5-1-2.9-2.2-4.1-3.5v31l18-18C14.4,28.8,9.7,25.6,4.1,21.7L4.1,21.7z M4.1,21.7"/>
	<path d="M68,21.7c-5.5,3.7-10.1,6.9-14,9.6l18,18v-31C70.8,19.5,69.5,20.7,68,21.7L68,21.7z M68,21.7"/>
	<path d="M65.6,0H6.4C4.4,0,2.8,0.7,1.7,2.1C0.6,3.5,0,5.2,0,7.3c0,1.7,0.7,3.5,2.2,5.5c1.5,2,3,3.5,4.7,4.6
		c0.9,0.6,3.7,2.6,8.2,5.7c2.5,1.7,4.6,3.2,6.5,4.5c1.6,1.1,2.9,2,4.1,2.8c0.1,0.1,0.3,0.2,0.6,0.4c0.3,0.2,0.7,0.5,1.1,0.8
		c0.9,0.6,1.6,1.1,2.2,1.5c0.6,0.4,1.3,0.8,2.1,1.3c0.8,0.5,1.6,0.8,2.3,1.1c0.7,0.2,1.4,0.4,2,0.4H36c0.6,0,1.3-0.1,2-0.4
		c0.7-0.2,1.5-0.6,2.3-1.1c0.8-0.5,1.5-0.9,2.1-1.3c0.6-0.4,1.3-0.9,2.2-1.5c0.4-0.3,0.8-0.6,1.1-0.8c0.3-0.2,0.5-0.3,0.6-0.4
		c0.9-0.6,2.2-1.6,4.1-2.8c3.3-2.3,8.2-5.7,14.7-10.2c2-1.4,3.6-3,4.9-4.9c1.3-1.9,2-4,2-6.1c0-1.8-0.6-3.3-1.9-4.5
		C68.8,0.6,67.3,0,65.6,0L65.6,0z M65.6,0"/>
</g>
</svg>
