<svg xmlns="http://www.w3.org/2000/svg" viewBox="0 0 60 60" width="100" height="100">
<path d="M55.6,52.2c0.4,0.3,0.5,1,0.2,1.4C55.6,53.9,55.3,54,55,54c-0.2,0-0.4-0.1-0.6-0.2l-14-11
	c-0.4-0.3-0.5-1-0.2-1.4c0.3-0.4,1-0.5,1.4-0.2L55.6,52.2z M19.8,41.4c0.3,0.4,0.3,1.1-0.2,1.4l-14,11C5.4,53.9,5.2,54,5,54
	c-0.3,0-0.6-0.1-0.8-0.4c-0.3-0.4-0.3-1.1,0.2-1.4l14-11C18.8,40.9,19.4,40.9,19.8,41.4L19.8,41.4z M55.6,27.8l-22,16.7
	C33.5,44.7,31.8,46,30,46c-1.8,0-3.5-1.4-3.6-1.5l-22-16.7c-0.4-0.3-0.5-1-0.2-1.4c0.3-0.4,1-0.5,1.4-0.2l22,16.7
	C28,43.2,29.1,44,30,44c0.9,0,2.1-0.7,2.4-1l22-16.8c0.4-0.3,1.1-0.2,1.4,0.2C56.1,26.8,56,27.5,55.6,27.8L55.6,27.8z M58,55
	c0,1.7-1.3,3-3,3H5c-1.7,0-3-1.3-3-3V23c0-2.3,0.9-4.2,2.6-5.2l22-14.7c0,0,1.8-1.1,3.4-1.1c1.7,0,3.4,1.1,3.4,1.1l22.1,14.8
	c2.1,1.3,2.5,3.5,2.5,5.1V55z M56.6,16.2L34.5,1.4C34.4,1.3,32.3,0,30,0c-2.3,0-4.4,1.4-4.5,1.4l-22,14.7C1.3,17.5,0,20,0,23v32
	c0,2.8,2.2,5,5,5h50c2.8,0,5-2.2,5-5V23C60,20,58.8,17.5,56.6,16.2L56.6,16.2z"/>
</svg>
