<svg xmlns="http://www.w3.org/2000/svg" viewBox="2541.8 529.6 74 74" width="74" height="74">
<g>
	<g>
		<path d="M2584.7,545.7h-12.1v48.4h12.1V545.7z M2602.9,569.9h-12.1v24.2h12.1V569.9z M2554.5,560.8v33.3h12.1v-33.3
			H2554.5z"/>
	</g>
</g>
<path d="M2578.7,533.7c18.1,0,32.8,14.7,32.8,32.8c0,18.1-14.7,32.8-32.8,32.8s-32.8-14.7-32.8-32.8
	C2545.9,548.3,2560.6,533.7,2578.7,533.7 M2578.7,529.6c-20.4,0-36.9,16.5-36.9,36.9c0,20.4,16.5,36.9,36.9,36.9
	s36.9-16.5,36.9-36.9C2615.5,546,2599.1,529.6,2578.7,529.6L2578.7,529.6z"/>
<path fill="#FFFFFF" d="M2578.7,533.7c-18.1,0-32.8,14.7-32.8,32.8c0,18.1,14.7,32.8,32.8,32.8s32.8-14.7,32.8-32.8
	C2611.4,548.3,2596.8,533.7,2578.7,533.7z M2578.7,595.1c-15.8,0-28.7-12.8-28.7-28.7c0-15.8,12.8-28.7,28.7-28.7
	s28.7,12.8,28.7,28.7C2607.4,582.3,2594.5,595.1,2578.7,595.1z"/>
</svg>
