<svg xmlns="http://www.w3.org/2000/svg" viewBox="0 0 237 270" width="20" height="22">
<path d="M117.3,12.8l102.4,58.3l-99.4,57.1L16.7,70.5L117.3,12.8z M117.3,270.9c1.8,1.2,4.2,1.2,6,0l28-16.7l83.3-48.5
	c1.8-1.2,3-3,3-4.8v-77.7V70.8c0-2.4-1.2-4.2-3-4.8L120.2,0.9c-1.8-1.2-4.2-1.2-6,0l-28,16.7L3,66.1c-1.8,1.2-3,3-3,4.8l0,77.7v52.4
	c0,2.4,1.2,4.2,3,4.8L117.3,270.9z M82.1,161c-1.2,1.8-3,3-4.8,3c-1.2,0-1.8,0-3-0.6l-26.2-14.9c-3-1.8-3.6-5.4-2.4-7.7
	c1.8-3,5.4-3.6,7.7-2.4l26.2,14.9C83.3,154.5,83.9,158,82.1,161z"/>
</svg>
