<svg xmlns="http://www.w3.org/2000/svg" viewBox="0 0 33 20" width="33" height="20">
<g>
	<path d="M2,2h18v5.6l2-2V2c0-1.1-0.9-2-2-2H2C0.9,0,0,0.9,0,2v12c0,1.1,0.9,2,2,2h7v2H4v2h8.2v-3.8v-0.8l0.6-0.6
		l0.8-0.8H2V2z"/>
	<polygon points="22,8.5 20,10.5 16.5,14 14.5,16 14.2,16.2 14.2,18 14.2,20 15,20 18,20 29,8.9 25.3,5.2 	"/>
	<path d="M31.9,4.6l-2.3-2.3C29.4,2.1,29.1,2,28.9,2c-0.1,0-0.3,0-0.4,0.1c-0.1,0-0.2,0.1-0.3,0.2l-1.8,1.8l3.8,3.8
		L32,6.1c0.2-0.2,0.3-0.4,0.3-0.6c0,0,0,0,0-0.1C32.2,5.1,32.1,4.8,31.9,4.6z"/>
</g>
</svg>
