<svg xmlns="http://www.w3.org/2000/svg" viewBox="0 0 26 26" width="26" height="26">
<path d="M13,23.1c3,0,5.6-1.3,7.5-3.3V11l-5.6-5.6H7.4c-1,0-1.9,0.8-1.9,1.9l0,12.5C7.4,21.8,10,23.1,13,23.1z
	 M13.9,6.8l5.1,5.1h-5.1V6.8z M9.3,14.8h7.5v1.9H9.3V14.8z M9.3,18.5h7.5v1.9H9.3V18.5z"/>
<path d="M1.4,13C1.4,6.6,6.6,1.4,13,1.4c0,0,0,0,0,0C6.6,1.4,1.4,6.6,1.4,13c0,3.5,1.6,6.7,4.1,8.8v0
	C3,19.7,1.4,16.5,1.4,13z"/>
<path d="M13,0C5.8,0,0,5.8,0,13c0,7.2,5.8,13,13,13c7.2,0,13-5.8,13-13C26,5.8,20.2,0,13,0z M20.5,21.8L20.5,21.8
	c-1.2,1.1-2.7,1.8-4.3,2.3c-1,0.3-2.1,0.4-3.2,0.4c-1.1,0-2.2-0.2-3.2-0.4c-1.6-0.5-3.1-1.3-4.3-2.3v0C3,19.7,1.4,16.5,1.4,13
	C1.4,6.6,6.6,1.4,13,1.4c0,0,0,0,0,0s0,0,0,0c6.4,0,11.6,5.2,11.6,11.6C24.6,16.5,23,19.7,20.5,21.8z"/>
</svg>
