<svg xmlns="http://www.w3.org/2000/svg" viewBox="0 0 74 74" width="74" height="74">
<path d="M10.4,29.4v30.1l3.6,4.2l22.5,6l22.9-6V19.6H34.9v9.8H10.4z M49.6,53.9h4.9v4.9h-4.9V53.9z M49.6,44.1h4.9V49
	h-4.9V44.1z M49.6,34.3h4.9v4.9h-4.9V34.3z M49.6,24.5h4.9v4.9h-4.9V24.5z M39.8,53.9h4.9v4.9h-4.9V53.9z M39.8,44.1h4.9V49h-4.9
	V44.1z M39.8,34.3h4.9v4.9h-4.9V34.3z M39.8,24.5h4.9v4.9h-4.9V24.5z M15.3,34.3h19.6v4.9H30v4.9h4.9V49H30v4.9h4.9v4.9H15.3V34.3z
	 M20.2,44.1h4.9v-4.9h-4.9V44.1z M20.2,53.9h4.9V49h-4.9V53.9z"/>
<path d="M36.9,4.1c18.1,0,32.8,14.7,32.8,32.8S54.9,69.6,36.9,69.6S4.1,54.9,4.1,36.9S18.8,4.1,36.9,4.1 M36.9,0
	C16.5,0,0,16.5,0,36.9s16.5,36.9,36.9,36.9s36.9-16.5,36.9-36.9S57.2,0,36.9,0L36.9,0z"/>
<path fill="#FFFFFF" d="M36.9,4.1C18.8,4.1,4.1,18.8,4.1,36.9s14.7,32.8,32.8,32.8s32.8-14.7,32.8-32.8S54.9,4.1,36.9,4.1z M36.9,65.5
	C21,65.5,8.2,52.7,8.2,36.9S21,8.2,36.9,8.2S65.5,21,65.5,36.9S52.7,65.5,36.9,65.5z"/>
</svg>
