<svg xmlns="http://www.w3.org/2000/svg" viewBox="0 0 32 32" width="32" height="32">
<g>
	<path d="M8,9.5v11.8c0,1.4,1.2,2.6,2.6,2.6c1.4,0,2.6-1.2,2.6-2.6V9.5c0-1.4-1.2-2.6-2.6-2.6C9.2,6.9,8,8,8,9.5z"/>
</g>
<path d="M27.6,9.3c0.6,0,1.2,0.5,1.2,1.2v12L24.8,27L15,30.6L5.8,27l-4-8.5l2.2-8.1c0-0.6,0.5-1.2,1.2-1.2H7v12.2
	c0,2,1.6,3.7,3.7,3.7s3.7-1.6,3.7-3.7V9.3H27.6z M16.6,15.5h9.7v-3.9h-9.7V15.5z M16.6,18.7h2.1v-1.8h-2.1V18.7z M20.4,18.7h2.1
	v-1.8h-2.1V18.7z M24.3,18.7h2.1v-1.8h-2.1V18.7z M16.6,21.9h2.1v-1.8h-2.1V21.9z M20.4,21.9h2.1v-1.8h-2.1V21.9z M24.3,21.9h2.1
	v-1.8h-2.1V21.9z M16.6,25.2h2.1v-1.8h-2.1V25.2z M20.4,25.2h2.1v-1.8h-2.1V25.2z M24.3,25.2h2.1v-1.8h-2.1V25.2z"/>
<path d="M16,1.8c7.9,0,14.2,6.4,14.2,14.2S23.9,30.2,16,30.2S1.8,23.9,1.8,16S8.1,1.8,16,1.8 M16,0C7.1,0,0,7.1,0,16
	s7.1,16,16,16s16-7.1,16-16S24.9,0,16,0L16,0z"/>
<path fill="#FFFFFF" d="M16,1.8C8.1,1.8,1.8,8.1,1.8,16S8.1,30.2,16,30.2S30.2,23.9,30.2,16S23.9,1.8,16,1.8z M16,28.5
	C9.1,28.5,3.5,22.9,3.5,16S9.1,3.5,16,3.5S28.5,9.1,28.5,16S22.9,28.5,16,28.5z"/>
</svg>
