<svg xmlns="http://www.w3.org/2000/svg" viewBox="0 1.4 18 17" width="18" height="17">
<path d="M17.4,13.7C16,10.3,12.7,8.1,9,8.1c-4.3,0-8.1,3-9,7.2c-0.1,0.6,0,1.2,0.4,1.6c0.4,0.4,0.9,0.7,1.5,0.7h14.2
	c0.6,0,1.1-0.3,1.5-0.7c0.4-0.4,0.5-1,0.4-1.6C17.8,14.8,17.7,14.2,17.4,13.7z M9,15.2c-1.3,0-2.3-1-2.3-2.3s1-2.3,2.3-2.3
	s2.3,1,2.3,2.3S10.3,15.2,9,15.2z"/>
<path d="M1.9,7.3c0.4,0,0.7-0.1,1-0.3c1.8-1.2,3.9-1.8,6-1.8s4.2,0.6,6,1.8c0.9,0.6,2.1,0.3,2.6-0.6
	c0.6-0.9,0.3-2.1-0.6-2.6C14.7,2.2,11.9,1.4,9,1.4S3.3,2.2,0.9,3.8C0,4.4-0.3,5.6,0.3,6.5C0.7,7,1.3,7.3,1.9,7.3z"/>
</svg>
