<svg xmlns="http://www.w3.org/2000/svg" viewBox="0 0 32 32" width="32" height="32">
<path d="M16,1.8c7.9,0,14.2,6.4,14.2,14.2S23.9,30.2,16,30.2S1.8,23.9,1.8,16S8.1,1.8,16,1.8 M16,0C7.1,0,0,7.1,0,16
	s7.1,16,16,16s16-7.1,16-16S24.9,0,16,0L16,0z"/>
<path fill="#FFFFFF" d="M16,1.8C8.1,1.8,1.8,8.1,1.8,16S8.1,30.2,16,30.2S30.2,23.9,30.2,16S23.9,1.8,16,1.8z M16,28.5
	C9.1,28.5,3.5,22.9,3.5,16S9.1,3.5,16,3.5S28.5,9.1,28.5,16S22.9,28.5,16,28.5z"/>
<path d="M23.6,8c2.3,2.4,3.4,4.9,3.5,7.8c0,0.7-0.4,1.1-1,1.2c-0.7,0-1.2-0.4-1.2-1.1c0-1.5-0.4-2.8-1.1-4.1
	c-1.6-2.9-4.2-4.4-7.5-4.6c-0.4,0-0.7-0.1-1-0.4c-0.3-0.4-0.4-0.8-0.2-1.2c0.2-0.4,0.5-0.6,1-0.6c2.2,0,4.1,0.6,5.9,1.8
	C22.7,7.3,23.2,7.8,23.6,8z M16,9.2c-0.2,0-0.4,0-0.6,0.1c-0.5,0.2-0.7,0.8-0.6,1.3c0.1,0.5,0.5,0.8,1.1,0.8c1.2,0,2.3,0.4,3.2,1.2
	c1,0.9,1.5,2.1,1.5,3.4c0,0.2,0.1,0.5,0.2,0.7c0.3,0.4,0.8,0.5,1.3,0.3c0.4-0.2,0.7-0.5,0.7-1c0-1.9-0.7-3.5-2-4.9
	C19.5,9.9,17.9,9.2,16,9.2z M22.3,26c0.5-0.5,1-1,1.4-1.5c0.7-0.7,0.7-1.6,0-2.3c-0.8-0.9-1.7-1.7-2.5-2.5c-0.7-0.7-1.6-0.7-2.3,0
	c-0.5,0.5-1.1,1.1-1.6,1.6c0,0-0.1,0.1-0.1,0.1l-0.4,0.4c-0.1,0.1-0.2,0.1-0.3,0c-0.3-0.2-0.7-0.3-1-0.5c-1.5-1-2.8-2.2-4-3.6
	c-0.6-0.7-1.1-1.4-1.4-2.3c-0.1-0.1-0.1-0.2,0-0.3l0.4-0.4c0,0,0,0,0.1-0.1c0.2-0.2,0.3-0.3,0.5-0.5c0.4-0.4,0.7-0.7,1.1-1.1
	c0.7-0.7,0.7-1.6,0-2.3c-0.4-0.4-0.8-0.8-1.2-1.2C10.5,9,10.1,8.6,9.7,8.1C9,7.5,8.1,7.5,7.4,8.1c-0.5,0.5-1,1.1-1.6,1.6
	C5.3,10.2,5,10.8,5,11.5c-0.1,1.1,0.2,2.2,0.6,3.2c0.8,2.1,2,4,3.4,5.7c2,2.3,4.3,4.2,7,5.5c1.2,0.6,2.5,1.1,3.9,1.1
	C20.8,27,21.7,26.8,22.3,26z"/>
</svg>
