<svg xmlns="http://www.w3.org/2000/svg" viewBox="0 0 32 32" width="32" height="32">
<g>
	<path d="M17.7,30l-9.9-2.6c-1.2-0.3-1.9-1.6-1.6-2.8l5.5-21C12,2.4,13.2,1.7,14.4,2l9.9,2.6c1.2,0.3,1.9,1.6,1.6,2.8
		l-5.5,21C20.1,29.6,18.9,30.3,17.7,30z"/>
	<path d="M24.9,7.1c0.2-0.6-0.2-1.2-0.8-1.4l-9.9-2.6c-0.6-0.2-1.2,0.2-1.4,0.8l-0.6,2.2l12.1,3.2L24.9,7.1z"/>
	<rect x="9.8" y="8.6" transform="matrix(0.9669 0.2551 -0.2551 0.9669 4.607 -3.566)" fill="#FFFFFF" width="12.5" height="14.8"/>
	<path d="M19.9,25.9L7.8,22.7l-0.6,2.2c-0.2,0.6,0.2,1.2,0.8,1.4l9.9,2.6c0.6,0.2,1.2-0.2,1.4-0.8L19.9,25.9z"/>
	<circle fill="#FFFFFF" cx="13.4" cy="25.9" r="1.1"/>
	<path d="M13.6,9.4l1.1,0.3c0.3,0.1,0.5,0.4,0.4,0.7l-0.3,1.1c-0.1,0.3-0.4,0.5-0.7,0.4l-1.1-0.3
		c-0.3-0.1-0.5-0.4-0.4-0.7L13,9.9C13,9.5,13.3,9.4,13.6,9.4z"/>
	<path d="M12.6,13.3l1.1,0.3c0.3,0.1,0.5,0.4,0.4,0.7l-0.3,1.1c-0.1,0.3-0.4,0.5-0.7,0.4L12,15.5
		c-0.3-0.1-0.5-0.4-0.4-0.7l0.3-1.1C12,13.4,12.3,13.2,12.6,13.3z"/>
	<path d="M11.6,17.2l1.1,0.3c0.3,0.1,0.5,0.4,0.4,0.7l-0.3,1.1c-0.1,0.3-0.4,0.5-0.7,0.4L11,19.4
		c-0.3-0.1-0.5-0.4-0.4-0.7l0.3-1.1C11,17.3,11.3,17.1,11.6,17.2z"/>
	<path d="M17,10.3l1.1,0.3c0.3,0.1,0.5,0.4,0.4,0.7l-0.3,1.1c-0.1,0.3-0.4,0.5-0.7,0.4l-1.1-0.3
		c-0.3-0.1-0.5-0.4-0.4-0.7l0.3-1.1C16.3,10.4,16.7,10.2,17,10.3z"/>
	<path d="M15.9,14.2l1.1,0.3c0.3,0.1,0.5,0.4,0.4,0.7l-0.3,1.1c-0.1,0.3-0.4,0.5-0.7,0.4l-1.1-0.3
		c-0.3-0.1-0.5-0.4-0.4-0.7l0.3-1.1C15.3,14.3,15.6,14.1,15.9,14.2z"/>
	<path d="M14.9,18l1.1,0.3c0.3,0.1,0.5,0.4,0.4,0.7l-0.3,1.1c-0.1,0.3-0.4,0.5-0.7,0.4l-1.1-0.3
		c-0.3-0.1-0.5-0.4-0.4-0.7l0.3-1.1C14.3,18.1,14.6,18,14.9,18z"/>
	<path d="M20.3,11.2l1.1,0.3c0.3,0.1,0.5,0.4,0.4,0.7l-0.3,1.1c-0.1,0.3-0.4,0.5-0.7,0.4l-1.1-0.3
		c-0.3-0.1-0.5-0.4-0.4-0.7l0.3-1.1C19.6,11.3,20,11.1,20.3,11.2z"/>
	<path d="M19.2,15.1l1.1,0.3c0.3,0.1,0.5,0.4,0.4,0.7l-0.3,1.1c-0.1,0.3-0.4,0.5-0.7,0.4l-1.1-0.3
		c-0.3-0.1-0.5-0.4-0.4-0.7l0.3-1.1C18.6,15.2,18.9,15,19.2,15.1z"/>
	<path fill="#FFFFFF" d="M17.2,5.1l3.3,0.9C20.8,6,21,6.3,20.9,6.6c-0.1,0.3-0.4,0.5-0.7,0.4l-3.3-0.9c-0.3-0.1-0.5-0.4-0.4-0.7
		S16.9,5,17.2,5.1z"/>
</g>
<g>
	<path d="M16,1.8c7.9,0,14.2,6.4,14.2,14.2S23.9,30.2,16,30.2S1.8,23.9,1.8,16S8.1,1.8,16,1.8 M16,0C7.1,0,0,7.1,0,16
		s7.1,16,16,16s16-7.1,16-16S24.9,0,16,0L16,0z"/>
	<path fill="#FFFFFF" d="M16,1.8C8.1,1.8,1.8,8.1,1.8,16S8.1,30.2,16,30.2S30.2,23.9,30.2,16S23.9,1.8,16,1.8z M16,28.5
		C9.1,28.5,3.5,22.9,3.5,16S9.1,3.5,16,3.5S28.5,9.1,28.5,16S22.9,28.5,16,28.5z"/>
</g>
</svg>
