<svg xmlns="http://www.w3.org/2000/svg" viewBox="5.6 3.2 12.7 12.7" width="33" height="33">
	<g transform="scale(1 -1)">
		<g transform="translate(0 -75)">
			<path d="M5.6,61.5v8.6c0,0.9,0.8,1.7,1.7,1.7h8.6c0.9,0,1.7-0.8,1.7-1.7v-8.6
				c0-0.9-0.8-1.7-1.7-1.7H7.3C6.4,59.8,5.6,60.5,5.6,61.5z M12.1,61.7v0.9h-0.4l0.8,1.1l0.8-1.1H13v-0.9h2.5v0.9h-0.6l-1.4,1.8
				l1.2,1.7h0.6v0.9h-2v-0.8h0.3l-0.7-1L11.4,67l0.2,0c0.6,0.3,0.9,0.7,0.9,1.3c0,0.4-0.1,0.7-0.4,1c-0.3,0.3-0.7,0.5-1.3,0.5h-3
				v-0.9h0.6v-3.5H7.8v-0.9h2.4v0.9H9.7v1.4H10l0.6-0.8h0l1.3-1.7l-1.3-1.8H10v-0.9H12.1z M9.7,67.7v1.2h0.6c0.2,0,0.4-0.1,0.5-0.2
				c0.1-0.1,0.2-0.3,0.2-0.5c0-0.4-0.3-0.6-0.9-0.6H9.7z"/>
		</g>
	</g>
</svg>