<svg xmlns="http://www.w3.org/2000/svg" viewBox="0 0 98.8 98.6"  width="20" height="20">
<g>
	<path d="M96.3,52.5L49.7,5.9c-1.6-1.7-3.9-3-6.6-4.2C40.3,0.6,37.8,0,35.5,0H8.3C6.1,0,4.1,0.8,2.5,2.5C0.8,4.1,0,6.1,0,8.3v27.1
		c0,2.3,0.6,4.8,1.7,7.6c1.2,2.8,2.6,5,4.2,6.6l46.6,46.7c1.6,1.6,3.6,2.4,5.9,2.4c2.3,0,4.2-0.8,5.9-2.4l32-32.1
		c1.6-1.6,2.4-3.6,2.4-5.9C98.7,56.1,97.9,54.2,96.3,52.5L96.3,52.5z M26.8,26.8c-1.6,1.6-3.6,2.4-5.9,2.4c-2.3,0-4.3-0.8-5.9-2.4
		c-1.6-1.6-2.4-3.6-2.4-5.9c0-2.3,0.8-4.3,2.4-5.9c1.6-1.6,3.6-2.4,5.9-2.4c2.3,0,4.3,0.8,5.9,2.4c1.6,1.6,2.4,3.6,2.4,5.9
		C29.2,23.2,28.4,25.1,26.8,26.8L26.8,26.8z M26.8,26.8"/>
</g>
</svg>
