<svg xmlns="http://www.w3.org/2000/svg" viewBox="0 0 32 32" width="32" height="32">
<path d="M8.2,25.7c-0.1-0.2-0.3-0.4-0.4-0.6h3.5c0.2,1,0.6,1.9,1,2.8c0.9,0.3,1.9,0.5,2.9,0.5
	c-0.6-1-1.1-2.2-1.4-3.3h4.5c-0.4,1.2-0.8,2.3-1.4,3.3c1-0.1,2-0.3,2.9-0.5c0.4-0.9,0.7-1.8,1-2.8h3.5c-0.1,0.2-0.3,0.4-0.4,0.6
	c1.9-1.5,3.3-3.5,4-5.9C27.6,13.5,22.4,8.5,16,8.5s-11.6,5-11.8,11.3C4.9,22.2,6.3,24.2,8.2,25.7z M25.2,18c0.2,0.8,0.3,1.6,0.3,2.4
	s-0.1,1.6-0.3,2.4h-4c0.1-0.8,0.2-1.6,0.2-2.4s-0.1-1.6-0.2-2.4H25.2z M24.2,15.6h-3.5c-0.4-1.5-0.9-2.9-1.6-4.2
	C21.3,12.1,23.1,13.6,24.2,15.6z M16,10.9c1,1.4,1.8,3,2.3,4.7h-4.5C14.2,13.9,15,12.3,16,10.9z M13.2,18h5.6
	c0.1,0.8,0.2,1.6,0.2,2.4s-0.1,1.6-0.2,2.4h-5.6C13.1,22,13,21.2,13,20.4C13,19.5,13.1,18.7,13.2,18z M12.9,11.4
	c-0.7,1.3-1.3,2.7-1.6,4.2H7.8C8.9,13.6,10.7,12.1,12.9,11.4z M6.5,20.3c0-0.8,0.1-1.6,0.3-2.4h4c-0.1,0.8-0.2,1.6-0.2,2.4
	s0.1,1.6,0.2,2.4h-4C6.6,22,6.5,21.2,6.5,20.3z"/>
<path d="M16,0C7.1,0,0,7.1,0,16c0,7.4,5,13.6,11.8,15.4c1.3,0.4,2.8,0.6,4.2,0.6s2.8-0.2,4.2-0.6
	C27,29.6,32,23.4,32,16C32,7.1,24.9,0,16,0z M29.6,20.2c-0.1,0.4-0.3,0.9-0.5,1.3c-0.3,0.6-0.6,1.3-0.9,1.8
	c-0.4,0.7-0.9,1.3-1.4,1.9c-0.2,0.3-0.5,0.6-0.7,0.8c-0.3,0.3-0.7,0.6-1,0.9c-2.5,2-5.6,3.2-9,3.2S9.4,29,7,27
	c-0.4-0.3-0.7-0.6-1-0.9s-0.5-0.5-0.8-0.8c-0.5-0.6-1-1.2-1.4-1.9c-0.4-0.6-0.7-1.2-0.9-1.8c-0.2-0.4-0.3-0.9-0.5-1.3
	c-0.2-0.7-0.4-1.4-0.5-2.1S1.7,16.8,1.7,16C1.8,8.1,8.1,1.8,16,1.8S30.2,8.2,30.2,16c0,0.7-0.1,1.5-0.2,2.2
	C30,18.9,29.8,19.6,29.6,20.2z"/>
</svg>
