<svg xmlns="http://www.w3.org/2000/svg" viewBox="0 0 21 21" width="21" height="21">
<g>
	<path d="M8,14H3v-2h5v-0.8C8,9.4,9.4,8,11.2,8H18V0H0v20l3-3l3,3l2-2V14z M9,4h6v2H9V4z M2.9,8.3h1
		c0,0.5,0.4,0.9,1.3,0.9c1,0,1.2-0.5,1.2-0.8c0-0.4-0.2-0.8-1.3-1.1C3.8,7.1,3,6.6,3,5.6C3,4.7,3.7,4.2,4.5,4V3h1.3v1
		c0.9,0.2,1.4,0.9,1.4,1.7h-1c0-0.6-0.3-0.9-1.1-0.9C4.5,4.7,4,5.1,4,5.6c0,0.4,0.3,0.7,1.3,1s2.1,0.7,2.1,2c0,0.9-0.7,1.4-1.6,1.6
		v1H4.5v-1C3.7,9.9,3,9.3,2.9,8.3"/>
	<rect x="15.2" y="13.1" class="st0" width="5.8" height="4.9"/>
	<path d="M14.1,17.9v-4.9c0-0.7,0.5-1.2,1.2-1.2h5.2v-0.6c0-0.7-0.5-1.2-1.2-1.2h-8.1c-0.6,0-1.2,0.5-1.2,1.2v8.6
		c0,0.7,0.5,1.2,1.2,1.2h8.1c0.6,0,1.2-0.5,1.2-1.2v-0.6h-5.2C14.6,19.2,14.1,18.6,14.1,17.9"/>
</g>
</svg>
