<svg xmlns="http://www.w3.org/2000/svg" viewBox="0 0 21 22" width="21" height="22">
<g>
	<path d="M11.5,14.7V14H3v-2h8.5c0-0.8,0.3-1.5,0.9-2H9V8c0,0,9,0,9,0V0H0v20l3-3l3,3l1.9-1.9l-0.7-0.7L8.6,16
		c0.4-0.4,0.6-0.6,0.7-0.7h0c0,0,0,0,0,0c0.1-0.1,0.1-0.1,0.2-0.1c0.4-0.3,1-0.5,1.5-0.5C11.2,14.6,11.3,14.7,11.5,14.7 M9,4h6v2H9
		V4z M2.9,8.3h1c0,0.5,0.4,0.9,1.3,0.9c1,0,1.2-0.5,1.2-0.8c0-0.4-0.2-0.8-1.3-1.1C3.8,7.1,3,6.6,3,5.6C3,4.7,3.7,4.2,4.5,4V3h1.3v1
		c0.9,0.2,1.4,0.9,1.4,1.7h-1c0-0.6-0.3-0.9-1.1-0.9C4.5,4.7,4,5.1,4,5.6c0,0.4,0.3,0.7,1.3,1s2.1,0.7,2.1,2c0,0.9-0.7,1.4-1.6,1.6
		v1H4.5v-1C3.7,9.9,3,9.3,2.9,8.3"/>
	<path d="M20.3,12c-0.4,0-0.8,0.3-0.8,0.8v2.8H19v-4.3c0-0.4-0.3-0.8-0.8-0.8c-0.4,0-0.8,0.3-0.8,0.8v4.3H17v-4.8
		c0-0.4-0.3-0.8-0.8-0.8c-0.4,0-0.8,0.3-0.8,0.8v4.8H15V12c0-0.4-0.3-0.8-0.8-0.8s-0.8,0.3-0.8,0.8v6c0,0-2.1-1.2-2.2-1.2
		c-0.1-0.1-0.2-0.1-0.3-0.1c-0.1,0-0.3,0-0.4,0.1c0,0-0.6,0.6-0.6,0.6l3.9,4c0.4,0.4,0.9,0.6,1.4,0.6H19c1.1,0,2-0.9,2-2v-7.3
		C21,12.3,20.7,12,20.3,12"/>
</g>
</svg>
