<svg xmlns="http://www.w3.org/2000/svg" viewBox="0 0 24 24">
  <path d="M13.22,17.17a3,3,0,0,1,2.4-2.92A4.43,4.43,0,0,1,22,12.45V7.1a1,1,0,0,0-.51-.88L12.4,1.13A1,1,0,0,0,11.91,1a1,1,0,0,0-.48.12L2.52,6A1,1,0,0,0,2,6.9v10a1,1,0,0,0,.51.88l9.09,5.09A1.05,1.05,0,0,0,12,23h.11a1,1,0,0,0,.48-.12l.64-.36ZM8.93,13.8a.76.76,0,0,1-.4.2h-.3L6.12,12.79a.4.4,0,0,1-.2-.6.66.66,0,0,1,.7-.2L8.83,13.2A.37.37,0,0,1,8.93,13.8ZM3,6.91H3L11.91,2,21,7.09,12.09,12Z"/>
  <path d="M19.61,19.61a2.44,2.44,0,0,1-2.44-2.44h1a1.47,1.47,0,0,0,2.93,0h1A2.45,2.45,0,0,1,19.61,19.61Zm0-4.88a1.46,1.46,0,0,1,1.46,1.46H18.14A1.46,1.46,0,0,1,19.61,14.73ZM23,16.19h-1a2.44,2.44,0,1,0-4.88,0h-1a1,1,0,0,0-1,1V23a1,1,0,0,0,1,1H23a1,1,0,0,0,1-1V17.17A1,1,0,0,0,23,16.19Z"/>
</svg>