<svg xmlns="http://www.w3.org/2000/svg" viewBox="3 1 21 21">
    <path d="M19.5,13.57,21,15.06V12.31a.71.71,0,0,0-.41.17ZM3,1V21l3-3,3,3,1-1v-.07L14.93,15H6V13H16.93l1.66-1.66.16.15.42-.42,0,0,0,0a2.64,2.64,0,0,1,1.76-.7V1ZM8.88,11v1H7.55V11A1.86,1.86,0,0,1,5.91,9.34h1c.05.52.41.93,1.33.93s1.2-.49,1.2-.8-.22-.8-1.34-1.06S6,7.59,6,6.57A1.73,1.73,0,0,1,7.55,5V4H8.88V5a1.79,1.79,0,0,1,1.43,1.7h-1c0-.56-.32-.94-1.11-.94S7,6.08,7,6.55s.32.7,1.33,1,2.09.7,2.09,2C10.44,10.38,9.75,10.88,8.88,11ZM18,11H12V9h6Zm0-4H12V5h6Zm.59,7.17-.59.59V15h-.24l-4.38,4.38L15,21l3-3,.62.62,2.21-2.21Z"/>
    <polygon points="18.59 14.17 20.83 16.41 14.24 23 12 23 12 20.76 18.59 14.17"/>
    <path d="M22.83,14.42,21.75,15.5,21,14.75l-1.5-1.49,1.09-1.09A.71.71,0,0,1,21,12h0a.63.63,0,0,1,.42.17l1.39,1.4A.61.61,0,0,1,22.83,14.42Z"/>
</svg>