<svg xmlns="http://www.w3.org/2000/svg" viewBox="0 0 22 22" width="22" height="22">
<path d="M9.1,21v-2v-1v-2v-2v-2h2h5h2v2v1H20v-5V5.7c0-0.2-0.1-0.3-0.3-0.4l-9.6-5.3C10,0,9.8,0,9.6,0.1L7.3,1.4
	l-7,3.9C0.1,5.4,0,5.6,0,5.7V12v4.2c0,0.2,0.1,0.3,0.3,0.4l8.9,4.9V21z M9.9,1l8.6,4.7l-8.4,4.6L1.4,5.7L9.9,1z M6.5,13.3
	c-0.1,0-0.2,0-0.3,0L4.1,12c-0.3-0.1-0.3-0.4-0.2-0.6c0.2-0.2,0.5-0.3,0.7-0.2l2.2,1.2C7,12.5,7.1,12.8,6.9,13
	C6.8,13.2,6.7,13.3,6.5,13.3z"/>
<path d="M11.1,17v2h10v-2H11.1z M11.1,14v2h5v-2H11.1z M18,20h-6.9v2H18V20z"/>
</svg>
