<svg xmlns="http://www.w3.org/2000/svg" viewBox="0 0 22 22" width="22" height="22">
<path d="M10.6,18.4c-1.5-1.5-1.9-3.8-1-5.7c0.3-0.5,0.7-0.9,1.3-1c0.2-0.6,0.6-1,1.1-1.3c0.6-0.3,1.4-0.5,2.1-0.5
	c1.3,0,2.6,0.5,3.5,1.5c1,1.1,1.6,2.5,1.4,3.9l0.9,0.9c0,0,0,0,0,0V10V5.7c0-0.2-0.1-0.3-0.3-0.4l-9.6-5.3C10,0,9.8,0,9.6,0.1
	L7.3,1.4l-7,3.9C0.1,5.4,0,5.6,0,5.7V12v4.2c0,0.2,0.1,0.3,0.3,0.4l9.6,5.3c0.2,0.1,0.4,0.1,0.5,0l2.4-1.3l1.2-0.7
	C12.7,19.9,11.5,19.3,10.6,18.4z M9.9,1l8.6,4.7l-8.4,4.6L1.4,5.7L9.9,1z M6.9,13c-0.1,0.1-0.3,0.2-0.4,0.2c-0.1,0-0.2,0-0.3,0
	L4.1,12c-0.3-0.1-0.3-0.4-0.2-0.6c0.2-0.2,0.5-0.3,0.7-0.2l2.2,1.2C7,12.5,7.1,12.8,6.9,13z"/>
<path d="M21,20.2L16.9,16c0.4-1.1,0.2-2.3-0.7-3.2c-0.9-0.9-2.3-1.1-3.4-0.6l2,2l-1.4,1.4l-2-2
	c-0.5,1.1-0.3,2.5,0.6,3.4c0.9,0.9,2.1,1.1,3.1,0.7l4.1,4.2c0.2,0.2,0.5,0.2,0.6,0l1-1.1C21.2,20.6,21.2,20.3,21,20.2z"/>
</svg>
