<svg xmlns="http://www.w3.org/2000/svg" viewBox="0 0 21 21" width="21" height="21">
<g>
	<path d="M21,11.9C21,9.2,18.8,7,16,7s-5,2.2-5,4.9c0,3.7,5,9.1,5,9.1S21,15.6,21,11.9z M12.7,11.9
		c0-1.8,1.5-3.3,3.3-3.3s3.3,1.5,3.3,3.3s-1.5,3.3-3.3,3.3C14.2,15.2,12.7,13.8,12.7,11.9z"/>
</g>
<path d="M10.4,16H10v-1c-0.4-1-0.7-2.1-0.7-3.1c0-1.5,0.5-2.8,1.2-3.9H10V6h2.7c1.1-0.6,2.3-1,3.6-1
	c1.3,0,2.6,0.4,3.7,1V4H10V0H0v18h11.5C11.1,17.4,10.8,16.7,10.4,16z M4,16H2v-2h2V16z M4,12H2v-2h2V12z M4,8H2V6h2V8z M4,4H2V2h2V4
	z M8,16H6v-2h2V16z M8,12H6v-2h2V12z M8,8H6V6h2V8z M8,4H6V2h2V4z"/>
<path d="M15,12c0,0.6,0.4,1,1,1.2V12H15z"/>
</svg>
