<svg xmlns="http://www.w3.org/2000/svg" viewBox="0 0 22 21" width="22" height="21">
<g>
	<path d="M12,8h-2V6h8v2h2V4H10V0H0v18h9v-6.8C9,9.5,10.3,8.1,12,8L12,8z M4,16H2v-2h2V16z M4,12H2v-2h2V12z M4,8H2V6h2
		V8z M4,4H2V2h2V4z M8,16H6v-2h2V16z M8,12H6v-2h2V12z M8,8H6V6h2V8z M8,4H6V2h2V4z"/>
	<path d="M20.8,10h-8.6c-0.7,0-1.2,0.6-1.2,1.2v8.6c0,0.7,0.5,1.2,1.2,1.2h8.6c0.7,0,1.2-0.5,1.2-1.2v-8.6
		C22,10.6,21.4,10,20.8,10 M16.5,11.8c1,0,1.8,0.8,1.8,1.8c0,1-0.8,1.8-1.8,1.8c-1,0-1.8-0.8-1.8-1.8C14.7,12.7,15.5,11.8,16.5,11.8
		 M20.2,19.2h-7.3v-0.6c0-1.2,2.4-1.9,3.7-1.9c1.2,0,3.7,0.7,3.7,1.9V19.2z"/>
</g>
</svg>
