<svg xmlns="http://www.w3.org/2000/svg" viewBox="0 0 21 23" width="21" height="23">
<g>
	<path d="M20.9,17.4l-1.1-0.9v-1l1.1-0.8c0.1-0.1,0.1-0.2,0.1-0.3l-1-1.7c-0.1-0.1-0.2-0.2-0.3-0.1L18.4,13
		c-0.3-0.2-0.6-0.4-0.9-0.5l-0.2-1.3c0-0.1-0.1-0.2-0.3-0.2h-2c-0.1,0-0.2,0.1-0.3,0.2l-0.2,1.3c-0.3,0.1-0.6,0.3-0.9,0.5l-1.3-0.5
		c-0.1,0-0.2,0-0.3,0.1l-1,1.7c-0.1,0.1,0,0.2,0.1,0.3l1.1,0.8v1l-1.1,0.8c-0.1,0.2-0.1,0.3-0.1,0.4l1,1.7c0.1,0.1,0.2,0.2,0.3,0.1
		l1.4-0.4c0.3,0.2,0.6,0.4,0.9,0.5l0.2,1.3C14.8,20.9,15,21,15,21h2c0.1,0,0.2-0.1,0.3-0.2l0.2-1.3c0.3-0.1,0.6-0.3,0.9-0.5l1.3,0.5
		c0.1,0,0.2,0,0.3-0.1l1-1.7C21.1,17.6,21,17.5,20.9,17.4z M16,18c-1.1,0-2-0.9-2-2s0.9-2,2-2s2,0.9,2,2S17.1,18,16,18z"/>
</g>
<path d="M12,8c0,1.7-1.3,3-3,3S6,9.7,6,8s1.3-3,3-3S12,6.3,12,8z"/>
<path d="M9.6,15.9L9.6,15.9c-0.8-0.9-0.7-1.9-0.2-2.7l0.7-1.2c-0.4-0.1-0.8-0.1-1.1-0.1c-2,0-6,1.1-6,3.1v1h6.5
	L9.6,15.9z"/>
<path d="M9.4,18.6l-0.3-0.5v-0.5c0-0.2,0-0.4,0.1-0.6H2V4h14v5h1c0.3,0,0.7,0.1,1,0.2V4c0-1.1-0.9-2-2-2h-1V0h-2v2H5
	V0H3v2H2C0.9,2,0,2.9,0,4l0,13c0,1.1,0.9,2,2,2h7.6L9.4,18.6z"/>
</svg>
