<svg xmlns="http://www.w3.org/2000/svg" viewBox="-3 -71 24 24" width="24" height="24">
<g>
	<path d="M7-57H2v-2h5v-2c0-1.7,1.3-3,3-3h5c0.8,0,1.5,0.3,2,0.8V-71H-1v20l3-3l3,3l2-2V-57z M8-67h6v2H8V-67z
		 M1.9-62.7h1c0.1,0.5,0.4,0.9,1.3,0.9c1,0,1.2-0.5,1.2-0.8c0-0.4-0.2-0.8-1.3-1.1C2.8-63.9,2-64.4,2-65.4c0-0.9,0.7-1.4,1.6-1.6v-1
		h1.3v1c0.9,0.2,1.4,0.9,1.4,1.7h-1c0-0.6-0.3-0.9-1.1-0.9c-0.8,0-1.2,0.3-1.2,0.8c0,0.4,0.3,0.7,1.3,1s2.1,0.7,2.1,2
		c0,0.9-0.7,1.4-1.6,1.6v1H3.5v-1C2.7-61.1,2-61.7,1.9-62.7z"/>
</g>
<g>
	<g>
		<path d="M9-61v9c0,0.5,0.5,1,1,1v-11C9.5-62,9-61.5,9-61z"/>
	</g>
	<g>
		<path d="M16-54.8V-61c0-0.5-0.5-1-1-1h-3v4c0.5,0,1,0.2,1.3,0.6L16-54.8z"/>
	</g>
	<g>
		<path d="M12-53.2v1.5c0-0.4,0.1-0.8,0.3-1.2L12-53.2z"/>
	</g>
</g>
<path d="M18.5-54.9L17-56.7v2.9l0.4,0.4c0.2,0.2,0.2,0.5,0,0.7s-0.5,0.2-0.7,0l-4.1-4.1c-0.4-0.4-1-0.4-1.4,0
	c-0.4,0.4-0.4,1,0,1.4l2,2c0.2,0.2,0.2,0.4,0.1,0.6C13.1-52.4,13-52,13-51.5c0,0.9,0.5,1.7,1.3,2.2c0.2,0.1,0.3,0.4,0.2,0.7
	c-0.1,0.2-0.3,0.2-0.4,0.2c-0.1,0-0.2,0-0.2-0.1c-0.8-0.5-1.5-1.3-1.8-2.5h-1c0,2.4,2.5,4,3,4h4c0.5,0,1-0.5,1-1v-5.7
	C19-54.1,18.8-54.6,18.5-54.9z"/>
</svg>
