<svg xmlns="http://www.w3.org/2000/svg" viewBox="0 0 21 21" width="21" height="21">
<g>
	<path d="M9,14H3v-2h6.3c0.3-0.6,1-1,1.7-1h5c1.1,0,2,0.9,2,2V0H0v20l3-3l3,3l3-3V14z M9,4h6v2H9V4z M9,8h6v2H9V8z
		 M2.9,8.3h1c0,0.5,0.4,0.9,1.3,0.9c1,0,1.2-0.5,1.2-0.8c0-0.4-0.2-0.8-1.3-1.1C3.8,7.1,3,6.6,3,5.6C3,4.7,3.7,4.2,4.5,4V3h1.3v1
		c0.9,0.2,1.4,0.9,1.4,1.7h-1c0-0.6-0.3-0.9-1.1-0.9C4.5,4.7,4,5.1,4,5.6c0,0.4,0.3,0.7,1.3,1s2.1,0.7,2.1,2c0,0.9-0.7,1.4-1.6,1.6
		v1H4.5v-1C3.7,9.9,3,9.3,2.9,8.3"/>
	<path d="M11,18h10v-2H11V18z M11,15h5v-2h-5V15z M18,19h-7v2h7V19z"/>
</g>
</svg>
