<svg xmlns="http://www.w3.org/2000/svg" viewBox="0 0 21 23" width="21" height="23">
<g>
	<path d="M3,14v-2h7.4c1.3-1.2,3.1-2,5.1-2c0.9,0,1.7,0.2,2.5,0.4V0H0v20l3-3l3,3l2-2c0-0.2,0-0.3,0-0.5
		C8,16.2,8.3,15,8.9,14H3z M9,4h6v2H9V4z M9,8h6v2H9V8z M2.9,8.3h1c0,0.5,0.4,0.9,1.3,0.9c1,0,1.2-0.5,1.2-0.8
		c0-0.4-0.2-0.8-1.3-1.1C3.8,7.1,3,6.6,3,5.6C3,4.7,3.7,4.2,4.5,4V3h1.3v1c0.9,0.2,1.4,0.9,1.4,1.7h-1c0-0.6-0.3-0.9-1.1-0.9
		C4.5,4.7,4,5.1,4,5.6c0,0.4,0.3,0.7,1.3,1s2.1,0.7,2.1,2c0,0.9-0.7,1.4-1.6,1.6v1H4.5v-1C3.7,9.9,3,9.3,2.9,8.3"/>
	<path d="M15.5,12c-3,0-5.5,2.5-5.5,5.5s2.5,5.5,5.5,5.5s5.5-2.5,5.5-5.5S18.5,12,15.5,12 M15.5,13.7
		c0.9,0,1.6,0.7,1.6,1.6c0,0.9-0.7,1.7-1.6,1.7c-0.9,0-1.7-0.7-1.7-1.7C13.8,14.4,14.6,13.7,15.5,13.7 M15.5,21.5
		c-1.4,0-2.6-0.7-3.3-1.8c0-1.1,2.2-1.7,3.3-1.7c1.1,0,3.3,0.6,3.3,1.7C18.1,20.8,16.9,21.5,15.5,21.5"/>
</g>
</svg>
