<svg xmlns="http://www.w3.org/2000/svg" viewBox="0 0 24 24">
  <defs>
    <style>.cls-1{fill:#f0f3f7;}</style>
  </defs>
  <path class="cls-1"
        d="M21.67,14.8,19.5,13V11l2.17-1.6a.73.73,0,0,0,.2-.6l-2-3.4c-.2-.2-.39-.4-.59-.2L16.73,6A7.93,7.93,0,0,0,15,5l-.4-2.6c0-.2-.19-.4-.59-.4H10c-.19,0-.39.2-.59.4L9,5A7.78,7.78,0,0,0,7.26,6L4.69,5a.72.72,0,0,0-.59.2l-2,3.4c-.2.2,0,.4.2.6L4.5,10.8v2L2.33,14.4a1.51,1.51,0,0,0-.2.8l2,3.4c.2.2.4.4.59.2L7.46,18a7.93,7.93,0,0,0,1.77,1l.4,2.6c-.2.2.2.4.39.4h4c.2,0,.4-.2.59-.4L15,19a7.93,7.93,0,0,0,1.77-1l2.57,1a.71.71,0,0,0,.59-.2l2-3.4C22.06,15.2,21.87,15,21.67,14.8ZM11.67,16a4,4,0,1,1,4-4A4,4,0,0,1,11.67,16Z"/>
</svg>