<svg xmlns="http://www.w3.org/2000/svg" viewBox="0 0 24 24">
  <defs>
    <style>.cls-1{fill:#f0f3f7;}</style>
  </defs>
  <path class="cls-1"
        d="M19.89,5.4c-.19-.2-.39-.4-.59-.2L16.74,6A8.22,8.22,0,0,0,15,5l-.39-2.6c0-.2-.2-.4-.6-.4H10c-.2,0-.4.2-.6.4L9,5A8.22,8.22,0,0,0,7.26,6L4.7,5a.71.71,0,0,0-.59.2l-2,3.4c-.2.2,0,.4.2.6L4.5,10.8v2L2.33,14.4a1.51,1.51,0,0,0-.2.8l2,3.4c.19.2.39.4.59.2L7.46,18a7.78,7.78,0,0,0,1.78,1l.39,2.6c-.2.2.2.4.4.4H14a.5.5,0,0,0,.27-.1A3,3,0,0,1,12,19V16a1.67,1.67,0,0,1-.32,0,4,4,0,0,1,0-8,3.49,3.49,0,0,1,1,.13A3,3,0,0,1,15,7h5a2.76,2.76,0,0,1,.91.15Z"/>
  <path class="cls-1" d="M14,10v9a1,1,0,0,0,1,1V9A1,1,0,0,0,14,10Z"/>
  <path class="cls-1" d="M21,16.23V10a1,1,0,0,0-1-1H17v4a2,2,0,0,1,1.35.55Z"/>
  <path class="cls-1" d="M17,17.8v1.45a3.54,3.54,0,0,1,.29-1.15Z"/>
  <path class="cls-1"
        d="M23.54,16.11,22,14.35v2.88l.43.42a.5.5,0,0,1-.71.71l-4.08-4.08a1,1,0,0,0-1.36,0,1,1,0,0,0,0,1.36l2,2a.51.51,0,0,1,.07.62A2.43,2.43,0,0,0,18,19.5a2.54,2.54,0,0,0,1.25,2.16.51.51,0,0,1,.18.69.5.5,0,0,1-.43.25.47.47,0,0,1-.25-.07A3.78,3.78,0,0,1,17,20H16a4.57,4.57,0,0,0,3,4h4a1,1,0,0,0,1-1V17.32A1.83,1.83,0,0,0,23.54,16.11Z"/>
</svg>