<svg xmlns="http://www.w3.org/2000/svg" viewBox="0 0 24 24">
  <defs>
    <style>.cls-1{fill:#f0f3f7;}</style>
  </defs>
  <path class="cls-1"
        d="M11.68,8a4,4,0,0,1,3.83,3h4l2.17-1.6a.73.73,0,0,0,.2-.6l-2-3.4c-.19-.2-.39-.4-.59-.2L16.74,6A8.22,8.22,0,0,0,15,5l-.39-2.6c0-.2-.2-.4-.6-.4H10c-.2,0-.4.2-.6.4L9,5A8.22,8.22,0,0,0,7.26,6L4.7,5a.71.71,0,0,0-.59.2l-2,3.4c-.2.2,0,.4.2.6L4.5,10.8v2L2.33,14.4a1.51,1.51,0,0,0-.2.8l2,3.4c.19.2.39.4.59.2L7.46,18a7.78,7.78,0,0,0,1.78,1l.39,2.6c-.2.2.2.4.4.4h1V16A4,4,0,0,1,11.68,8Z"/>
  <path class="cls-1"
        d="M23,22v.78A1.17,1.17,0,0,1,21.89,24H14.11A1.17,1.17,0,0,1,13,22.78V14.22A1.17,1.17,0,0,1,14.11,13h7.78A1.17,1.17,0,0,1,23,14.22V15H18.09A1.14,1.14,0,0,0,17,16.17v4.66A1.13,1.13,0,0,0,18.09,22Zm-5-1h6V16H18Z"/>
</svg>